<?xml version="1.0" standalone="no"?>
<!DOCTYPE svg PUBLIC "-//W3C//DTD SVG 1.1//EN" "http://www.w3.org/Graphics/SVG/1.1/DTD/svg11.dtd" >
<svg>
<metadata>
Created by FontForge 20090622 at Wed Jun 19 17:56:25 2019
 By deploy user
Samsung Sharp Sans is a customized version of Sharp Sans, which is copyright (c) 2015 by Lucas Sharp. All rights reserved.
</metadata>
<defs>
<font id="SamsungSharpSans" horiz-adv-x="588" >
  <font-face 
    font-family="Samsung Sharp Sans"
    font-weight="400"
    font-stretch="normal"
    units-per-em="1000"
    panose-1="2 0 5 3 0 0 0 2 0 4"
    ascent="800"
    descent="-200"
    x-height="585"
    cap-height="730"
    bbox="-70 -283 1333 1076"
    underline-thickness="50"
    underline-position="-50"
    unicode-range="U+000D-U+FB79"
  />
<missing-glyph horiz-adv-x="926" 
d="M100 0v730h726v-730h-726zM236 600v-470h454v470h-454zM340 162l-80 78l123 127l-124 129l80 78l122 -126l124 127l80 -78l-126 -130l125 -128l-80 -78l-123 126z" />
    <glyph glyph-name="uni203D" unicode="&#x21;&#x3f;" horiz-adv-x="539" 
d="M289 161h-46q-3 88 -3 452v74q-89 -12 -133 -95l-51 24q28 55 83.5 89.5t131.5 34.5q91 0 150.5 -49.5t59.5 -128.5q0 -51 -20 -86t-48 -57l-56 -45.5t-48 -67t-20 -107.5v-38zM423 563q0 49 -35.5 83t-91.5 41v-74q0 -82 -6 -250q16 26 42 51t44.5 40t32.5 43.5t14 65.5
zM216 39q0 21 14 34.5t35 13.5q23 0 36 -13.5t13 -34.5q0 -22 -13 -35.5t-36 -13.5t-36 13.5t-13 35.5z" />
    <glyph glyph-name="uniE935" unicode="&#xa1;&#xbf;" horiz-adv-x="539" 
d="M269 -240q-91 0 -151 49.5t-60 128.5q0 51 20 86t48 57l56 45.5t48 67t20 107.5v38h47q2 -59 2 -452v-74q89 12 134 95l51 -24q-28 -55 -84 -89.5t-131 -34.5zM117 -63q0 -50 35 -83.5t91 -40.5v74q0 82 6 248q-16 -25 -41.5 -49.5t-44 -40t-32.5 -43.5t-14 -65zM225 462
q0 21 14 34.5t35 13.5q23 0 36 -13.5t13 -34.5q0 -22 -13 -35.5t-36 -13.5t-36 13.5t-13 35.5z" />
    <glyph glyph-name="uniFB76" unicode="&#x683;" horiz-adv-x="520" arabic-form="isolated" 
d="M72 0v596h200q85 0 142 -55t57 -134q0 -60 -34 -107t-94 -67l134 -233h-68l-122 218h-157v-218h-58zM269 543h-139v-273h135q65 0 106 41.5t41 95.5q0 61 -38 98.5t-105 37.5z" />
    <glyph glyph-name="uniFB77" unicode="&#x683;" horiz-adv-x="520" arabic-form="final" 
d="M72 0v596h200q85 0 142 -55t57 -134q0 -60 -34 -107t-94 -67l134 -233h-68l-122 218h-157v-218h-58zM269 543h-139v-273h135q65 0 106 41.5t41 95.5q0 61 -38 98.5t-105 37.5zM213 661l119 155h75l-140 -155h-54z" />
    <glyph glyph-name="uniFB78" unicode="&#x683;" horiz-adv-x="520" arabic-form="initial" 
d="M72 0v596h200q85 0 142 -55t57 -134q0 -60 -34 -107t-94 -67l134 -233h-68l-122 218h-157v-218h-58zM269 543h-139v-273h135q65 0 106 41.5t41 95.5q0 61 -38 98.5t-105 37.5zM237 661l-117 155h59l81 -114l84 114h59l-118 -155h-48z" />
    <glyph glyph-name="uniFB79" unicode="&#x683;" horiz-adv-x="520" arabic-form="medial" 
d="M72 0v596h200q85 0 142 -55t57 -134q0 -60 -34 -107t-94 -67l134 -233h-68l-122 218h-157v-218h-58zM269 543h-139v-273h135q65 0 106 41.5t41 95.5q0 61 -38 98.5t-105 37.5zM232 -260h-40l43 204h55z" />
    <glyph glyph-name=".notdef" horiz-adv-x="926" 
d="M100 0v730h726v-730h-726zM236 600v-470h454v470h-454zM340 162l-80 78l123 127l-124 129l80 78l122 -126l124 127l80 -78l-126 -130l125 -128l-80 -78l-123 126z" />
    <glyph glyph-name="uni0000" horiz-adv-x="0" 
 />
    <glyph glyph-name="uni0000" horiz-adv-x="0" 
 />
    <glyph glyph-name="uni000D" unicode="&#xd;" horiz-adv-x="250" 
 />
    <glyph glyph-name="space" unicode=" " horiz-adv-x="254" 
 />
    <glyph glyph-name="exclam" unicode="!" horiz-adv-x="242" 
d="M139 152h-33q-13 224 -13 401v177h58v-177q0 -195 -12 -401zM72 39q0 21 14 34.5t35 13.5q23 0 36 -13.5t13 -34.5q0 -22 -13 -35.5t-36 -13.5t-36 13.5t-13 35.5z" />
    <glyph glyph-name="quotedbl" unicode="&#x22;" horiz-adv-x="286" 
d="M100 500h-20q-1 5 -5.5 37t-7.5 61t-3 48v84h51v-84q0 -71 -15 -146zM207 500h-20q-1 5 -5.5 37t-7.5 61t-3 48v84h51v-84q0 -71 -15 -146z" />
    <glyph glyph-name="numbersign" unicode="#" horiz-adv-x="835" 
d="M525 0v204h-217v-204h-58v204h-202v55h202v220h-202v55h202v196h58v-196h217v196h58v-196h204v-55h-204v-220h204v-55h-204v-204h-58zM308 479v-220h217v220h-217z" />
    <glyph glyph-name="dollar" unicode="$" 
d="M540 196q0 -79 -60 -138t-154 -67v-111h-57v111q-144 10 -229 113l44 41q70 -91 185 -101v321q-37 12 -60 21t-54 25.5t-48.5 35t-30.5 46.5t-13 63q0 78 56.5 127.5t149.5 55.5v101h57v-102q128 -11 201 -106l-46 -35q-54 79 -155 91v-286q37 -12 62 -21.5t56.5 -27
t50 -37.5t32 -51t13.5 -69zM481 195q0 60 -41 93t-114 58v-302q70 8 112.5 49t42.5 102zM122 556q0 -52 38 -81.5t109 -54.5v269q-66 -5 -106.5 -41t-40.5 -92z" />
    <glyph glyph-name="percent" unicode="%" horiz-adv-x="858" 
d="M126 574q0 -48 34 -83t82 -35t82 35t34 83q0 49 -34 83t-82 34t-82 -34t-34 -83zM466 156q0 69 48.5 117.5t117.5 48.5t117.5 -48.5t48.5 -117.5t-48.5 -118t-117.5 -49t-117.5 49t-48.5 118zM87 0l627 730h73l-627 -730h-73zM516 156q0 -50 34 -84t82 -34t82 34t34 84
q0 49 -34 83t-82 34t-82 -34t-34 -83zM76 574q0 69 48.5 117.5t117.5 48.5t117.5 -48.5t48.5 -117.5t-48.5 -118t-117.5 -49t-117.5 49t-48.5 118z" />
    <glyph glyph-name="ampersand" unicode="&#x26;" horiz-adv-x="762" 
d="M636 0l-79 78q-99 -89 -224 -89q-72 0 -128.5 21.5t-89 57t-49 76t-16.5 82.5q0 74 38 131.5t104 91.5q-47 61 -47 127q0 68 49 116t133 48q57 0 101 -24.5t69 -63.5l-47 -31q-45 69 -123 69q-56 0 -90 -33t-34 -81q0 -23 5.5 -41.5t26 -45t34.5 -42t56 -58.5l236 -236
q85 99 97 226h-143v54h199v-23q0 -73 -31 -151.5t-87 -141.5l118 -117h-78zM333 40q103 0 188 73l-242 242l-54 54q-117 -61 -117 -183q0 -71 58 -128.5t167 -57.5z" />
    <glyph glyph-name="quotesingle" unicode="'" horiz-adv-x="179" 
d="M100 500h-20q-1 5 -5.5 37t-7.5 61t-3 48v84h51v-84q0 -71 -15 -146z" />
    <glyph glyph-name="parenleft" unicode="(" horiz-adv-x="419" 
d="M367 -203l-39 -45q-274 193 -274 498q0 304 270 497l40 -44q-248 -172 -248 -453q0 -284 251 -453z" />
    <glyph glyph-name="parenright" unicode=")" horiz-adv-x="419" 
d="M303 250q0 285 -248 452l40 45q270 -193 270 -498q0 -310 -274 -497l-39 45q251 169 251 453z" />
    <glyph glyph-name="asterisk" unicode="*" horiz-adv-x="438" 
d="M357 443l-125 89l14 -156h-54l14 156l-128 -90l-26 46l141 66l-141 67l26 45l128 -91l-14 155h54l-14 -153l126 88l26 -46l-142 -65l142 -65z" />
    <glyph glyph-name="plus" unicode="+" horiz-adv-x="475" 
d="M53 340v50h160v159h50v-159h160v-50h-160v-161h-50v161h-160z" />
    <glyph glyph-name="comma" unicode="," horiz-adv-x="191" 
d="M32 -117l43 204h63l-60 -204h-46z" />
    <glyph glyph-name="hyphen" unicode="-" horiz-adv-x="475" 
d="M53 226v51h370v-51h-370z" />
    <glyph glyph-name="period" unicode="." horiz-adv-x="191" 
d="M47 39q0 21 14 34.5t35 13.5q23 0 36 -13.5t13 -34.5q0 -22 -13 -35.5t-36 -13.5t-36 13.5t-13 35.5z" />
    <glyph glyph-name="slash" unicode="/" horiz-adv-x="463" 
d="M28 0l346 730h62l-346 -730h-62z" />
    <glyph glyph-name="zero" unicode="0" 
d="M293 43q81 0 126 46t45 130v282q0 89 -44.5 137.5t-124.5 48.5q-81 0 -126 -49.5t-45 -136.5v-278q0 -86 44 -133t125 -47zM294 -10q-109 0 -168.5 61.5t-59.5 171.5v278q0 106 63 172.5t165 66.5q103 0 165.5 -67t62.5 -172v-282q0 -110 -60 -169.5t-168 -59.5z" />
    <glyph glyph-name="one" unicode="1" horiz-adv-x="321" 
d="M212 0h-58v676h-132v54h190v-730z" />
    <glyph glyph-name="two" unicode="2" horiz-adv-x="587" 
d="M65 0v59q0 41 16.5 77.5t52.5 72t62.5 56.5t77.5 57q102 74 133 105q55 57 55 114q0 66 -45.5 106.5t-122.5 40.5q-121 0 -181 -116l-50 27q31 64 91 102.5t139 38.5q102 0 165 -57t63 -143q0 -40 -15.5 -75.5t-51 -70.5t-60.5 -54.5t-77 -56.5l-72.5 -52.5t-57 -49
t-47 -60t-14.5 -62.5v-4h405v-55h-466z" />
    <glyph glyph-name="three" unicode="3" horiz-adv-x="573" 
d="M278 -9q-153 0 -231 98l46 38q67 -85 185 -85q81 0 131 44.5t50 113.5t-53.5 110.5t-134.5 41.5h-68v55h68q77 0 124 38t47 102q0 65 -46.5 103t-125.5 38q-52 0 -95.5 -23t-69.5 -58l-47 33q81 100 214 100q105 0 166 -53.5t61 -139.5q0 -122 -117 -167
q135 -46 135 -180q0 -93 -65 -151t-174 -58z" />
    <glyph glyph-name="four" unicode="4" horiz-adv-x="614" 
d="M403 0v168h-354l-2 53l356 509h58v-510h107v-52h-107v-168h-58zM109 220h294v419z" />
    <glyph glyph-name="five" unicode="5" horiz-adv-x="611" 
d="M308 -10q-84 0 -147.5 35.5t-97.5 99.5l54 33q59 -114 191 -114q82 0 137 52.5t55 137.5q0 89 -58 139.5t-134 50.5q-132 0 -189 -118l-56 19l59 405h384v-54h-336l-40 -277q66 78 178 78q102 0 176 -63t74 -180q0 -107 -70.5 -175.5t-179.5 -68.5z" />
    <glyph glyph-name="six" unicode="6" horiz-adv-x="622" 
d="M308 -10q-110 0 -183.5 73.5t-73.5 179.5q0 95 57 172l221 315h70l-177 -250q42 18 95 18q104 0 176 -73.5t72 -180.5t-74.5 -180.5t-182.5 -73.5zM308 43q82 0 141 59t59 142q0 84 -59 142.5t-141 58.5q-84 0 -142 -58.5t-58 -142.5t58 -142.5t142 -58.5z" />
    <glyph glyph-name="seven" unicode="7" horiz-adv-x="534" 
d="M105 0l326 675h-385v55h446v-50l-325 -680h-62z" />
    <glyph glyph-name="eight" unicode="8" horiz-adv-x="571" 
d="M285 -10q-106 0 -168.5 60.5t-62.5 151.5q0 62 34.5 112t92.5 75q-46 24 -73 66.5t-27 95.5q0 81 57.5 135t146.5 54q88 0 147 -54.5t59 -134.5q0 -53 -28 -95t-74 -66q58 -24 93 -75t35 -113q0 -91 -62.5 -151.5t-169.5 -60.5zM285 43q79 0 127 45.5t48 113.5
q0 66 -48 113t-127 47q-78 0 -126 -47t-48 -113q0 -68 47.5 -113.5t126.5 -45.5zM285 413q67 0 109 40t42 98q0 59 -41.5 98.5t-109.5 39.5q-67 0 -108 -39.5t-41 -98.5q0 -58 41 -98t108 -40z" />
    <glyph glyph-name="nine" unicode="9" horiz-adv-x="608" 
d="M213 0l177 258q-42 -18 -94 -18q-103 0 -174 72.5t-71 177.5q0 106 73 178t180 72q106 0 179.5 -72.5t73.5 -176.5q0 -89 -51 -161l-224 -330h-69zM304 294q81 0 138.5 57.5t57.5 138.5t-57.5 139t-138.5 58q-80 0 -138 -58t-58 -139t58 -138.5t138 -57.5z" />
    <glyph glyph-name="colon" unicode=":" horiz-adv-x="190" 
d="M47 39q0 21 14 34.5t35 13.5q23 0 36 -13.5t13 -34.5q0 -22 -13 -35.5t-36 -13.5t-36 13.5t-13 35.5zM47 457q0 21 14 34.5t35 13.5q23 0 36 -13.5t13 -34.5q0 -22 -13 -35.5t-36 -13.5t-36 13.5t-13 35.5z" />
    <glyph glyph-name="semicolon" unicode=";" horiz-adv-x="191" 
d="M32 -117l43 204h63l-60 -204h-46zM47 457q0 21 14 34.5t35 13.5q23 0 36 -13.5t13 -34.5q0 -22 -13 -35.5t-36 -13.5t-36 13.5t-13 35.5z" />
    <glyph glyph-name="less" unicode="&#x3c;" horiz-adv-x="475" 
d="M423 196l-370 146v49l370 142v-52l-310 -114l310 -118v-53z" />
    <glyph glyph-name="equal" unicode="=" horiz-adv-x="475" 
d="M53 419v50h370v-50h-370zM53 258v49h370v-49h-370z" />
    <glyph glyph-name="greater" unicode="&#x3e;" horiz-adv-x="475" 
d="M53 196v53l310 118l-310 114v52l370 -142v-49z" />
    <glyph glyph-name="question" unicode="?" horiz-adv-x="539" 
d="M228 161v38q0 59 14.5 104t36 69t47 46.5t47 38.5t36 43.5t14.5 63.5q0 55 -44 90t-110 35q-111 0 -162 -97l-51 24q28 55 83.5 89.5t130.5 34.5q91 0 151 -49t60 -128q0 -44 -14.5 -76.5t-37 -50.5l-48 -39.5t-48 -43t-37 -61t-14.5 -93.5v-38h-54zM206 39q0 21 14 34.5
t35 13.5q23 0 36 -13.5t13 -34.5q0 -22 -13 -35.5t-36 -13.5t-36 13.5t-13 35.5z" />
    <glyph glyph-name="at" unicode="@" horiz-adv-x="856" 
d="M427 -125q-156 0 -264.5 109.5t-108.5 265.5q0 155 113 265t269 110t260.5 -100.5t104.5 -236.5q0 -88 -40.5 -148.5t-112.5 -60.5q-85 0 -111 69q-19 -32 -53.5 -52t-80.5 -20q-66 0 -114 49.5t-40 132.5q11 85 62.5 131.5t117.5 46.5q81 0 116 -63q5 42 5 48q1 5 1 9
h55l-20 -181q-7 -62 10 -89.5t56 -27.5q44 0 70 43.5t26 111.5q0 116 -88.5 201t-224.5 85q-134 0 -229 -94.5t-95 -228.5t91.5 -228.5t224.5 -94.5q136 0 232 98l40 -35q-110 -115 -272 -115zM414 128q50 0 82 38t36 92q6 53 -19 90.5t-75 37.5t-86.5 -35t-42.5 -93
q-8 -53 22.5 -91.5t82.5 -38.5z" />
    <glyph glyph-name="A" unicode="A" horiz-adv-x="698" 
d="M37 0l281 730h62l281 -730h-61l-79 204h-345l-78 -204h-61zM349 653l-152 -394h303z" />
    <glyph glyph-name="B" unicode="B" horiz-adv-x="639" 
d="M75 0v730h279q94 0 153.5 -53t59.5 -136q0 -56 -26.5 -98.5t-76.5 -63.5q57 -21 89 -67.5t32 -110.5q0 -90 -60.5 -145.5t-156.5 -55.5h-293zM366 350h-233v-297h234q69 0 114.5 42.5t45.5 105.5q0 66 -43.5 107.5t-117.5 41.5zM353 677h-220v-274h230q67 0 106.5 38.5
t39.5 99.5q0 58 -44 97t-112 39z" />
    <glyph glyph-name="C" unicode="C" horiz-adv-x="796" 
d="M428 -10q-155 0 -265 110t-110 265t110 265t265 110q100 0 185 -50t137 -134l-50 -29q-42 73 -113 116t-159 43q-133 0 -224.5 -94t-91.5 -227q0 -132 91.5 -226t224.5 -94q95 0 168 45t113 123l51 -26q-49 -91 -136 -144t-196 -53z" />
    <glyph glyph-name="D" unicode="D" horiz-adv-x="711" 
d="M75 0v730h205q164 0 271 -104.5t107 -260.5t-108.5 -260.5t-267.5 -104.5h-207zM276 677h-143v-623h145q137 0 229 89t92 222q0 134 -90.5 223t-232.5 89z" />
    <glyph glyph-name="E" unicode="E" horiz-adv-x="583" 
d="M75 0v730h447v-55h-389v-282h389v-54h-389v-284h389v-55h-447z" />
    <glyph glyph-name="F" unicode="F" horiz-adv-x="547" 
d="M75 0v730h413v-55h-355v-282h355v-55h-355v-338h-58z" />
    <glyph glyph-name="G" unicode="G" horiz-adv-x="850" 
d="M430 -10q-159 0 -268 109.5t-109 265.5q0 157 109.5 266t271.5 109q106 0 189.5 -48.5t132.5 -135.5l-50 -29q-41 74 -111.5 116.5t-160.5 42.5q-140 0 -231 -93.5t-91 -227.5q0 -133 90.5 -226.5t227.5 -93.5q133 0 216 79t95 203h-316v54h374v-15q0 -159 -100 -267.5
t-269 -108.5z" />
    <glyph glyph-name="H" unicode="H" horiz-adv-x="688" 
d="M555 0v339h-422v-339h-58v730h58v-336h422v336h58v-730h-58z" />
    <glyph glyph-name="I" unicode="I" horiz-adv-x="227" 
d="M85 0v730h57v-730h-57z" />
    <glyph glyph-name="J" unicode="J" horiz-adv-x="476" 
d="M219 -10q-131 0 -182 103l52 33q39 -83 129 -83q60 0 94 39t34 106v542h58v-541q0 -93 -49 -146t-136 -53z" />
    <glyph glyph-name="K" unicode="K" horiz-adv-x="649" 
d="M555 0l-264 397l-158 -181v-216h-57v730h57v-437l382 437h71l-254 -293l290 -437h-67z" />
    <glyph glyph-name="L" unicode="L" horiz-adv-x="533" 
d="M75 0v730h58v-675h347v-55h-405z" />
    <glyph glyph-name="M" unicode="M" horiz-adv-x="866" 
d="M75 0v730h57l296 -410l307 410h55v-730h-57v638l-306 -413l-294 404v-629h-58z" />
    <glyph glyph-name="N" unicode="N" horiz-adv-x="742" 
d="M75 0v730h64l470 -640v640h58v-730h-62l-472 643v-643h-58z" />
    <glyph glyph-name="O" unicode="O" horiz-adv-x="855" 
d="M428 -10q-155 0 -265 110t-110 265t110 265t265 110t265 -110t110 -265t-110 -265t-265 -110zM428 45q133 0 224 94t91 226q0 134 -91 227t-224 93t-224.5 -93.5t-91.5 -226.5q0 -132 91.5 -226t224.5 -94z" />
    <glyph glyph-name="P" unicode="P" horiz-adv-x="617" 
d="M75 0v730h221q119 0 193 -70.5t74 -177.5t-74 -178t-193 -71h-163v-233h-58zM293 677h-160v-390h160q96 0 153.5 55.5t57.5 139.5q0 86 -57 140.5t-154 54.5z" />
    <glyph glyph-name="Q" unicode="Q" horiz-adv-x="856" 
d="M706 0l-255 301h72l132 -155q89 92 89 219q0 133 -91.5 226.5t-224.5 93.5t-224.5 -93.5t-91.5 -226.5q0 -132 91.5 -226t224.5 -94q77 0 147 38l36 -43q-86 -50 -183 -50q-155 0 -265 110t-110 265t110 265t265 110t265 -110t110 -265q0 -150 -111 -263l88 -102h-74z
" />
    <glyph glyph-name="R" unicode="R" horiz-adv-x="596" 
d="M482 0l-152 272h-197v-272h-58v730h228q101 0 170.5 -67t69.5 -161q0 -73 -44.5 -132.5t-115.5 -81.5l164 -288h-65zM299 677h-166v-352h165q81 0 134 53t53 124q0 75 -52 125t-134 50z" />
    <glyph glyph-name="S" unicode="S" horiz-adv-x="557" 
d="M273 -10q-153 0 -243 120l48 37q71 -104 195 -104q75 0 125 42.5t50 111.5q0 29 -11.5 52.5t-25 38t-43.5 29.5t-48.5 21.5l-57.5 19.5q-37 12 -60.5 21t-54 26t-48 36t-30 48.5t-12.5 65.5q0 80 62.5 132.5t154.5 52.5q136 0 215 -100l-45 -35q-60 84 -170 84
q-67 0 -112.5 -37.5t-45.5 -96.5q0 -73 78 -113q26 -12 104 -39q49 -17 77.5 -29.5t63 -36.5t51 -58.5t16.5 -81.5q0 -87 -66 -147t-167 -60z" />
    <glyph glyph-name="T" unicode="T" horiz-adv-x="610" 
d="M276 0v677h-228v53h514v-53h-228v-677h-58z" />
    <glyph glyph-name="U" unicode="U" horiz-adv-x="641" 
d="M320 -10q-106 0 -177 71.5t-71 176.5v492h58v-495q0 -79 55 -134.5t135 -55.5t135.5 55.5t55.5 135.5v494h58v-492q0 -105 -71.5 -176.5t-177.5 -71.5z" />
    <glyph glyph-name="V" unicode="V" horiz-adv-x="681" 
d="M311 0l-274 730h60l243 -649l243 649h61l-275 -730h-58z" />
    <glyph glyph-name="W" unicode="W" horiz-adv-x="1072" 
d="M257 0l-215 730h61l186 -641l218 641h55l216 -641l193 641h60l-223 -730h-59l-216 640l-217 -640h-59z" />
    <glyph glyph-name="X" unicode="X" horiz-adv-x="652" 
d="M551 0l-225 331l-225 -331h-65l257 377l-238 353h66l206 -305l206 305h65l-237 -350l255 -380h-65z" />
    <glyph glyph-name="Y" unicode="Y" horiz-adv-x="612" 
d="M278 0v347l-245 383h65l208 -328l208 328h65l-243 -381v-349h-58z" />
    <glyph glyph-name="Z" unicode="Z" horiz-adv-x="600" 
d="M58 0v53l415 622h-399v55h467v-53l-415 -622h417v-55h-485z" />
    <glyph glyph-name="bracketleft" unicode="[" horiz-adv-x="378" 
d="M53 -230v960h273v-54h-215v-852h215v-54h-273z" />
    <glyph glyph-name="backslash" unicode="\" horiz-adv-x="463" 
d="M374 0l-346 730h62l346 -730h-62z" />
    <glyph glyph-name="bracketright" unicode="]" horiz-adv-x="378" 
d="M53 -230v53h215v853h-215v54h273v-960h-273z" />
    <glyph glyph-name="asciicircum" unicode="^" horiz-adv-x="502" 
d="M105 516l123 167h44l126 -167h-60l-88 117l-85 -117h-60z" />
    <glyph glyph-name="underscore" unicode="_" horiz-adv-x="542" 
d="M53 -60v50h437v-50h-437z" />
    <glyph glyph-name="grave" unicode="`" horiz-adv-x="502" 
d="M287 565l-140 155h74l120 -155h-54z" />
    <glyph glyph-name="a" unicode="a" horiz-adv-x="747" 
d="M361 -12q-128 0 -215 89t-87 215q0 127 87 216t215 89q75 0 143.5 -39.5t101.5 -107.5v135h56v-585h-56v134q-33 -68 -101.5 -107t-143.5 -39zM363 41q105 0 177 73t72 178t-72 178.5t-177 73.5q-103 0 -174.5 -73.5t-71.5 -178.5t71.5 -178t174.5 -73z" />
    <glyph glyph-name="b" unicode="b" horiz-adv-x="746" 
d="M386 -12q-75 0 -143.5 38.5t-101.5 105.5v-132h-55v740h56v-286q33 66 101.5 104.5t142.5 38.5q128 0 215 -89t87 -216q0 -126 -87.5 -215t-214.5 -89zM384 41q103 0 174 73t71 178t-71 178.5t-174 73.5q-105 0 -177 -73.5t-72 -178.5t72 -178t177 -73z" />
    <glyph glyph-name="c" unicode="c" horiz-adv-x="697" 
d="M365 -12q-129 0 -217.5 88.5t-88.5 215.5q0 129 88.5 217t216.5 88q94 0 169 -49.5t108 -130.5l-53 -22q-30 70 -88.5 109.5t-135.5 39.5q-105 0 -176 -73.5t-71 -178.5t72 -178t177 -73q79 0 137 41.5t87 112.5l54 -23q-36 -84 -108.5 -134t-170.5 -50z" />
    <glyph glyph-name="d" unicode="d" horiz-adv-x="747" 
d="M361 -12q-128 0 -215 89t-87 215q0 127 87 216t215 89q74 0 141.5 -38.5t102.5 -105.5v287h56v-740h-55v134q-33 -68 -101.5 -107t-143.5 -39zM363 41q105 0 177 73t72 178t-72 178.5t-177 73.5q-103 0 -174.5 -73.5t-71.5 -178.5t71.5 -178t174.5 -73z" />
    <glyph glyph-name="e" unicode="e" horiz-adv-x="722" 
d="M366 -12q-139 0 -223 86t-84 216t87 218.5t217 88.5q129 0 213.5 -84.5t84.5 -213.5v-26h-547q6 -102 75 -167.5t177 -65.5q167 0 230 156l51 -24q-80 -184 -281 -184zM363 545q-96 0 -165.5 -62.5t-81.5 -156.5h487q-8 97 -74 158t-166 61z" />
    <glyph glyph-name="f" unicode="f" horiz-adv-x="397" 
d="M39 533v52h103v15q0 125 41 167t162 42h6v-54q-98 0 -126 -28t-28 -128v-14h154v-52h-154v-533h-55v533h-103z" />
    <glyph glyph-name="g" unicode="g" horiz-adv-x="747" 
d="M361 -12q-128 0 -215 89t-87 215q0 127 87 216t215 89q75 0 143.5 -39.5t101.5 -107.5v135h56v-573q0 -135 -79.5 -215t-212.5 -80q-103 0 -167 40t-109 120l55 25q34 -66 86 -99.5t135 -33.5q109 0 172.5 65.5t63.5 175.5v124q-33 -68 -101.5 -107t-143.5 -39zM363 41
q105 0 177 73t72 178t-72 178.5t-177 73.5q-103 0 -174.5 -73.5t-71.5 -178.5t71.5 -178t174.5 -73z" />
    <glyph glyph-name="h" unicode="h" horiz-adv-x="706" 
d="M86 0v740h55v-269q31 58 89.5 92t133.5 34q118 0 189 -72.5t71 -196.5v-328h-58v329q0 99 -55.5 157.5t-153.5 58.5q-92 0 -154 -62.5t-62 -154.5v-328h-55z" />
    <glyph glyph-name="i" unicode="i" horiz-adv-x="226" 
d="M85 0v585h57v-585h-57zM65 713q0 21 14 34.5t35 13.5q23 0 36 -13.5t13 -34.5q0 -22 -13 -35.5t-36 -13.5t-36 13.5t-13 35.5z" />
    <glyph glyph-name="j" unicode="j" horiz-adv-x="226" 
d="M-70 -268v56q96 0 125.5 27.5t29.5 126.5v643h57v-644q0 -122 -42.5 -165.5t-160.5 -43.5h-9zM65 713q0 21 14 34.5t35 13.5q23 0 36 -13.5t13 -34.5q0 -22 -13 -35.5t-36 -13.5t-36 13.5t-13 35.5z" />
    <glyph glyph-name="k" unicode="k" horiz-adv-x="607" 
d="M503 0l-225 305l-136 -141v-164h-56v740h56v-509l340 354h73l-236 -245l251 -340h-67z" />
    <glyph glyph-name="l" unicode="l" horiz-adv-x="231" 
d="M86 0v740h58v-740h-58z" />
    <glyph glyph-name="m" unicode="m" horiz-adv-x="1155" 
d="M85 0v585h55v-112q28 57 83.5 90.5t129.5 33.5q87 0 144.5 -39t81.5 -107q27 66 88.5 106t144.5 40q121 0 191 -71t70 -188v-338h-57v342q0 90 -56 146.5t-149 56.5q-89 0 -148 -55.5t-59 -147.5v-342h-57v353q0 87 -53.5 139.5t-144.5 52.5t-149 -59.5t-58 -154.5v-331
h-57z" />
    <glyph glyph-name="n" unicode="n" horiz-adv-x="707" 
d="M85 0v585h55v-119q30 59 89.5 95t135.5 36q118 0 189 -72.5t71 -196.5v-328h-57v329q0 98 -56 156.5t-154 58.5q-92 0 -154 -62t-62 -154v-328h-57z" />
    <glyph glyph-name="o" unicode="o" horiz-adv-x="726" 
d="M363 -12q-127 0 -215.5 88t-88.5 216t89 216.5t215 88.5t215 -88.5t89 -216.5t-88.5 -216t-215.5 -88zM363 41q103 0 174 73t71 178t-71 178.5t-174 73.5q-104 0 -175 -73.5t-71 -178.5t71 -178t175 -73z" />
    <glyph glyph-name="p" unicode="p" horiz-adv-x="745" 
d="M385 -12q-78 0 -144.5 37t-100.5 104v-398h-55v854h54v-134q33 68 102 107t144 39q127 0 214 -89t87 -216q0 -126 -87 -215t-214 -89zM382 41q103 0 174.5 73t71.5 178t-71.5 178.5t-174.5 73.5q-104 0 -176.5 -73.5t-72.5 -178.5t72.5 -178t176.5 -73z" />
    <glyph glyph-name="q" unicode="q" horiz-adv-x="746" 
d="M361 -12q-128 0 -215 89t-87 215q0 127 87 216t215 89q75 0 143.5 -39.5t101.5 -107.5v135h55v-854h-56v399q-33 -68 -100 -105t-144 -37zM363 41q105 0 177 73t72 178t-72 178.5t-177 73.5q-103 0 -174.5 -73.5t-71.5 -178.5t71.5 -178t174.5 -73z" />
    <glyph glyph-name="r" unicode="r" horiz-adv-x="458" 
d="M85 0v585h55v-104q48 110 173 110q64 0 121 -33l-34 -50q-43 30 -89 30q-79 0 -124 -51.5t-45 -143.5v-343h-57z" />
    <glyph glyph-name="s" unicode="s" horiz-adv-x="542" 
d="M267 -12q-73 0 -133.5 29.5t-96.5 79.5l45 36q31 -42 79.5 -68t106.5 -26q76 0 117.5 35.5t41.5 87.5q0 18 -5.5 33t-20.5 26.5t-26 19t-37 15.5t-38 11l-43 11q-45 11 -72 20.5t-58.5 27.5t-46.5 45.5t-15 66.5q0 66 56 113t145 47q129 0 204 -85l-43 -35
q-62 70 -161 70q-67 0 -105.5 -30.5t-38.5 -78.5q0 -21 10 -37.5t22.5 -27t39 -20.5t43 -15t50.5 -13q36 -9 58.5 -16t52 -20.5t46 -29.5t28.5 -41t12 -57q0 -69 -56.5 -121.5t-160.5 -52.5z" />
    <glyph glyph-name="t" unicode="t" horiz-adv-x="402" 
d="M36 533v52h104v136l55 36v-172h154v-52h-154v-323q0 -99 29.5 -128t124.5 -29v-53h-9q-120 0 -160 41.5t-40 167.5v324h-104z" />
    <glyph glyph-name="u" unicode="u" horiz-adv-x="707" 
d="M345 -12q-123 0 -193 72t-70 197v328h58v-329q0 -99 55.5 -157t153.5 -58q92 0 154.5 62t62.5 154v328h57v-585h-56v119q-30 -60 -88.5 -95.5t-133.5 -35.5z" />
    <glyph glyph-name="v" unicode="v" horiz-adv-x="600" 
d="M271 0l-229 585h63l196 -508l196 508h61l-229 -585h-58z" />
    <glyph glyph-name="w" unicode="w" horiz-adv-x="979" 
d="M235 0l-188 585h61l159 -501l199 501h49l193 -503l164 503h60l-194 -585h-54l-195 502l-200 -502h-54z" />
    <glyph glyph-name="x" unicode="x" horiz-adv-x="617" 
d="M35 0l238 301l-226 284h70l193 -245l190 245h71l-227 -284l238 -301h-71l-203 262l-201 -262h-72z" />
    <glyph glyph-name="y" unicode="y" horiz-adv-x="654" 
d="M168 -270l137 303l-262 552h64l229 -487l214 487h62l-382 -855h-62z" />
    <glyph glyph-name="z" unicode="z" horiz-adv-x="628" 
d="M57 0v54l439 479h-424v52h495v-54l-437 -478h441v-53h-514z" />
    <glyph glyph-name="braceleft" unicode="{" horiz-adv-x="405" 
d="M363 -230h-11q-125 0 -172.5 47t-47.5 170v128q0 62 -17 84t-77 22v55q60 0 77 22.5t17 84.5v130q0 123 47.5 170t172.5 47h11v-52q-106 0 -140 -33.5t-34 -132.5v-130q0 -56 -14 -87.5t-50 -45.5q37 -14 50.5 -45t13.5 -88v-128q0 -99 34 -132.5t140 -33.5v-52z" />
    <glyph glyph-name="bar" unicode="|" horiz-adv-x="190" 
d="M66 -230v960h58v-960h-58z" />
    <glyph glyph-name="braceright" unicode="}" horiz-adv-x="405" 
d="M43 -230v53q106 0 140 33t34 132v128q0 58 13.5 88.5t49.5 44.5q-35 14 -49 45.5t-14 87.5v130q0 99 -34 132t-140 33v53h11q125 0 172.5 -47t47.5 -170v-130q0 -62 17 -84.5t77 -22.5v-55q-60 0 -77 -22t-17 -84v-128q0 -123 -47.5 -170t-172.5 -47h-11z" />
    <glyph glyph-name="asciitilde" unicode="~" horiz-adv-x="455" 
d="M115 558h-48q2 46 27 73.5t64 27.5q37 0 78 -27q4 -2 12 -7l13 -8t12.5 -6.5t14 -5t13.5 -1.5q40 0 46 50h46q-2 -47 -26 -74t-65 -27q-6 0 -12 0.5t-12 2t-10.5 2.5t-10.5 4t-9 4t-9.5 5t-8 5t-8.5 5t-8 5q-36 21 -56 21q-37 0 -43 -49z" />
    <glyph glyph-name="exclamdown" unicode="&#xa1;" horiz-adv-x="242" 
d="M105 348h33q13 -224 13 -401v-177h-58v177q0 195 12 401zM172 461q0 -21 -14 -34.5t-35 -13.5q-23 0 -36 13.5t-13 34.5q0 22 13 35.5t36 13.5t36 -13.5t13 -35.5z" />
    <glyph glyph-name="cent" unicode="&#xa2;" 
d="M277 -130v122q-100 10 -161.5 80t-61.5 178t63 178t160 80v122h58v-122q72 -7 126.5 -47.5t77.5 -105.5l-52 -22q-21 61 -68.5 93t-111.5 32q-84 0 -139.5 -57t-55.5 -151t55.5 -151t141.5 -57q66 0 113.5 34.5t67.5 94.5l53 -22q-25 -69 -79 -110t-129 -48v-121h-58z
" />
    <glyph glyph-name="sterling" unicode="&#xa3;" 
d="M75 337v47h97q-58 90 -58 169q0 81 55 134t137 53q130 0 197 -111l-51 -30q-49 88 -148 88q-57 0 -94.5 -37.5t-37.5 -96.5q0 -31 10 -62.5t21 -52.5t32 -54h211v-47h-183q52 -91 52 -170q0 -36 -10 -65q25 -21 37.5 -30.5t33 -19t38.5 -9.5q28 0 39.5 14.5t11.5 45.5v66
h58v-65q0 -61 -28.5 -87.5t-82.5 -26.5q-55 0 -130 66q-46 -66 -122 -66q-53 0 -82.5 26t-29.5 69q0 41 27.5 67t73.5 26q55 0 115 -44q2 22 2 30q0 49 -16 87t-47 86h-128zM159 36q62 0 89 49q-57 46 -96 46q-24 0 -38.5 -13.5t-14.5 -34.5q0 -47 60 -47z" />
    <glyph glyph-name="currency" unicode="&#xa4;" horiz-adv-x="773" 
d="M391 102q-93 0 -164 57l-93 -97l-35 35l93 97q-60 69 -60 168t60 168l-93 97l34 35l94 -98q71 58 164 58q92 0 162 -57l88 92l34 -35l-87 -90q63 -76 63 -170q0 -99 -64 -171l87 -89l-35 -35l-88 90q-69 -55 -160 -55zM391 154q85 0 143.5 61t58.5 147t-58.5 147
t-143.5 61q-84 0 -142.5 -60.5t-58.5 -147.5t58.5 -147.5t142.5 -60.5z" />
    <glyph glyph-name="yen" unicode="&#xa5;" 
d="M97 338v48h171v6l-216 338h65l179 -282l179 282h64l-214 -337v-7h169v-48h-169v-120h169v-48h-169v-170h-57v170h-171v48h171v120h-171z" />
    <glyph glyph-name="brokenbar" unicode="&#xa6;" horiz-adv-x="217" 
d="M66 310v420h58v-420h-58zM66 -230v420h58v-420h-58z" />
    <glyph glyph-name="section" unicode="&#xa7;" horiz-adv-x="606" 
d="M302 -10q-104 0 -161.5 46t-64.5 111l58 13q4 -54 46.5 -88.5t123.5 -34.5q60 0 105 25t45 75q0 23 -11.5 38.5t-36 26t-51.5 17.5t-69 16q-7 1 -11 2q-112 26 -163.5 55t-51.5 87q0 40 25.5 72t69.5 46q-58 36 -58 96q0 69 55 108t142 39q98 0 152 -43.5t61 -106.5
l-56 -11q-9 115 -158 115q-60 0 -101 -24.5t-41 -74.5q0 -18 9 -32.5t22.5 -24t39.5 -18t47 -13.5t59 -13q109 -22 161 -53t52 -88q0 -37 -25.5 -69.5t-67.5 -47.5q60 -32 60 -97q0 -68 -58.5 -108.5t-147.5 -40.5zM305 281q60 -12 93 -23q43 12 65.5 36t22.5 55
q0 21 -14 37t-43.5 28t-57 19t-73.5 17q-54 10 -93 24q-42 -6 -66.5 -31t-23.5 -57q0 -23 14 -40t45 -29t57 -19t74 -17z" />
    <glyph glyph-name="dieresis" unicode="&#xa8;" horiz-adv-x="506" 
d="M119 650q0 19 12.5 31t31.5 12q20 0 31.5 -12t11.5 -31t-11.5 -31.5t-31.5 -12.5t-32 12.5t-12 31.5zM287 650q0 19 12.5 31t31.5 12q20 0 31.5 -12t11.5 -31t-11.5 -31.5t-31.5 -12.5t-32 12.5t-12 31.5z" />
    <glyph glyph-name="copyright" unicode="&#xa9;" horiz-adv-x="858" 
d="M429 -10q-155 0 -265 110t-110 265t110 265t265 110t265 -110t110 -265t-110 -265t-265 -110zM429 41q134 0 226.5 94.5t92.5 229.5t-92.5 229.5t-226.5 94.5t-226.5 -94.5t-92.5 -229.5t92.5 -229.5t226.5 -94.5zM433 167q-84 0 -141.5 58t-57.5 140t58 140t141 58
q54 0 100 -26.5t71 -69.5l-49 -31q-39 73 -123 73q-58 0 -100.5 -42.5t-42.5 -101.5q0 -60 42.5 -102.5t100.5 -42.5q43 0 76.5 21.5t49.5 57.5l50 -28q-24 -47 -71.5 -75.5t-103.5 -28.5z" />
    <glyph glyph-name="ordfeminine" unicode="&#xaa;" horiz-adv-x="418" 
d="M205 435q-57 0 -101 42t-44 108q0 67 44.5 109t101.5 42q73 0 112 -54v48h44v-289h-44v48q-39 -54 -113 -54zM213 476q45 0 75.5 32.5t30.5 77.5t-30.5 77t-75.5 32t-76.5 -31.5t-31.5 -77.5t31.5 -78t76.5 -32z" />
    <glyph glyph-name="guillemotleft" unicode="&#xab;" horiz-adv-x="451" 
d="M222 115l-155 117v36l155 117v-45l-119 -91l119 -90v-44zM383 115l-154 117v36l154 117v-45l-118 -91l118 -90v-44z" />
    <glyph glyph-name="logicalnot" unicode="&#xac;" horiz-adv-x="603" 
d="M505 201v255h-471v55h529v-310h-58z" />
    <glyph glyph-name="uni00AD" unicode="&#xad;" horiz-adv-x="475" 
d="M53 226v51h370v-51h-370z" />
    <glyph glyph-name="registered" unicode="&#xae;" horiz-adv-x="858" 
d="M429 -125q-155 0 -265 110t-110 265t110 265t265 110t265 -110t110 -265t-110 -265t-265 -110zM429 -74q134 0 226.5 94.5t92.5 229.5t-92.5 229.5t-226.5 94.5t-226.5 -94.5t-92.5 -229.5t92.5 -229.5t226.5 -94.5zM299 69v374h148q62 0 100 -34.5t38 -84.5
q0 -44 -23.5 -77.5t-66.5 -44.5l90 -133h-64l-109 169h27q39 0 64.5 23t25.5 61q0 35 -25 54.5t-63 19.5h-88v-327h-54z" />
    <glyph glyph-name="overscore" unicode="&#xaf;" horiz-adv-x="502" 
d="M120 565v50h264v-50h-264z" />
    <glyph glyph-name="degree" unicode="&#xb0;" horiz-adv-x="433" 
d="M217 517q-46 0 -79 33t-33 79q0 45 33 78t79 33t78.5 -33t32.5 -78q0 -46 -32.5 -79t-78.5 -33zM217 565q26 0 44.5 18.5t18.5 44.5t-18.5 44.5t-44.5 18.5t-44.5 -18.5t-18.5 -44.5t18.5 -44.5t44.5 -18.5z" />
    <glyph glyph-name="plusminus" unicode="&#xb1;" horiz-adv-x="475" 
d="M53 437v50h160v160h50v-160h160v-50h-160v-160h-50v160h-160zM53 131v50h370v-50h-370z" />
    <glyph glyph-name="twosuperior" unicode="&#xb2;" horiz-adv-x="344" 
d="M39 308v50q0 25 9.5 46.5t30 42t35 32.5t43.5 32l38 27t28.5 23.5t24 29t6.5 29.5q0 31 -22 50.5t-60 19.5q-61 0 -93 -65l-45 23q42 88 138 88q62 0 98.5 -33t36.5 -83q0 -31 -18.5 -59.5t-39 -45t-55.5 -40.5q-27 -18 -39 -27t-30 -25.5t-25.5 -32t-7.5 -32.5h216v-50
h-269z" />
    <glyph glyph-name="threesuperior" unicode="&#xb3;" horiz-adv-x="329" 
d="M158 302q-86 0 -133 57l44 34q31 -43 89 -43q38 0 62.5 21t24.5 55q0 35 -25.5 55.5t-66.5 20.5h-42v48h42q40 0 62.5 19.5t22.5 52.5q0 31 -22.5 49.5t-59.5 18.5q-55 0 -83 -44l-44 25q19 29 52.5 47t74.5 18q61 0 96.5 -31t35.5 -83q0 -63 -57 -95q66 -31 66 -101
q0 -55 -37 -89.5t-102 -34.5z" />
    <glyph glyph-name="acute" unicode="&#xb4;" horiz-adv-x="502" 
d="M147 565l119 155h75l-140 -155h-54z" />
    <glyph glyph-name="mu" unicode="&#xb5;" horiz-adv-x="604" 
d="M71 -230v730h58v-276q0 -81 48 -131.5t123 -50.5q76 0 126.5 51t50.5 128v279h57v-500h-56v93q-27 -47 -75 -75t-109 -28q-104 0 -166 83v-303h-57z" />
    <glyph glyph-name="mu" unicode="&#x3bc;" horiz-adv-x="604" 
d="M71 -230v730h58v-276q0 -81 48 -131.5t123 -50.5q76 0 126.5 51t50.5 128v279h57v-500h-56v93q-27 -47 -75 -75t-109 -28q-104 0 -166 83v-303h-57z" />
    <glyph glyph-name="paragraph" unicode="&#xb6;" horiz-adv-x="575" 
d="M346 0v302h-91q-93 0 -155 62t-62 152t62 152t154 62h255v-730h-52v678h-60v-678h-51z" />
    <glyph glyph-name="middot" unicode="&#xb7;" horiz-adv-x="191" 
d="M66 181v137h58v-137h-58z" />
    <glyph glyph-name="cedilla" unicode="&#xb8;" horiz-adv-x="502" 
d="M248 -227q-83 0 -139 53l46 28q23 -20 43 -29t50 -9q35 0 57.5 14t22.5 36q0 20 -22 32t-61 12h-33v90h49v-53q54 -1 87.5 -22.5t33.5 -56.5q0 -42 -38.5 -68.5t-95.5 -26.5z" />
    <glyph glyph-name="onesuperior" unicode="&#xb9;" horiz-adv-x="286" 
d="M37 308v49h84v285q-9 -15 -29.5 -25.5t-40.5 -10.5h-6v55h3q38 0 56 21t18 48h51v-373h81v-49h-217z" />
    <glyph glyph-name="ordmasculine" unicode="&#xba;" horiz-adv-x="421" 
d="M210 435q-62 0 -106 44t-44 106q0 63 44 107t106 44q64 0 107.5 -43.5t43.5 -107.5q0 -63 -43.5 -106.5t-107.5 -43.5zM210 478q45 0 75.5 31t30.5 76q0 46 -30.5 77t-75.5 31q-44 0 -74.5 -31.5t-30.5 -76.5q0 -44 31 -75.5t74 -31.5z" />
    <glyph glyph-name="guillemotright" unicode="&#xbb;" horiz-adv-x="451" 
d="M67 116v44l119 90l-119 90v45l155 -117v-35zM229 116v44l119 90l-119 90v45l154 -117v-35z" />
    <glyph glyph-name="onequarter" unicode="&#xbc;" horiz-adv-x="781" 
d="M627 0v97h-195v48l193 277h54v-277h61v-48h-61v-97h-52zM105 0l527 730h68l-527 -730h-68zM37 308v49h84v285q-9 -15 -29.5 -25.5t-40.5 -10.5h-6v55h3q38 0 56 21t18 48h51v-373h81v-49h-217zM489 145h138v196z" />
    <glyph glyph-name="onehalf" unicode="&#xbd;" horiz-adv-x="831" 
d="M105 0l527 730h68l-527 -730h-68zM523 0v50q0 25 9.5 46.5t30 42t35 32.5t43.5 32l38 27t28.5 23.5t24 29t6.5 29.5q0 31 -22 50.5t-60 19.5q-61 0 -93 -65l-45 23q42 88 138 88q62 0 98.5 -33t36.5 -83q0 -31 -18.5 -59.5t-39 -45t-55.5 -40.5q-27 -18 -39 -27
t-30 -25.5t-25.5 -32t-7.5 -32.5h216v-50h-269zM37 308v49h84v285q-9 -15 -29.5 -25.5t-40.5 -10.5h-6v55h3q38 0 56 21t18 48h51v-373h81v-49h-217z" />
    <glyph glyph-name="threequarters" unicode="&#xbe;" horiz-adv-x="811" 
d="M658 0v97h-195v48l193 277h54v-277h61v-48h-61v-97h-52zM136 0l527 730h68l-527 -730h-68zM158 302q-86 0 -133 57l44 34q31 -43 89 -43q38 0 62.5 21t24.5 55q0 35 -25.5 55.5t-66.5 20.5h-42v48h42q40 0 62.5 19.5t22.5 52.5q0 31 -22.5 49.5t-59.5 18.5q-55 0 -83 -44
l-44 25q19 29 52.5 47t74.5 18q61 0 96.5 -31t35.5 -83q0 -63 -57 -95q66 -31 66 -101q0 -55 -37 -89.5t-102 -34.5zM520 145h138v196z" />
    <glyph glyph-name="questiondown" unicode="&#xbf;" horiz-adv-x="539" 
d="M267 -240q-91 0 -151 49t-60 128q0 44 14.5 76.5t37 50.5l48 39.5t48 43t37 61t14.5 93.5v38h53v-38q0 -70 -20 -119t-48.5 -75t-57 -47.5t-48.5 -51.5t-20 -72q0 -55 44 -90t109 -35q110 0 163 97l51 -24q-28 -55 -83.5 -89.5t-130.5 -34.5zM231 462q0 21 14 34.5
t35 13.5q23 0 36 -13.5t13 -34.5q0 -22 -13 -35.5t-36 -13.5t-36 13.5t-13 35.5z" />
    <glyph glyph-name="Agrave" unicode="&#xc0;" horiz-adv-x="698" 
d="M37 0l281 730h62l281 -730h-61l-79 204h-345l-78 -204h-61zM349 653l-152 -394h303zM318 795l-140 155h74l120 -155h-54z" />
    <glyph glyph-name="Aacute" unicode="&#xc1;" horiz-adv-x="698" 
d="M37 0l281 730h62l281 -730h-61l-79 204h-345l-78 -204h-61zM349 653l-152 -394h303zM315 795l119 155h75l-140 -155h-54z" />
    <glyph glyph-name="Acircumflex" unicode="&#xc2;" horiz-adv-x="698" 
d="M37 0l281 730h62l281 -730h-61l-79 204h-345l-78 -204h-61zM349 653l-152 -394h303zM200 795l119 155h49l119 -155h-61l-83 110l-83 -110h-60z" />
    <glyph glyph-name="Atilde" unicode="&#xc3;" horiz-adv-x="698" 
d="M37 0l281 730h62l281 -730h-61l-79 204h-345l-78 -204h-61zM349 653l-152 -394h303zM217 795h-47q0 50 25.5 79t67.5 29q35 0 86 -30q52 -31 72 -31q50 0 50 58h46q0 -51 -25 -80t-70 -29q-7 0 -14.5 1t-12.5 2t-13 4t-11.5 4t-11.5 6t-10 6t-11 6.5t-10 5.5
q-4 2 -13 7.5t-13.5 8t-11.5 5.5t-13.5 4.5t-13.5 1.5q-21 0 -33.5 -15t-12.5 -43z" />
    <glyph glyph-name="Adieresis" unicode="&#xc4;" horiz-adv-x="698" 
d="M37 0l281 730h62l281 -730h-61l-79 204h-345l-78 -204h-61zM349 653l-152 -394h303zM219 880q0 19 12.5 31t31.5 12q20 0 31.5 -12t11.5 -31t-11.5 -31.5t-31.5 -12.5t-32 12.5t-12 31.5zM387 880q0 19 12.5 31t31.5 12q20 0 31.5 -12t11.5 -31t-11.5 -31.5t-31.5 -12.5
t-32 12.5t-12 31.5z" />
    <glyph glyph-name="Aring" unicode="&#xc5;" horiz-adv-x="698" 
d="M37 0l268 697q-27 11 -43 36t-16 55q0 42 28.5 71t69.5 29q43 0 72 -29t29 -71q0 -59 -54 -88l270 -700h-61l-79 204h-345l-78 -204h-61zM349 653l-152 -394h303zM344 734q23 0 39.5 15.5t16.5 38.5t-16.5 39t-39.5 16q-22 0 -38 -16t-16 -39t16 -38.5t38 -15.5z" />
    <glyph glyph-name="AE" unicode="&#xc6;" horiz-adv-x="1037" 
d="M31 0l370 730h561v-55h-485l63 -282h422v-54h-410l63 -284h347v-55h-393l-45 199h-327l-100 -199h-66zM424 647l-200 -395h288z" />
    <glyph glyph-name="Ccedilla" unicode="&#xc7;" horiz-adv-x="796" 
d="M430 -227q-83 0 -139 53l46 28q23 -20 43 -29t50 -9q35 0 57.5 14t22.5 36q0 20 -22 32t-61 12h-33v82q-144 12 -242.5 119.5t-98.5 253.5q0 155 110 265t265 110q100 0 185 -50t137 -134l-50 -29q-42 73 -113 116t-159 43q-133 0 -224.5 -94t-91.5 -227
q0 -132 91.5 -226t224.5 -94q95 0 168 45t113 123l51 -26q-48 -89 -130 -141t-187 -56v-43q54 -1 87.5 -22.5t33.5 -56.5q0 -42 -38.5 -68.5t-95.5 -26.5z" />
    <glyph glyph-name="Egrave" unicode="&#xc8;" horiz-adv-x="587" 
d="M75 0v730h447v-55h-389v-282h389v-54h-389v-284h389v-55h-447zM280 795l-140 155h74l120 -155h-54z" />
    <glyph glyph-name="Eacute" unicode="&#xc9;" horiz-adv-x="587" 
d="M75 0v730h447v-55h-389v-282h389v-54h-389v-284h389v-55h-447zM253 795l119 155h75l-140 -155h-54z" />
    <glyph glyph-name="Ecircumflex" unicode="&#xca;" horiz-adv-x="587" 
d="M75 0v730h447v-55h-389v-282h389v-54h-389v-284h389v-55h-447zM151 795l119 155h49l119 -155h-61l-83 110l-83 -110h-60z" />
    <glyph glyph-name="Edieresis" unicode="&#xcb;" horiz-adv-x="587" 
d="M75 0v730h447v-55h-389v-282h389v-54h-389v-284h389v-55h-447zM338 880q0 19 12.5 31t31.5 12q20 0 31.5 -12t11.5 -31t-11.5 -31.5t-31.5 -12.5t-32 12.5t-12 31.5zM170 880q0 19 12.5 31t31.5 12q20 0 31.5 -12t11.5 -31t-11.5 -31.5t-31.5 -12.5t-32 12.5t-12 31.5z
" />
    <glyph glyph-name="Igrave" unicode="&#xcc;" horiz-adv-x="227" 
d="M85 0v730h57v-730h-57zM87 795l-140 155h74l120 -155h-54z" />
    <glyph glyph-name="Iacute" unicode="&#xcd;" horiz-adv-x="227" 
d="M85 0v730h57v-730h-57zM83 795l119 155h75l-140 -155h-54z" />
    <glyph glyph-name="Icircumflex" unicode="&#xce;" horiz-adv-x="227" 
d="M85 0v730h57v-730h-57zM-31 795l119 155h49l119 -155h-61l-83 110l-83 -110h-60z" />
    <glyph glyph-name="Idieresis" unicode="&#xcf;" horiz-adv-x="227" 
d="M185 800v139h56v-139h-56zM-15 800v139h56v-139h-56zM85 0v730h57v-730h-57z" />
    <glyph glyph-name="Eth" unicode="&#xd0;" horiz-adv-x="731" 
d="M22 341v56h75v333h203q165 0 272 -104.5t107 -260.5t-108.5 -260.5t-268.5 -104.5h-205v341h-75zM295 677h-140v-280h231v-56h-231v-287h142q139 0 231.5 89t92.5 222t-92 222.5t-234 89.5z" />
    <glyph glyph-name="Ntilde" unicode="&#xd1;" horiz-adv-x="742" 
d="M75 0v730h64l470 -640v640h58v-730h-62l-472 643v-643h-58zM244 795h-47q0 50 25.5 79t67.5 29q35 0 86 -30q52 -31 72 -31q50 0 50 58h46q0 -51 -25 -80t-70 -29q-7 0 -14.5 1t-12.5 2t-13 4t-11.5 4t-11.5 6t-10 6t-11 6.5t-10 5.5q-4 2 -13 7.5t-13.5 8t-11.5 5.5
t-13.5 4.5t-13.5 1.5q-21 0 -33.5 -15t-12.5 -43z" />
    <glyph glyph-name="Ograve" unicode="&#xd2;" horiz-adv-x="855" 
d="M428 -10q-155 0 -265 110t-110 265t110 265t265 110t265 -110t110 -265t-110 -265t-265 -110zM428 45q133 0 224 94t91 226q0 134 -91 227t-224 93t-224.5 -93.5t-91.5 -226.5q0 -132 91.5 -226t224.5 -94zM398 795l-140 155h74l120 -155h-54z" />
    <glyph glyph-name="Oacute" unicode="&#xd3;" horiz-adv-x="855" 
d="M391 795l119 155h75l-140 -155h-54zM428 -10q-155 0 -265 110t-110 265t110 265t265 110t265 -110t110 -265t-110 -265t-265 -110zM428 45q133 0 224 94t91 226q0 134 -91 227t-224 93t-224.5 -93.5t-91.5 -226.5q0 -132 91.5 -226t224.5 -94z" />
    <glyph glyph-name="Ocircumflex" unicode="&#xd4;" horiz-adv-x="855" 
d="M428 -10q-155 0 -265 110t-110 265t110 265t265 110t265 -110t110 -265t-110 -265t-265 -110zM428 45q133 0 224 94t91 226q0 134 -91 227t-224 93t-224.5 -93.5t-91.5 -226.5q0 -132 91.5 -226t224.5 -94zM280 795l119 155h49l119 -155h-61l-83 110l-83 -110h-60z" />
    <glyph glyph-name="Otilde" unicode="&#xd5;" horiz-adv-x="855" 
d="M428 -10q-155 0 -265 110t-110 265t110 265t265 110t265 -110t110 -265t-110 -265t-265 -110zM428 45q133 0 224 94t91 226q0 134 -91 227t-224 93t-224.5 -93.5t-91.5 -226.5q0 -132 91.5 -226t224.5 -94zM295 795h-47q0 50 25.5 79t67.5 29q35 0 86 -30q52 -31 72 -31
q50 0 50 58h46q0 -51 -25 -80t-70 -29q-7 0 -14.5 1t-12.5 2t-13 4t-11.5 4t-11.5 6t-10 6t-11 6.5t-10 5.5q-4 2 -13 7.5t-13.5 8t-11.5 5.5t-13.5 4.5t-13.5 1.5q-21 0 -33.5 -15t-12.5 -43z" />
    <glyph glyph-name="Odieresis" unicode="&#xd6;" horiz-adv-x="855" 
d="M298 880q0 19 12.5 31t31.5 12q20 0 31.5 -12t11.5 -31t-11.5 -31.5t-31.5 -12.5t-32 12.5t-12 31.5zM466 880q0 19 12.5 31t31.5 12q20 0 31.5 -12t11.5 -31t-11.5 -31.5t-31.5 -12.5t-32 12.5t-12 31.5zM428 -10q-155 0 -265 110t-110 265t110 265t265 110t265 -110
t110 -265t-110 -265t-265 -110zM428 45q133 0 224 94t91 226q0 134 -91 227t-224 93t-224.5 -93.5t-91.5 -226.5q0 -132 91.5 -226t224.5 -94z" />
    <glyph glyph-name="multiply" unicode="&#xd7;" horiz-adv-x="475" 
d="M110 202l-34 34l128 128l-128 129l34 34l128 -129l128 128l34 -34l-128 -128l128 -127l-34 -34l-128 127z" />
    <glyph glyph-name="Oslash" unicode="&#xd8;" horiz-adv-x="855" 
d="M120 0l62 82q-129 111 -129 283q0 155 110 265t265 110q112 0 203 -60l38 50h68l-63 -83q129 -111 129 -282q0 -155 -110 -265t-265 -110q-112 0 -203 59l-37 -49h-68zM112 365q0 -143 103 -238l383 508q-77 50 -170 50q-133 0 -224.5 -93.5t-91.5 -226.5zM428 45
q133 0 224 94t91 226q0 140 -103 237l-382 -508q77 -49 170 -49z" />
    <glyph glyph-name="Ugrave" unicode="&#xd9;" horiz-adv-x="641" 
d="M320 -10q-106 0 -177 71.5t-71 176.5v492h58v-495q0 -79 55 -134.5t135 -55.5t135.5 55.5t55.5 135.5v494h58v-492q0 -105 -71.5 -176.5t-177.5 -71.5zM297 795l-140 155h74l120 -155h-54z" />
    <glyph glyph-name="Uacute" unicode="&#xda;" horiz-adv-x="641" 
d="M280 795l119 155h75l-140 -155h-54zM320 -10q-106 0 -177 71.5t-71 176.5v492h58v-495q0 -79 55 -134.5t135 -55.5t135.5 55.5t55.5 135.5v494h58v-492q0 -105 -71.5 -176.5t-177.5 -71.5z" />
    <glyph glyph-name="Ucircumflex" unicode="&#xdb;" horiz-adv-x="641" 
d="M320 -10q-106 0 -177 71.5t-71 176.5v492h58v-495q0 -79 55 -134.5t135 -55.5t135.5 55.5t55.5 135.5v494h58v-492q0 -105 -71.5 -176.5t-177.5 -71.5zM174 795l119 155h49l119 -155h-61l-83 110l-83 -110h-60z" />
    <glyph glyph-name="Udieresis" unicode="&#xdc;" horiz-adv-x="641" 
d="M192 880q0 19 12.5 31t31.5 12q20 0 31.5 -12t11.5 -31t-11.5 -31.5t-31.5 -12.5t-32 12.5t-12 31.5zM360 880q0 19 12.5 31t31.5 12q20 0 31.5 -12t11.5 -31t-11.5 -31.5t-31.5 -12.5t-32 12.5t-12 31.5zM320 -10q-106 0 -177 71.5t-71 176.5v492h58v-495
q0 -79 55 -134.5t135 -55.5t135.5 55.5t55.5 135.5v494h58v-492q0 -105 -71.5 -176.5t-177.5 -71.5z" />
    <glyph glyph-name="Yacute" unicode="&#xdd;" horiz-adv-x="612" 
d="M278 0v347l-245 383h65l208 -328l208 328h65l-243 -381v-349h-58zM272 795l119 155h75l-140 -155h-54z" />
    <glyph glyph-name="Thorn" unicode="&#xde;" horiz-adv-x="571" 
d="M73 0v730h58v-153h157q102 0 164 -56.5t62 -147.5q0 -90 -62 -147.5t-164 -57.5h-157v-168h-58zM284 523h-153v-302h153q79 0 125 42t46 110q0 67 -46 108.5t-125 41.5z" />
    <glyph glyph-name="germandbls" unicode="&#xdf;" horiz-adv-x="642" 
d="M-60 -268v54q81 0 113 38.5t32 121.5v690q0 99 63 163t162 64q98 0 162 -63t64 -157q0 -64 -32 -114t-88 -75q77 -24 122 -82t45 -138q0 -105 -67 -173.5t-173 -68.5q-75 0 -122 28l5 54q47 -29 117 -29q75 0 128.5 55.5t53.5 133.5q0 80 -57 133.5t-148 53.5h-21v54h21
q62 0 110 48.5t48 121.5q0 69 -48 119t-120 50t-121 -47.5t-49 -123.5v-695q0 -113 -44.5 -164.5t-145.5 -51.5h-10z" />
    <glyph glyph-name="agrave" unicode="&#xe0;" horiz-adv-x="747" 
d="M361 -12q-128 0 -215 89t-87 215q0 127 87 216t215 89q75 0 143.5 -39.5t101.5 -107.5v135h56v-585h-56v134q-33 -68 -101.5 -107t-143.5 -39zM363 41q105 0 177 73t72 178t-72 178.5t-177 73.5q-103 0 -174.5 -73.5t-71.5 -178.5t71.5 -178t174.5 -73zM344 660l-140 155
h74l120 -155h-54z" />
    <glyph glyph-name="aacute" unicode="&#xe1;" horiz-adv-x="747" 
d="M361 -12q-128 0 -215 89t-87 215q0 127 87 216t215 89q75 0 143.5 -39.5t101.5 -107.5v135h56v-585h-56v134q-33 -68 -101.5 -107t-143.5 -39zM363 41q105 0 177 73t72 178t-72 178.5t-177 73.5q-103 0 -174.5 -73.5t-71.5 -178.5t71.5 -178t174.5 -73zM324 660l119 155
h75l-140 -155h-54z" />
    <glyph glyph-name="acircumflex" unicode="&#xe2;" horiz-adv-x="747" 
d="M361 -12q-128 0 -215 89t-87 215q0 127 87 216t215 89q75 0 143.5 -39.5t101.5 -107.5v135h56v-585h-56v134q-33 -68 -101.5 -107t-143.5 -39zM363 41q105 0 177 73t72 178t-72 178.5t-177 73.5q-103 0 -174.5 -73.5t-71.5 -178.5t71.5 -178t174.5 -73zM216 654l119 155
h49l119 -155h-61l-83 110l-83 -110h-60z" />
    <glyph glyph-name="atilde" unicode="&#xe3;" horiz-adv-x="747" 
d="M361 -12q-128 0 -215 89t-87 215q0 127 87 216t215 89q75 0 143.5 -39.5t101.5 -107.5v135h56v-585h-56v134q-33 -68 -101.5 -107t-143.5 -39zM363 41q105 0 177 73t72 178t-72 178.5t-177 73.5q-103 0 -174.5 -73.5t-71.5 -178.5t71.5 -178t174.5 -73zM242 660h-47
q0 50 25.5 79t67.5 29q35 0 86 -30q52 -31 72 -31q50 0 50 58h46q0 -51 -25 -80t-70 -29q-7 0 -14.5 1t-12.5 2t-13 4t-11.5 4t-11.5 6t-10 6t-11 6.5t-10 5.5q-4 2 -13 7.5t-13.5 8t-11.5 5.5t-13.5 4.5t-13.5 1.5q-21 0 -33.5 -15t-12.5 -43z" />
    <glyph glyph-name="adieresis" unicode="&#xe4;" horiz-adv-x="747" 
d="M361 -12q-128 0 -215 89t-87 215q0 127 87 216t215 89q75 0 143.5 -39.5t101.5 -107.5v135h56v-585h-56v134q-33 -68 -101.5 -107t-143.5 -39zM363 41q105 0 177 73t72 178t-72 178.5t-177 73.5q-103 0 -174.5 -73.5t-71.5 -178.5t71.5 -178t174.5 -73zM232 700
q0 19 12.5 31t31.5 12q20 0 31.5 -12t11.5 -31t-11.5 -31.5t-31.5 -12.5t-32 12.5t-12 31.5zM400 700q0 19 12.5 31t31.5 12q20 0 31.5 -12t11.5 -31t-11.5 -31.5t-31.5 -12.5t-32 12.5t-12 31.5z" />
    <glyph glyph-name="aring" unicode="&#xe5;" horiz-adv-x="747" 
d="M361 -12q-128 0 -215 89t-87 215q0 127 87 216t215 89q75 0 143.5 -39.5t101.5 -107.5v135h56v-585h-56v134q-33 -68 -101.5 -107t-143.5 -39zM363 41q105 0 177 73t72 178t-72 178.5t-177 73.5q-103 0 -174.5 -73.5t-71.5 -178.5t71.5 -178t174.5 -73zM365 655
q-41 0 -69.5 28.5t-28.5 70.5t28.5 71t69.5 29q43 0 72 -29t29 -71t-29 -70.5t-72 -28.5zM365 700q23 0 39.5 15.5t16.5 38.5t-16.5 39t-39.5 16q-22 0 -38 -16t-16 -39t16 -38.5t38 -15.5z" />
    <glyph glyph-name="ae" unicode="&#xe6;" horiz-adv-x="1147" 
d="M789 -12q-90 0 -159.5 39t-108.5 108q-33 -60 -100.5 -103.5t-158.5 -43.5q-103 0 -152.5 44t-49.5 113q-1 41 15.5 72.5t49.5 51.5t69 32.5t86 22.5q13 3 45 9.5t45.5 10l38 10t35.5 13t24.5 16.5t19 22.5t5.5 27.5q0 53 -44.5 85t-131.5 32q-90 0 -141 -43.5
t-51 -114.5v-4h-54v2q0 93 67 150t178 57q186 0 223 -123q42 58 105.5 90.5t140.5 32.5q129 0 215 -84.5t86 -214.5v-20h-549q4 -102 75.5 -170t176.5 -68q87 0 148.5 46t85.5 123l52 -23q-30 -92 -106 -145t-180 -53zM785 545q-95 0 -162.5 -61t-82.5 -154h486
q-10 96 -76 155.5t-165 59.5zM264 37q85 0 145.5 46.5t86.5 106.5q-15 47 -15 100q0 30 4 53q-13 -16 -41.5 -27.5t-53.5 -17.5t-88 -18q-44 -8 -74 -17t-57 -24t-40 -38t-13 -55q0 -49 35.5 -79t110.5 -30z" />
    <glyph glyph-name="ccedilla" unicode="&#xe7;" horiz-adv-x="697" 
d="M359 -233q-83 0 -139 53l46 28q23 -20 43 -29t50 -9q35 0 57.5 14t22.5 36q0 20 -22 32t-61 12h-33v87q-115 14 -189.5 99.5t-74.5 201.5q0 129 88.5 217t216.5 88q94 0 169 -49.5t108 -130.5l-53 -22q-30 70 -88.5 109.5t-135.5 39.5q-105 0 -176 -73.5t-71 -178.5
t72 -178t177 -73q79 0 137 41.5t87 112.5l54 -23q-35 -82 -106.5 -132t-165.5 -52v-47q54 -1 87.5 -22.5t33.5 -56.5q0 -42 -38.5 -68.5t-95.5 -26.5z" />
    <glyph glyph-name="egrave" unicode="&#xe8;" horiz-adv-x="722" 
d="M366 -12q-139 0 -223 86t-84 216t87 218.5t217 88.5q129 0 213.5 -84.5t84.5 -213.5v-26h-547q6 -102 75 -167.5t177 -65.5q167 0 230 156l51 -24q-80 -184 -281 -184zM363 545q-96 0 -165.5 -62.5t-81.5 -156.5h487q-8 97 -74 158t-166 61zM352 660l-140 155h74
l120 -155h-54z" />
    <glyph glyph-name="eacute" unicode="&#xe9;" horiz-adv-x="722" 
d="M366 -12q-139 0 -223 86t-84 216t87 218.5t217 88.5q129 0 213.5 -84.5t84.5 -213.5v-26h-547q6 -102 75 -167.5t177 -65.5q167 0 230 156l51 -24q-80 -184 -281 -184zM363 545q-96 0 -165.5 -62.5t-81.5 -156.5h487q-8 97 -74 158t-166 61zM336 660l119 155h75
l-140 -155h-54z" />
    <glyph glyph-name="ecircumflex" unicode="&#xea;" horiz-adv-x="722" 
d="M366 -12q-139 0 -223 86t-84 216t87 218.5t217 88.5q129 0 213.5 -84.5t84.5 -213.5v-26h-547q6 -102 75 -167.5t177 -65.5q167 0 230 156l51 -24q-80 -184 -281 -184zM363 545q-96 0 -165.5 -62.5t-81.5 -156.5h487q-8 97 -74 158t-166 61zM225 656l119 155h49l119 -155
h-61l-83 110l-83 -110h-60z" />
    <glyph glyph-name="edieresis" unicode="&#xeb;" horiz-adv-x="722" 
d="M366 -12q-139 0 -223 86t-84 216t87 218.5t217 88.5q129 0 213.5 -84.5t84.5 -213.5v-26h-547q6 -102 75 -167.5t177 -65.5q167 0 230 156l51 -24q-80 -184 -281 -184zM363 545q-96 0 -165.5 -62.5t-81.5 -156.5h487q-8 97 -74 158t-166 61zM406 699q0 19 12.5 31
t31.5 12q20 0 31.5 -12t11.5 -31t-11.5 -31.5t-31.5 -12.5t-32 12.5t-12 31.5zM238 699q0 19 12.5 31t31.5 12q20 0 31.5 -12t11.5 -31t-11.5 -31.5t-31.5 -12.5t-32 12.5t-12 31.5z" />
    <glyph glyph-name="igrave" unicode="&#xec;" horiz-adv-x="226" 
d="M85 0v585h57v-585h-57zM86 650l-140 155h74l120 -155h-54z" />
    <glyph glyph-name="iacute" unicode="&#xed;" horiz-adv-x="226" 
d="M88 650l119 155h75l-140 -155h-54zM85 0v585h57v-585h-57z" />
    <glyph glyph-name="icircumflex" unicode="&#xee;" horiz-adv-x="226" 
d="M85 0v585h57v-585h-57zM-30 632l119 155h49l119 -155h-61l-83 110l-83 -110h-60z" />
    <glyph glyph-name="idieresis" unicode="&#xef;" horiz-adv-x="226" 
d="M197 650v164h57v-164h-57zM-28 650v164h56v-164h-56zM85 0v585h57v-585h-57z" />
    <glyph glyph-name="eth" unicode="&#xf0;" horiz-adv-x="719" 
d="M162 645l165 108q-49 41 -129 101h88q53 -41 87 -70l106 70h85l-155 -103q128 -117 188 -230.5t60 -234.5q0 -123 -86.5 -208.5t-211.5 -85.5q-124 0 -211 85t-87 209q0 123 85.5 209t206.5 86q129 0 200 -92q-55 110 -189 232l-116 -76h-86zM360 45q100 0 169.5 70.5
t69.5 170.5q0 99 -70 170t-169 71t-169.5 -70.5t-70.5 -170.5t70.5 -170.5t169.5 -70.5z" />
    <glyph glyph-name="ntilde" unicode="&#xf1;" horiz-adv-x="707" 
d="M85 0v585h55v-119q30 59 89.5 95t135.5 36q118 0 189 -72.5t71 -196.5v-328h-57v329q0 98 -56 156.5t-154 58.5q-92 0 -154 -62t-62 -154v-328h-57zM235 660h-47q0 50 25.5 79t67.5 29q35 0 86 -30q52 -31 72 -31q50 0 50 58h46q0 -51 -25 -80t-70 -29q-7 0 -14.5 1
t-12.5 2t-13 4t-11.5 4t-11.5 6t-10 6t-11 6.5t-10 5.5q-4 2 -13 7.5t-13.5 8t-11.5 5.5t-13.5 4.5t-13.5 1.5q-21 0 -33.5 -15t-12.5 -43z" />
    <glyph glyph-name="ograve" unicode="&#xf2;" horiz-adv-x="726" 
d="M363 -12q-127 0 -215.5 88t-88.5 216t89 216.5t215 88.5t215 -88.5t89 -216.5t-88.5 -216t-215.5 -88zM363 41q103 0 174 73t71 178t-71 178.5t-174 73.5q-104 0 -175 -73.5t-71 -178.5t71 -178t175 -73zM339 660l-140 155h74l120 -155h-54z" />
    <glyph glyph-name="oacute" unicode="&#xf3;" horiz-adv-x="726" 
d="M337 660l119 155h75l-140 -155h-54zM363 -12q-127 0 -215.5 88t-88.5 216t89 216.5t215 88.5t215 -88.5t89 -216.5t-88.5 -216t-215.5 -88zM363 41q103 0 174 73t71 178t-71 178.5t-174 73.5q-104 0 -175 -73.5t-71 -178.5t71 -178t175 -73z" />
    <glyph glyph-name="ocircumflex" unicode="&#xf4;" horiz-adv-x="726" 
d="M363 -12q-127 0 -215.5 88t-88.5 216t89 216.5t215 88.5t215 -88.5t89 -216.5t-88.5 -216t-215.5 -88zM363 41q103 0 174 73t71 178t-71 178.5t-174 73.5q-104 0 -175 -73.5t-71 -178.5t71 -178t175 -73zM219 656l119 155h49l119 -155h-61l-83 110l-83 -110h-60z" />
    <glyph glyph-name="otilde" unicode="&#xf5;" horiz-adv-x="726" 
d="M363 -12q-127 0 -215.5 88t-88.5 216t89 216.5t215 88.5t215 -88.5t89 -216.5t-88.5 -216t-215.5 -88zM363 41q103 0 174 73t71 178t-71 178.5t-174 73.5q-104 0 -175 -73.5t-71 -178.5t71 -178t175 -73zM237 660h-47q0 50 25.5 79t67.5 29q35 0 86 -30q52 -31 72 -31
q50 0 50 58h46q0 -51 -25 -80t-70 -29q-7 0 -14.5 1t-12.5 2t-13 4t-11.5 4t-11.5 6t-10 6t-11 6.5t-10 5.5q-4 2 -13 7.5t-13.5 8t-11.5 5.5t-13.5 4.5t-13.5 1.5q-21 0 -33.5 -15t-12.5 -43z" />
    <glyph glyph-name="odieresis" unicode="&#xf6;" horiz-adv-x="726" 
d="M236 698q0 19 12.5 31t31.5 12q20 0 31.5 -12t11.5 -31t-11.5 -31.5t-31.5 -12.5t-32 12.5t-12 31.5zM404 698q0 19 12.5 31t31.5 12q20 0 31.5 -12t11.5 -31t-11.5 -31.5t-31.5 -12.5t-32 12.5t-12 31.5zM363 -12q-127 0 -215.5 88t-88.5 216t89 216.5t215 88.5
t215 -88.5t89 -216.5t-88.5 -216t-215.5 -88zM363 41q103 0 174 73t71 178t-71 178.5t-174 73.5q-104 0 -175 -73.5t-71 -178.5t71 -178t175 -73z" />
    <glyph glyph-name="divide" unicode="&#xf7;" horiz-adv-x="475" 
d="M53 340v50h370v-50h-370zM213 444v122h50v-122h-50zM213 163v121h50v-121h-50z" />
    <glyph glyph-name="oslash" unicode="&#xf8;" horiz-adv-x="726" 
d="M363 -12q-87 0 -162 46l-25 -34h-63l47 64q-101 90 -101 228q0 128 89 216.5t215 88.5q86 0 161 -46l25 34h65l-49 -65q102 -89 102 -228q0 -128 -88.5 -216t-215.5 -88zM117 292q0 -109 77 -184l297 399q-56 37 -128 37q-104 0 -175 -73.5t-71 -178.5zM363 41
q103 0 174 73t71 178q0 107 -76 183l-298 -398q58 -36 129 -36z" />
    <glyph glyph-name="ugrave" unicode="&#xf9;" horiz-adv-x="707" 
d="M345 -12q-123 0 -193 72t-70 197v328h58v-329q0 -99 55.5 -157t153.5 -58q92 0 154.5 62t62.5 154v328h57v-585h-56v119q-30 -60 -88.5 -95.5t-133.5 -35.5zM330 648l-140 155h74l120 -155h-54z" />
    <glyph glyph-name="uacute" unicode="&#xfa;" horiz-adv-x="707" 
d="M345 -12q-123 0 -193 72t-70 197v328h58v-329q0 -99 55.5 -157t153.5 -58q92 0 154.5 62t62.5 154v328h57v-585h-56v119q-30 -60 -88.5 -95.5t-133.5 -35.5zM314 641l119 155h75l-140 -155h-54z" />
    <glyph glyph-name="ucircumflex" unicode="&#xfb;" horiz-adv-x="707" 
d="M345 -12q-123 0 -193 72t-70 197v328h58v-329q0 -99 55.5 -157t153.5 -58q92 0 154.5 62t62.5 154v328h57v-585h-56v119q-30 -60 -88.5 -95.5t-133.5 -35.5zM210 650l119 155h49l119 -155h-61l-83 110l-83 -110h-60z" />
    <glyph glyph-name="udieresis" unicode="&#xfc;" horiz-adv-x="707" 
d="M345 -12q-123 0 -193 72t-70 197v328h58v-329q0 -99 55.5 -157t153.5 -58q92 0 154.5 62t62.5 154v328h57v-585h-56v119q-30 -60 -88.5 -95.5t-133.5 -35.5zM393 693q0 19 12.5 31t31.5 12q20 0 31.5 -12t11.5 -31t-11.5 -31.5t-31.5 -12.5t-32 12.5t-12 31.5zM225 693
q0 19 12.5 31t31.5 12q20 0 31.5 -12t11.5 -31t-11.5 -31.5t-31.5 -12.5t-32 12.5t-12 31.5z" />
    <glyph glyph-name="yacute" unicode="&#xfd;" horiz-adv-x="654" 
d="M168 -270l137 303l-262 552h64l229 -487l214 487h62l-382 -855h-62zM295 631l119 155h75l-140 -155h-54z" />
    <glyph glyph-name="thorn" unicode="&#xfe;" horiz-adv-x="747" 
d="M386 -12q-74 0 -142.5 38t-101.5 105v-400h-56v1123h56v-400q33 66 101.5 104.5t142.5 38.5q128 0 215 -89t87 -216q0 -126 -87.5 -215t-214.5 -89zM384 41q103 0 174 73t71 178t-71 178.5t-174 73.5q-105 0 -177 -73.5t-72 -178.5t72 -178t177 -73z" />
    <glyph glyph-name="ydieresis" unicode="&#xff;" horiz-adv-x="654" 
d="M168 -270l137 303l-262 552h64l229 -487l214 487h62l-382 -855h-62zM372 685q0 19 12.5 31t31.5 12q20 0 31.5 -12t11.5 -31t-11.5 -31.5t-31.5 -12.5t-32 12.5t-12 31.5zM204 685q0 19 12.5 31t31.5 12q20 0 31.5 -12t11.5 -31t-11.5 -31.5t-31.5 -12.5t-32 12.5
t-12 31.5z" />
    <glyph glyph-name="Amacron" unicode="&#x100;" horiz-adv-x="698" 
d="M37 0l281 730h62l281 -730h-61l-79 204h-345l-78 -204h-61zM349 653l-152 -394h303zM214 795v50h264v-50h-264z" />
    <glyph glyph-name="amacron" unicode="&#x101;" horiz-adv-x="747" 
d="M361 -12q-128 0 -215 89t-87 215q0 127 87 216t215 89q75 0 143.5 -39.5t101.5 -107.5v135h56v-585h-56v134q-33 -68 -101.5 -107t-143.5 -39zM363 41q105 0 177 73t72 178t-72 178.5t-177 73.5q-103 0 -174.5 -73.5t-71.5 -178.5t71.5 -178t174.5 -73zM230 666v50h264
v-50h-264z" />
    <glyph glyph-name="Abreve" unicode="&#x102;" horiz-adv-x="698" 
d="M37 0l281 730h62l281 -730h-61l-79 204h-345l-78 -204h-61zM349 653l-152 -394h303zM344 791q-78 0 -119.5 45t-41.5 112h49q0 -50 29 -81.5t83 -31.5q52 0 81.5 32t29.5 81h51q0 -65 -44.5 -111t-117.5 -46z" />
    <glyph glyph-name="abreve" unicode="&#x103;" horiz-adv-x="747" 
d="M361 -12q-128 0 -215 89t-87 215q0 127 87 216t215 89q75 0 143.5 -39.5t101.5 -107.5v135h56v-585h-56v134q-33 -68 -101.5 -107t-143.5 -39zM363 41q105 0 177 73t72 178t-72 178.5t-177 73.5q-103 0 -174.5 -73.5t-71.5 -178.5t71.5 -178t174.5 -73zM364 657
q-78 0 -119.5 45t-41.5 112h49q0 -50 29 -81.5t83 -31.5q52 0 81.5 32t29.5 81h51q0 -65 -44.5 -111t-117.5 -46z" />
    <glyph glyph-name="Aogonek" unicode="&#x104;" horiz-adv-x="698" 
d="M610 -208q-57 0 -93 26.5t-36 68.5q0 70 113 128l-73 189h-345l-78 -204h-61l281 730h62l281 -730q-72 -40 -97 -62.5t-25 -47.5q0 -24 20 -37.5t51 -13.5q41 0 86 39l45 -31q-61 -55 -131 -55zM349 653l-152 -394h303z" />
    <glyph glyph-name="aogonek" unicode="&#x105;" horiz-adv-x="747" 
d="M361 -12q-128 0 -215 89t-87 215q0 127 87 216t215 89q75 0 143.5 -39.5t101.5 -107.5v135h56v-585q-82 -66 -82 -115q0 -24 16 -39t43 -15q38 0 73 32l33 -40q-50 -41 -106 -41q-55 0 -84 28.5t-29 72.5q0 64 80 130v121q-33 -68 -101.5 -107t-143.5 -39zM363 41
q105 0 177 73t72 178t-72 178.5t-177 73.5q-103 0 -174.5 -73.5t-71.5 -178.5t71.5 -178t174.5 -73z" />
    <glyph glyph-name="Cacute" unicode="&#x106;" horiz-adv-x="796" 
d="M394 795l119 155h75l-140 -155h-54zM428 -10q-155 0 -265 110t-110 265t110 265t265 110q100 0 185 -50t137 -134l-50 -29q-42 73 -113 116t-159 43q-133 0 -224.5 -94t-91.5 -227q0 -132 91.5 -226t224.5 -94q95 0 168 45t113 123l51 -26q-49 -91 -136 -144t-196 -53z
" />
    <glyph glyph-name="cacute" unicode="&#x107;" horiz-adv-x="697" 
d="M330 660l119 155h75l-140 -155h-54zM365 -12q-129 0 -217.5 88.5t-88.5 215.5q0 129 88.5 217t216.5 88q94 0 169 -49.5t108 -130.5l-53 -22q-30 70 -88.5 109.5t-135.5 39.5q-105 0 -176 -73.5t-71 -178.5t72 -178t177 -73q79 0 137 41.5t87 112.5l54 -23
q-36 -84 -108.5 -134t-170.5 -50z" />
    <glyph glyph-name="Ccircumflex" unicode="&#x108;" horiz-adv-x="796" 
d="M428 -10q-155 0 -265 110t-110 265t110 265t265 110q100 0 185 -50t137 -134l-50 -29q-42 73 -113 116t-159 43q-133 0 -224.5 -94t-91.5 -227q0 -132 91.5 -226t224.5 -94q95 0 168 45t113 123l51 -26q-49 -91 -136 -144t-196 -53zM283 795l119 155h49l119 -155h-61
l-83 110l-83 -110h-60z" />
    <glyph glyph-name="ccircumflex" unicode="&#x109;" horiz-adv-x="697" 
d="M365 -12q-129 0 -217.5 88.5t-88.5 215.5q0 129 88.5 217t216.5 88q94 0 169 -49.5t108 -130.5l-53 -22q-30 70 -88.5 109.5t-135.5 39.5q-105 0 -176 -73.5t-71 -178.5t72 -178t177 -73q79 0 137 41.5t87 112.5l54 -23q-36 -84 -108.5 -134t-170.5 -50zM221 656l119 155
h49l119 -155h-61l-83 110l-83 -110h-60z" />
    <glyph glyph-name="Cdotaccent" unicode="&#x10a;" horiz-adv-x="796" 
d="M428 -10q-155 0 -265 110t-110 265t110 265t265 110q100 0 185 -50t137 -134l-50 -29q-42 73 -113 116t-159 43q-133 0 -224.5 -94t-91.5 -227q0 -132 91.5 -226t224.5 -94q95 0 168 45t113 123l51 -26q-49 -91 -136 -144t-196 -53zM385 880q0 21 14 34.5t35 13.5
q23 0 36 -13.5t13 -34.5q0 -22 -13 -35.5t-36 -13.5t-36 13.5t-13 35.5z" />
    <glyph glyph-name="cdotaccent" unicode="&#x10b;" horiz-adv-x="697" 
d="M365 -12q-129 0 -217.5 88.5t-88.5 215.5q0 129 88.5 217t216.5 88q94 0 169 -49.5t108 -130.5l-53 -22q-30 70 -88.5 109.5t-135.5 39.5q-105 0 -176 -73.5t-71 -178.5t72 -178t177 -73q79 0 137 41.5t87 112.5l54 -23q-36 -84 -108.5 -134t-170.5 -50zM315 706
q0 21 14 34.5t35 13.5q23 0 36 -13.5t13 -34.5q0 -22 -13 -35.5t-36 -13.5t-36 13.5t-13 35.5z" />
    <glyph glyph-name="Ccaron" unicode="&#x10c;" horiz-adv-x="796" 
d="M428 -10q-155 0 -265 110t-110 265t110 265t265 110q100 0 185 -50t137 -134l-50 -29q-42 73 -113 116t-159 43q-133 0 -224.5 -94t-91.5 -227q0 -132 91.5 -226t224.5 -94q95 0 168 45t113 123l51 -26q-49 -91 -136 -144t-196 -53zM397 795l-117 155h59l81 -114l84 114
h59l-118 -155h-48z" />
    <glyph glyph-name="ccaron" unicode="&#x10d;" horiz-adv-x="697" 
d="M365 -12q-129 0 -217.5 88.5t-88.5 215.5q0 129 88.5 217t216.5 88q94 0 169 -49.5t108 -130.5l-53 -22q-30 70 -88.5 109.5t-135.5 39.5q-105 0 -176 -73.5t-71 -178.5t72 -178t177 -73q79 0 137 41.5t87 112.5l54 -23q-36 -84 -108.5 -134t-170.5 -50zM342 660
l-117 155h59l81 -114l84 114h59l-118 -155h-48z" />
    <glyph glyph-name="Dcaron" unicode="&#x10e;" horiz-adv-x="711" 
d="M75 0v730h205q164 0 271 -104.5t107 -260.5t-108.5 -260.5t-267.5 -104.5h-207zM276 677h-143v-623h145q137 0 229 89t92 222q0 134 -90.5 223t-232.5 89zM275 795l-117 155h59l81 -114l84 114h59l-118 -155h-48z" />
    <glyph glyph-name="dcaron" unicode="&#x10f;" horiz-adv-x="754" 
d="M361 -12q-128 0 -215 89t-87 215q0 127 87 216t215 89q74 0 141.5 -38.5t102.5 -105.5v287h56v-740h-55v134q-33 -68 -101.5 -107t-143.5 -39zM363 41q105 0 177 73t72 178t-72 178.5t-177 73.5q-103 0 -174.5 -73.5t-71.5 -178.5t71.5 -178t174.5 -73zM710 568l49 172
h55l-63 -172h-41z" />
    <glyph glyph-name="Dcroat" unicode="&#x110;" horiz-adv-x="731" 
d="M22 341v56h75v333h203q165 0 272 -104.5t107 -260.5t-108.5 -260.5t-268.5 -104.5h-205v341h-75zM295 677h-140v-280h231v-56h-231v-287h142q139 0 231.5 89t92.5 222t-92 222.5t-234 89.5z" />
    <glyph glyph-name="dslash" unicode="&#x111;" horiz-adv-x="760" 
d="M497 625v49h108v66h56v-66h67v-49h-67v-625h-55v134q-33 -68 -101.5 -107t-143.5 -39q-128 0 -215 89t-87 215q0 127 87 216t215 89q74 0 141.5 -38.5t102.5 -105.5v172h-108zM363 41q105 0 177 73t72 178t-72 178.5t-177 73.5q-103 0 -174.5 -73.5t-71.5 -178.5
t71.5 -178t174.5 -73z" />
    <glyph glyph-name="Emacron" unicode="&#x112;" horiz-adv-x="587" 
d="M75 0v730h447v-55h-389v-282h389v-54h-389v-284h389v-55h-447zM163 795v50h264v-50h-264z" />
    <glyph glyph-name="emacron" unicode="&#x113;" horiz-adv-x="722" 
d="M366 -12q-139 0 -223 86t-84 216t87 218.5t217 88.5q129 0 213.5 -84.5t84.5 -213.5v-26h-547q6 -102 75 -167.5t177 -65.5q167 0 230 156l51 -24q-80 -184 -281 -184zM363 545q-96 0 -165.5 -62.5t-81.5 -156.5h487q-8 97 -74 158t-166 61zM237 669v50h264v-50h-264z
" />
    <glyph glyph-name="Ebreve" unicode="&#x114;" horiz-adv-x="587" 
d="M75 0v730h447v-55h-389v-282h389v-54h-389v-284h389v-55h-447zM298 791q-78 0 -119.5 45t-41.5 112h49q0 -50 29 -81.5t83 -31.5q52 0 81.5 32t29.5 81h51q0 -65 -44.5 -111t-117.5 -46z" />
    <glyph glyph-name="ebreve" unicode="&#x115;" horiz-adv-x="722" 
d="M366 -12q-139 0 -223 86t-84 216t87 218.5t217 88.5q129 0 213.5 -84.5t84.5 -213.5v-26h-547q6 -102 75 -167.5t177 -65.5q167 0 230 156l51 -24q-80 -184 -281 -184zM363 545q-96 0 -165.5 -62.5t-81.5 -156.5h487q-8 97 -74 158t-166 61zM365 656q-78 0 -119.5 45
t-41.5 112h49q0 -50 29 -81.5t83 -31.5q52 0 81.5 32t29.5 81h51q0 -65 -44.5 -111t-117.5 -46z" />
    <glyph glyph-name="Edotaccent" unicode="&#x116;" horiz-adv-x="587" 
d="M75 0v730h447v-55h-389v-282h389v-54h-389v-284h389v-55h-447zM257 880q0 21 14 34.5t35 13.5q23 0 36 -13.5t13 -34.5q0 -22 -13 -35.5t-36 -13.5t-36 13.5t-13 35.5z" />
    <glyph glyph-name="edotaccent" unicode="&#x117;" horiz-adv-x="722" 
d="M366 -12q-139 0 -223 86t-84 216t87 218.5t217 88.5q129 0 213.5 -84.5t84.5 -213.5v-26h-547q6 -102 75 -167.5t177 -65.5q167 0 230 156l51 -24q-80 -184 -281 -184zM363 545q-96 0 -165.5 -62.5t-81.5 -156.5h487q-8 97 -74 158t-166 61zM316 708q0 21 14 34.5
t35 13.5q23 0 36 -13.5t13 -34.5q0 -22 -13 -35.5t-36 -13.5t-36 13.5t-13 35.5z" />
    <glyph glyph-name="Eogonek" unicode="&#x118;" horiz-adv-x="587" 
d="M75 0v730h447v-55h-389v-282h389v-54h-389v-284h389v-55q-72 -40 -97 -62.5t-25 -47.5q0 -24 20 -37.5t51 -13.5q41 0 86 39l45 -31q-61 -55 -131 -55q-57 0 -93 26.5t-36 68.5q0 64 85 113h-352z" />
    <glyph glyph-name="eogonek" unicode="&#x119;" horiz-adv-x="722" 
d="M374 -215q-57 0 -93 26.5t-36 68.5q0 62 80 110q-122 12 -194 96t-72 204q0 130 87 218.5t217 88.5q129 0 213.5 -84.5t84.5 -213.5v-26h-547q6 -102 75 -167.5t177 -65.5q167 0 230 156l51 -24q-70 -156 -224 -179q-72 -41 -96 -63t-24 -47q0 -24 20 -37.5t51 -13.5
q41 0 86 39l45 -31q-61 -55 -131 -55zM363 545q-96 0 -165.5 -62.5t-81.5 -156.5h487q-8 97 -74 158t-166 61z" />
    <glyph glyph-name="Ecaron" unicode="&#x11a;" horiz-adv-x="587" 
d="M75 0v730h447v-55h-389v-282h389v-54h-389v-284h389v-55h-447zM270 795l-117 155h59l81 -114l84 114h59l-118 -155h-48z" />
    <glyph glyph-name="ecaron" unicode="&#x11b;" horiz-adv-x="722" 
d="M366 -12q-139 0 -223 86t-84 216t87 218.5t217 88.5q129 0 213.5 -84.5t84.5 -213.5v-26h-547q6 -102 75 -167.5t177 -65.5q167 0 230 156l51 -24q-80 -184 -281 -184zM363 545q-96 0 -165.5 -62.5t-81.5 -156.5h487q-8 97 -74 158t-166 61zM345 660l-117 155h59l81 -114
l84 114h59l-118 -155h-48z" />
    <glyph glyph-name="Gcircumflex" unicode="&#x11c;" horiz-adv-x="850" 
d="M430 -10q-159 0 -268 109.5t-109 265.5q0 157 109.5 266t271.5 109q106 0 189.5 -48.5t132.5 -135.5l-50 -29q-41 74 -111.5 116.5t-160.5 42.5q-140 0 -231 -93.5t-91 -227.5q0 -133 90.5 -226.5t227.5 -93.5q133 0 216 79t95 203h-316v54h374v-15q0 -159 -100 -267.5
t-269 -108.5zM281 795l119 155h49l119 -155h-61l-83 110l-83 -110h-60z" />
    <glyph glyph-name="gcircumflex" unicode="&#x11d;" horiz-adv-x="747" 
d="M361 -12q-128 0 -215 89t-87 215q0 127 87 216t215 89q75 0 143.5 -39.5t101.5 -107.5v135h56v-573q0 -135 -79.5 -215t-212.5 -80q-103 0 -167 40t-109 120l55 25q34 -66 86 -99.5t135 -33.5q109 0 172.5 65.5t63.5 175.5v124q-33 -68 -101.5 -107t-143.5 -39zM363 41
q105 0 177 73t72 178t-72 178.5t-177 73.5q-103 0 -174.5 -73.5t-71.5 -178.5t71.5 -178t174.5 -73zM217 656l119 155h49l119 -155h-61l-83 110l-83 -110h-60z" />
    <glyph glyph-name="Gbreve" unicode="&#x11e;" horiz-adv-x="850" 
d="M430 -10q-159 0 -268 109.5t-109 265.5q0 157 109.5 266t271.5 109q106 0 189.5 -48.5t132.5 -135.5l-50 -29q-41 74 -111.5 116.5t-160.5 42.5q-140 0 -231 -93.5t-91 -227.5q0 -133 90.5 -226.5t227.5 -93.5q133 0 216 79t95 203h-316v54h374v-15q0 -159 -100 -267.5
t-269 -108.5zM423 791q-78 0 -119.5 45t-41.5 112h49q0 -50 29 -81.5t83 -31.5q52 0 81.5 32t29.5 81h51q0 -65 -44.5 -111t-117.5 -46z" />
    <glyph glyph-name="gbreve" unicode="&#x11f;" horiz-adv-x="747" 
d="M361 -12q-128 0 -215 89t-87 215q0 127 87 216t215 89q75 0 143.5 -39.5t101.5 -107.5v135h56v-573q0 -135 -79.5 -215t-212.5 -80q-103 0 -167 40t-109 120l55 25q34 -66 86 -99.5t135 -33.5q109 0 172.5 65.5t63.5 175.5v124q-33 -68 -101.5 -107t-143.5 -39zM363 41
q105 0 177 73t72 178t-72 178.5t-177 73.5q-103 0 -174.5 -73.5t-71.5 -178.5t71.5 -178t174.5 -73zM362 657q-78 0 -119.5 45t-41.5 112h49q0 -50 29 -81.5t83 -31.5q52 0 81.5 32t29.5 81h51q0 -65 -44.5 -111t-117.5 -46z" />
    <glyph glyph-name="Gdotaccent" unicode="&#x120;" horiz-adv-x="850" 
d="M430 -10q-159 0 -268 109.5t-109 265.5q0 157 109.5 266t271.5 109q106 0 189.5 -48.5t132.5 -135.5l-50 -29q-41 74 -111.5 116.5t-160.5 42.5q-140 0 -231 -93.5t-91 -227.5q0 -133 90.5 -226.5t227.5 -93.5q133 0 216 79t95 203h-316v54h374v-15q0 -159 -100 -267.5
t-269 -108.5zM376 880q0 21 14 34.5t35 13.5q23 0 36 -13.5t13 -34.5q0 -22 -13 -35.5t-36 -13.5t-36 13.5t-13 35.5z" />
    <glyph glyph-name="gdotaccent" unicode="&#x121;" horiz-adv-x="747" 
d="M361 -12q-128 0 -215 89t-87 215q0 127 87 216t215 89q75 0 143.5 -39.5t101.5 -107.5v135h56v-573q0 -135 -79.5 -215t-212.5 -80q-103 0 -167 40t-109 120l55 25q34 -66 86 -99.5t135 -33.5q109 0 172.5 65.5t63.5 175.5v124q-33 -68 -101.5 -107t-143.5 -39zM363 41
q105 0 177 73t72 178t-72 178.5t-177 73.5q-103 0 -174.5 -73.5t-71.5 -178.5t71.5 -178t174.5 -73zM311 713q0 21 14 34.5t35 13.5q23 0 36 -13.5t13 -34.5q0 -22 -13 -35.5t-36 -13.5t-36 13.5t-13 35.5z" />
    <glyph glyph-name="uni0122" unicode="&#x122;" horiz-adv-x="850" 
d="M430 -10q-159 0 -268 109.5t-109 265.5q0 157 109.5 266t271.5 109q106 0 189.5 -48.5t132.5 -135.5l-50 -29q-41 74 -111.5 116.5t-160.5 42.5q-140 0 -231 -93.5t-91 -227.5q0 -133 90.5 -226.5t227.5 -93.5q133 0 216 79t95 203h-316v54h374v-15q0 -159 -100 -267.5
t-269 -108.5zM403 -269h-40l43 204h55z" />
    <glyph glyph-name="uni0123" unicode="&#x123;" horiz-adv-x="747" 
d="M361 -12q-128 0 -215 89t-87 215q0 127 87 216t215 89q75 0 143.5 -39.5t101.5 -107.5v135h56v-573q0 -135 -79.5 -215t-212.5 -80q-103 0 -167 40t-109 120l55 25q34 -66 86 -99.5t135 -33.5q109 0 172.5 65.5t63.5 175.5v124q-33 -68 -101.5 -107t-143.5 -39zM363 41
q105 0 177 73t72 178t-72 178.5t-177 73.5q-103 0 -174.5 -73.5t-71.5 -178.5t71.5 -178t174.5 -73zM375 660h-40l43 204h55z" />
    <glyph glyph-name="Hcircumflex" unicode="&#x124;" horiz-adv-x="688" 
d="M554 0v339h-422v-339h-58v730h58v-336h422v336h58v-730h-58zM199 795l119 155h49l119 -155h-61l-83 110l-83 -110h-60z" />
    <glyph glyph-name="hcircumflex" unicode="&#x125;" horiz-adv-x="709" 
d="M89 0v740h55v-269q31 58 89.5 92t133.5 34q118 0 189 -72.5t71 -196.5v-328h-58v329q0 99 -55.5 157.5t-153.5 58.5q-92 0 -154 -62.5t-62 -154.5v-328h-55zM-26 788l119 155h49l119 -155h-61l-83 110l-83 -110h-60z" />
    <glyph glyph-name="Hbar" unicode="&#x126;" horiz-adv-x="721" 
d="M20 540v45h70v145h58v-145h422v145h58v-145h65v-45h-65v-540h-58v339h-422v-339h-58v540h-70zM148 540v-146h422v146h-422z" />
    <glyph glyph-name="hbar" unicode="&#x127;" horiz-adv-x="719" 
d="M19 631v44h79v65h55v-65h97v-44h-97v-160q31 58 89.5 92t133.5 34q118 0 189 -72.5t71 -196.5v-328h-58v329q0 99 -55.5 157.5t-153.5 58.5q-92 0 -154 -62.5t-62 -154.5v-328h-55v631h-79z" />
    <glyph glyph-name="Itilde" unicode="&#x128;" horiz-adv-x="224" 
d="M84 0v730h57v-730h-57zM-7 795h-47q0 50 25.5 79t67.5 29q35 0 86 -30q52 -31 72 -31q50 0 50 58h46q0 -51 -25 -80t-70 -29q-7 0 -14.5 1t-12.5 2t-13 4t-11.5 4t-11.5 6t-10 6t-11 6.5t-10 5.5q-4 2 -13 7.5t-13.5 8t-11.5 5.5t-13.5 4.5t-13.5 1.5q-21 0 -33.5 -15
t-12.5 -43z" />
    <glyph glyph-name="itilde" unicode="&#x129;" horiz-adv-x="226" 
d="M85 0v585h57v-585h-57zM-12 660h-47q0 50 25.5 79t67.5 29q35 0 86 -30q52 -31 72 -31q50 0 50 58h46q0 -51 -25 -80t-70 -29q-7 0 -14.5 1t-12.5 2t-13 4t-11.5 4t-11.5 6t-10 6t-11 6.5t-10 5.5q-4 2 -13 7.5t-13.5 8t-11.5 5.5t-13.5 4.5t-13.5 1.5q-21 0 -33.5 -15
t-12.5 -43z" />
    <glyph glyph-name="Imacron" unicode="&#x12a;" horiz-adv-x="227" 
d="M85 0v730h57v-730h-57zM-19 795v50h264v-50h-264z" />
    <glyph glyph-name="imacron" unicode="&#x12b;" horiz-adv-x="226" 
d="M85 0v585h57v-585h-57zM-19 664v50h264v-50h-264z" />
    <glyph glyph-name="Ibreve" unicode="&#x12c;" horiz-adv-x="227" 
d="M85 0v730h57v-730h-57zM111 791q-78 0 -119.5 45t-41.5 112h49q0 -50 29 -81.5t83 -31.5q52 0 81.5 32t29.5 81h51q0 -65 -44.5 -111t-117.5 -46z" />
    <glyph glyph-name="ibreve" unicode="&#x12d;" horiz-adv-x="226" 
d="M85 0v585h57v-585h-57zM113 647q-78 0 -119.5 45t-41.5 112h49q0 -50 29 -81.5t83 -31.5q52 0 81.5 32t29.5 81h51q0 -65 -44.5 -111t-117.5 -46z" />
    <glyph glyph-name="Iogonek" unicode="&#x12e;" horiz-adv-x="227" 
d="M120 -218q-55 0 -84 28.5t-29 72.5q0 63 78 128v719h57v-730h1q-82 -66 -82 -115q0 -24 16 -39t43 -15q38 0 73 32l33 -40q-50 -41 -106 -41z" />
    <glyph glyph-name="iogonek" unicode="&#x12f;" horiz-adv-x="226" 
d="M119 -218q-55 0 -84 28.5t-29 72.5q0 63 79 129v573h57v-585q-82 -66 -82 -115q0 -24 16 -39t43 -15q38 0 73 32l33 -40q-50 -41 -106 -41zM65 713q0 21 14 34.5t35 13.5q23 0 36 -13.5t13 -34.5q0 -22 -13 -35.5t-36 -13.5t-36 13.5t-13 35.5z" />
    <glyph glyph-name="Idot" unicode="&#x130;" horiz-adv-x="227" 
d="M85 0v730h57v-730h-57zM64 880q0 21 14 34.5t35 13.5q23 0 36 -13.5t13 -34.5q0 -22 -13 -35.5t-36 -13.5t-36 13.5t-13 35.5z" />
    <glyph glyph-name="dotlessi" unicode="&#x131;" horiz-adv-x="226" 
d="M85 0v585h57v-585h-57z" />
    <glyph glyph-name="IJ" unicode="&#x132;" horiz-adv-x="552" 
d="M224 0v54h79q61 0 93 36t32 102v538h58v-538q0 -192 -181 -192h-81zM66 0v730h58v-730h-58z" />
    <glyph glyph-name="ij" unicode="&#x133;" horiz-adv-x="454" 
d="M85 0v585h57v-585h-57zM65 713q0 21 14 34.5t35 13.5q23 0 36 -13.5t13 -34.5q0 -22 -13 -35.5t-36 -13.5t-36 13.5t-13 35.5zM369 585v-605q0 -114 -40.5 -156.5t-153.5 -42.5h-90v56h82q92 0 118.5 27.5t26.5 116.5v604h57zM292 713q0 21 14 34.5t35 13.5
q23 0 36 -13.5t13 -34.5q0 -22 -13 -35.5t-36 -13.5t-36 13.5t-13 35.5z" />
    <glyph glyph-name="Jcircumflex" unicode="&#x134;" horiz-adv-x="476" 
d="M219 -10q-131 0 -182 103l52 33q39 -83 129 -83q60 0 94 39t34 106v542h58v-541q0 -93 -49 -146t-136 -53zM231 795l119 155h49l119 -155h-61l-83 110l-83 -110h-60z" />
    <glyph glyph-name="jcircumflex" unicode="&#x135;" horiz-adv-x="226" 
d="M-70 -268v56q96 0 125.5 27.5t29.5 126.5v643h57v-644q0 -123 -42 -166t-161 -43h-9zM-30 645l119 155h49l119 -155h-61l-83 110l-83 -110h-60z" />
    <glyph glyph-name="uni0136" unicode="&#x136;" horiz-adv-x="649" 
d="M555 0l-264 397l-158 -181v-216h-57v730h57v-437l382 437h71l-254 -293l290 -437h-67zM303 -269h-40l43 204h55z" />
    <glyph glyph-name="uni0137" unicode="&#x137;" horiz-adv-x="607" 
d="M503 0l-225 305l-136 -141v-164h-56v740h56v-509l340 354h73l-236 -245l251 -340h-67zM286 -258h-40l43 204h55z" />
    <glyph glyph-name="kgreenlandic" unicode="&#x138;" horiz-adv-x="607" 
d="M502 0l-225 305l-135 -141v-164h-57v585h57v-354l339 354h74l-236 -245l251 -340h-68z" />
    <glyph glyph-name="Lacute" unicode="&#x139;" horiz-adv-x="533" 
d="M75 0v730h58v-675h347v-55h-405zM72 795l119 155h75l-140 -155h-54z" />
    <glyph glyph-name="lacute" unicode="&#x13a;" horiz-adv-x="231" 
d="M91 795l119 155h75l-140 -155h-54zM86 0v740h58v-740h-58z" />
    <glyph glyph-name="uni013B" unicode="&#x13b;" horiz-adv-x="533" 
d="M75 0v730h58v-675h347v-55h-405zM243 -269h-40l43 204h55z" />
    <glyph glyph-name="uni013C" unicode="&#x13c;" horiz-adv-x="231" 
d="M49 -258h-40l43 204h55zM86 0v740h58v-740h-58z" />
    <glyph glyph-name="Lcaron" unicode="&#x13d;" horiz-adv-x="533" 
d="M75 0v730h58v-675h347v-55h-405zM281 557l49 172h55l-63 -172h-41z" />
    <glyph glyph-name="lcaron" unicode="&#x13e;" horiz-adv-x="264" 
d="M209 568l49 172h55l-63 -172h-41zM86 0v740h58v-740h-58z" />
    <glyph glyph-name="Ldot" unicode="&#x13f;" horiz-adv-x="542" 
d="M75 0v730h58v-675h347v-55h-405zM401 369q0 21 14 34.5t35 13.5q23 0 36 -13.5t13 -34.5q0 -22 -13 -35.5t-36 -13.5t-36 13.5t-13 35.5z" />
    <glyph glyph-name="ldot" unicode="&#x140;" horiz-adv-x="382" 
d="M86 0v740h58v-740h-58zM252 286q0 21 14 34.5t35 13.5q23 0 36 -13.5t13 -34.5q0 -22 -13 -35.5t-36 -13.5t-36 13.5t-13 35.5z" />
    <glyph glyph-name="Lslash" unicode="&#x141;" horiz-adv-x="561" 
d="M12 343v43l91 26v318h58v-301l143 42v-42l-143 -42v-332h347v-55h-405v370z" />
    <glyph glyph-name="lslash" unicode="&#x142;" horiz-adv-x="317" 
d="M13 362v47l116 50v395h58v-369l117 51v-49l-117 -50v-437h-58v412z" />
    <glyph glyph-name="Nacute" unicode="&#x143;" horiz-adv-x="742" 
d="M75 0v730h64l470 -640v640h58v-730h-62l-472 643v-643h-58zM347 795l119 155h75l-140 -155h-54z" />
    <glyph glyph-name="nacute" unicode="&#x144;" horiz-adv-x="707" 
d="M85 0v585h55v-119q30 59 89.5 95t135.5 36q118 0 189 -72.5t71 -196.5v-328h-57v329q0 98 -56 156.5t-154 58.5q-92 0 -154 -62t-62 -154v-328h-57zM330 660l119 155h75l-140 -155h-54z" />
    <glyph glyph-name="uni0145" unicode="&#x145;" horiz-adv-x="742" 
d="M75 0v730h64l470 -640v640h58v-730h-62l-472 643v-643h-58zM336 -269h-40l43 204h55z" />
    <glyph glyph-name="uni0146" unicode="&#x146;" horiz-adv-x="707" 
d="M85 0v585h55v-119q30 59 89.5 95t135.5 36q118 0 189 -72.5t71 -196.5v-328h-57v329q0 98 -56 156.5t-154 58.5q-92 0 -154 -62t-62 -154v-328h-57zM325 -254h-40l43 204h55z" />
    <glyph glyph-name="Ncaron" unicode="&#x147;" horiz-adv-x="742" 
d="M75 0v730h64l470 -640v640h58v-730h-62l-472 643v-643h-58zM348 795l-117 155h59l81 -114l84 114h59l-118 -155h-48z" />
    <glyph glyph-name="ncaron" unicode="&#x148;" horiz-adv-x="707" 
d="M85 0v585h55v-119q30 59 89.5 95t135.5 36q118 0 189 -72.5t71 -196.5v-328h-57v329q0 98 -56 156.5t-154 58.5q-92 0 -154 -62t-62 -154v-328h-57zM345 660l-117 155h59l81 -114l84 114h59l-118 -155h-48z" />
    <glyph glyph-name="Eng" unicode="&#x14a;" horiz-adv-x="742" 
d="M453 -213v56h49q57 0 82 28t25 90v39l-476 643v-643h-58v730h64l470 -635v635h58v-771q0 -86 -37.5 -129t-122.5 -43h-54z" />
    <glyph glyph-name="eng" unicode="&#x14b;" horiz-adv-x="707" 
d="M412 -268v56q97 0 126.5 28t29.5 126v387q0 98 -56 156.5t-154 58.5q-92 0 -154 -62t-62 -154v-328h-57v585h55v-119q30 59 89.5 95t135.5 36q118 0 189 -72.5t71 -196.5v-387q0 -123 -42.5 -166t-162.5 -43h-8z" />
    <glyph glyph-name="Omacron" unicode="&#x14c;" horiz-adv-x="855" 
d="M292 795v50h264v-50h-264zM428 -10q-155 0 -265 110t-110 265t110 265t265 110t265 -110t110 -265t-110 -265t-265 -110zM428 45q133 0 224 94t91 226q0 134 -91 227t-224 93t-224.5 -93.5t-91.5 -226.5q0 -132 91.5 -226t224.5 -94z" />
    <glyph glyph-name="omacron" unicode="&#x14d;" horiz-adv-x="726" 
d="M230 670v50h264v-50h-264zM363 -12q-127 0 -215.5 88t-88.5 216t89 216.5t215 88.5t215 -88.5t89 -216.5t-88.5 -216t-215.5 -88zM363 41q103 0 174 73t71 178t-71 178.5t-174 73.5q-104 0 -175 -73.5t-71 -178.5t71 -178t175 -73z" />
    <glyph glyph-name="Obreve" unicode="&#x14e;" horiz-adv-x="855" 
d="M428 -10q-155 0 -265 110t-110 265t110 265t265 110t265 -110t110 -265t-110 -265t-265 -110zM428 45q133 0 224 94t91 226q0 134 -91 227t-224 93t-224.5 -93.5t-91.5 -226.5q0 -132 91.5 -226t224.5 -94zM423 792q-78 0 -119.5 45t-41.5 112h49q0 -50 29 -81.5
t83 -31.5q52 0 81.5 32t29.5 81h51q0 -65 -44.5 -111t-117.5 -46z" />
    <glyph glyph-name="obreve" unicode="&#x14f;" horiz-adv-x="726" 
d="M363 -12q-127 0 -215.5 88t-88.5 216t89 216.5t215 88.5t215 -88.5t89 -216.5t-88.5 -216t-215.5 -88zM363 41q103 0 174 73t71 178t-71 178.5t-174 73.5q-104 0 -175 -73.5t-71 -178.5t71 -178t175 -73zM362 657q-78 0 -119.5 45t-41.5 112h49q0 -50 29 -81.5t83 -31.5
q52 0 81.5 32t29.5 81h51q0 -65 -44.5 -111t-117.5 -46z" />
    <glyph glyph-name="Ohungarumlaut" unicode="&#x150;" horiz-adv-x="855" 
d="M328 795l119 155h71l-140 -155h-50zM449 795l120 155h71l-140 -155h-51zM428 -10q-155 0 -265 110t-110 265t110 265t265 110t265 -110t110 -265t-110 -265t-265 -110zM428 45q133 0 224 94t91 226q0 134 -91 227t-224 93t-224.5 -93.5t-91.5 -226.5q0 -132 91.5 -226
t224.5 -94z" />
    <glyph glyph-name="ohungarumlaut" unicode="&#x151;" horiz-adv-x="726" 
d="M272 660l119 155h71l-140 -155h-50zM393 660l120 155h71l-140 -155h-51zM363 -12q-127 0 -215.5 88t-88.5 216t89 216.5t215 88.5t215 -88.5t89 -216.5t-88.5 -216t-215.5 -88zM363 41q103 0 174 73t71 178t-71 178.5t-174 73.5q-104 0 -175 -73.5t-71 -178.5t71 -178
t175 -73z" />
    <glyph glyph-name="OE" unicode="&#x152;" horiz-adv-x="1255" 
d="M744 0v174q-48 -86 -130 -135t-187 -49q-155 0 -264.5 110t-109.5 265t109.5 265t264.5 110q105 0 187 -49t130 -135v174h446v-55h-388v-282h388v-54h-388v-284h388v-55h-446zM427 47q132 0 224.5 93t92.5 225t-92.5 225.5t-224.5 93.5t-224 -93.5t-92 -225.5t92 -225
t224 -93z" />
    <glyph glyph-name="oe" unicode="&#x153;" horiz-adv-x="1275" 
d="M363 -12q-127 0 -215.5 88t-88.5 216t89 216.5t215 88.5q93 0 166.5 -49t107.5 -130q35 82 107 130.5t169 48.5q128 0 214 -84.5t86 -214.5v-20h-549q4 -102 76 -170t176 -68q88 0 149 46t86 123l51 -23q-31 -92 -105.5 -145t-180.5 -53q-101 0 -174 47.5t-107 129.5
q-35 -81 -107 -129t-165 -48zM363 41q103 0 174 73t71 178t-71 178.5t-174 73.5q-104 0 -175 -73.5t-71 -178.5t71 -178t175 -73zM913 545q-95 0 -163.5 -61t-82.5 -154h487q-10 96 -76 155.5t-165 59.5z" />
    <glyph glyph-name="Racute" unicode="&#x154;" horiz-adv-x="596" 
d="M482 0l-152 272h-197v-272h-58v730h228q101 0 170.5 -67t69.5 -161q0 -73 -44.5 -132.5t-115.5 -81.5l164 -288h-65zM299 677h-166v-352h165q81 0 134 53t53 124q0 75 -52 125t-134 50zM238 795l119 155h75l-140 -155h-54z" />
    <glyph glyph-name="racute" unicode="&#x155;" horiz-adv-x="450" 
d="M85 0v585h55v-104q48 110 173 110q64 0 121 -33l-34 -50q-43 30 -89 30q-79 0 -124 -51.5t-45 -143.5v-343h-57zM223 657l119 155h75l-140 -155h-54z" />
    <glyph glyph-name="uni0156" unicode="&#x156;" horiz-adv-x="596" 
d="M482 0l-152 272h-197v-272h-58v730h228q101 0 170.5 -67t69.5 -161q0 -73 -44.5 -132.5t-115.5 -81.5l164 -288h-65zM299 677h-166v-352h165q81 0 134 53t53 124q0 75 -52 125t-134 50zM286 -281h-40l43 204h55z" />
    <glyph glyph-name="uni0157" unicode="&#x157;" horiz-adv-x="450" 
d="M85 0v585h55v-104q48 110 173 110q64 0 121 -33l-34 -50q-43 30 -89 30q-79 0 -124 -51.5t-45 -143.5v-343h-57zM82 -258h-40l43 204h55z" />
    <glyph glyph-name="Rcaron" unicode="&#x158;" horiz-adv-x="596" 
d="M482 0l-152 272h-197v-272h-58v730h228q101 0 170.5 -67t69.5 -161q0 -73 -44.5 -132.5t-115.5 -81.5l164 -288h-65zM299 677h-166v-352h165q81 0 134 53t53 124q0 75 -52 125t-134 50zM284 795l-117 155h59l81 -114l84 114h59l-118 -155h-48z" />
    <glyph glyph-name="rcaron" unicode="&#x159;" horiz-adv-x="450" 
d="M85 0v585h55v-104q48 110 173 110q64 0 121 -33l-34 -50q-43 30 -89 30q-79 0 -124 -51.5t-45 -143.5v-343h-57zM227 656l-117 155h59l81 -114l84 114h59l-118 -155h-48z" />
    <glyph glyph-name="Sacute" unicode="&#x15a;" horiz-adv-x="557" 
d="M247 794l119 155h75l-140 -155h-54zM273 -10q-153 0 -243 120l48 37q71 -104 195 -104q75 0 125 42.5t50 111.5q0 29 -11.5 52.5t-25 38t-43.5 29.5t-48.5 21.5l-57.5 19.5q-37 12 -60.5 21t-54 26t-48 36t-30 48.5t-12.5 65.5q0 80 62.5 132.5t154.5 52.5
q136 0 215 -100l-45 -35q-60 84 -170 84q-67 0 -112.5 -37.5t-45.5 -96.5q0 -73 78 -113q26 -12 104 -39q49 -17 77.5 -29.5t63 -36.5t51 -58.5t16.5 -81.5q0 -87 -66 -147t-167 -60z" />
    <glyph glyph-name="sacute" unicode="&#x15b;" horiz-adv-x="542" 
d="M236 660l119 155h75l-140 -155h-54zM267 -12q-73 0 -133.5 29.5t-96.5 79.5l45 36q31 -42 79.5 -68t106.5 -26q76 0 117.5 35.5t41.5 87.5q0 18 -5.5 33t-20.5 26.5t-26 19t-37 15.5t-38 11l-43 11q-45 11 -72 20.5t-58.5 27.5t-46.5 45.5t-15 66.5q0 66 56 113t145 47
q129 0 204 -85l-43 -35q-62 70 -161 70q-67 0 -105.5 -30.5t-38.5 -78.5q0 -21 10 -37.5t22.5 -27t39 -20.5t43 -15t50.5 -13q36 -9 58.5 -16t52 -20.5t46 -29.5t28.5 -41t12 -57q0 -69 -56.5 -121.5t-160.5 -52.5z" />
    <glyph glyph-name="Scircumflex" unicode="&#x15c;" horiz-adv-x="557" 
d="M273 -10q-153 0 -243 120l48 37q71 -104 195 -104q75 0 125 42.5t50 111.5q0 29 -11.5 52.5t-25 38t-43.5 29.5t-48.5 21.5l-57.5 19.5q-37 12 -60.5 21t-54 26t-48 36t-30 48.5t-12.5 65.5q0 80 62.5 132.5t154.5 52.5q136 0 215 -100l-45 -35q-60 84 -170 84
q-67 0 -112.5 -37.5t-45.5 -96.5q0 -73 78 -113q26 -12 104 -39q49 -17 77.5 -29.5t63 -36.5t51 -58.5t16.5 -81.5q0 -87 -66 -147t-167 -60zM134 795l119 155h49l119 -155h-61l-83 110l-83 -110h-60z" />
    <glyph glyph-name="scircumflex" unicode="&#x15d;" horiz-adv-x="542" 
d="M267 -12q-73 0 -133.5 29.5t-96.5 79.5l45 36q31 -42 79.5 -68t106.5 -26q76 0 117.5 35.5t41.5 87.5q0 18 -5.5 33t-20.5 26.5t-26 19t-37 15.5t-38 11l-43 11q-45 11 -72 20.5t-58.5 27.5t-46.5 45.5t-15 66.5q0 66 56 113t145 47q129 0 204 -85l-43 -35
q-62 70 -161 70q-67 0 -105.5 -30.5t-38.5 -78.5q0 -21 10 -37.5t22.5 -27t39 -20.5t43 -15t50.5 -13q36 -9 58.5 -16t52 -20.5t46 -29.5t28.5 -41t12 -57q0 -69 -56.5 -121.5t-160.5 -52.5zM121 657l119 155h49l119 -155h-61l-83 110l-83 -110h-60z" />
    <glyph glyph-name="Scedilla" unicode="&#x15e;" horiz-adv-x="557" 
d="M281 -227q-83 0 -139 53l46 28q23 -20 43 -29t50 -9q35 0 57.5 14t22.5 36q0 20 -22 32t-61 12h-33v82q-137 10 -215 118l48 37q71 -104 195 -104q75 0 125 42.5t50 111.5q0 29 -11.5 52.5t-25 38t-43.5 29.5t-48.5 21.5l-57.5 19.5q-37 12 -60.5 21t-54 26t-48 36
t-30 48.5t-12.5 65.5q0 80 62.5 132.5t154.5 52.5q136 0 215 -100l-45 -35q-60 84 -170 84q-67 0 -112.5 -37.5t-45.5 -96.5q0 -73 78 -113q26 -12 104 -39q49 -17 77.5 -29.5t63 -36.5t51 -58.5t16.5 -81.5q0 -81 -59.5 -140.5t-152.5 -65.5v-44q54 -1 87.5 -22.5
t33.5 -56.5q0 -42 -38.5 -68.5t-95.5 -26.5z" />
    <glyph glyph-name="scedilla" unicode="&#x15f;" horiz-adv-x="542" 
d="M276 -232q-83 0 -139 53l46 28q23 -20 43 -29t50 -9q35 0 57.5 14t22.5 36q0 20 -22 32t-61 12h-33v85q-64 5 -117 34t-86 73l45 36q31 -42 79.5 -68t106.5 -26q76 0 117.5 35.5t41.5 87.5q0 18 -5.5 33t-20.5 26.5t-26 19t-37 15.5t-38 11l-43 11q-45 11 -72 20.5
t-58.5 27.5t-46.5 45.5t-15 66.5q0 66 56 113t145 47q129 0 204 -85l-43 -35q-62 70 -161 70q-67 0 -105.5 -30.5t-38.5 -78.5q0 -21 10 -37.5t22.5 -27t39 -20.5t43 -15t50.5 -13q36 -9 58.5 -16t52 -20.5t46 -29.5t28.5 -41t12 -57q0 -64 -50.5 -115.5t-144.5 -57.5v-47
q54 -1 87.5 -22.5t33.5 -56.5q0 -42 -38.5 -68.5t-95.5 -26.5z" />
    <glyph glyph-name="Scaron" unicode="&#x160;" horiz-adv-x="557" 
d="M273 -10q-153 0 -243 120l48 37q71 -104 195 -104q75 0 125 42.5t50 111.5q0 29 -11.5 52.5t-25 38t-43.5 29.5t-48.5 21.5l-57.5 19.5q-37 12 -60.5 21t-54 26t-48 36t-30 48.5t-12.5 65.5q0 80 62.5 132.5t154.5 52.5q136 0 215 -100l-45 -35q-60 84 -170 84
q-67 0 -112.5 -37.5t-45.5 -96.5q0 -73 78 -113q26 -12 104 -39q49 -17 77.5 -29.5t63 -36.5t51 -58.5t16.5 -81.5q0 -87 -66 -147t-167 -60zM255 795l-117 155h59l81 -114l84 114h59l-118 -155h-48z" />
    <glyph glyph-name="scaron" unicode="&#x161;" horiz-adv-x="542" 
d="M267 -12q-73 0 -133.5 29.5t-96.5 79.5l45 36q31 -42 79.5 -68t106.5 -26q76 0 117.5 35.5t41.5 87.5q0 18 -5.5 33t-20.5 26.5t-26 19t-37 15.5t-38 11l-43 11q-45 11 -72 20.5t-58.5 27.5t-46.5 45.5t-15 66.5q0 66 56 113t145 47q129 0 204 -85l-43 -35
q-62 70 -161 70q-67 0 -105.5 -30.5t-38.5 -78.5q0 -21 10 -37.5t22.5 -27t39 -20.5t43 -15t50.5 -13q36 -9 58.5 -16t52 -20.5t46 -29.5t28.5 -41t12 -57q0 -69 -56.5 -121.5t-160.5 -52.5zM242 660l-117 155h59l81 -114l84 114h59l-118 -155h-48z" />
    <glyph glyph-name="uni0162" unicode="&#x162;" horiz-adv-x="610" 
d="M278 -269h-40l43 204h55zM276 0v677h-228v53h514v-53h-228v-677h-58z" />
    <glyph glyph-name="uni0163" unicode="&#x163;" horiz-adv-x="402" 
d="M36 533v52h104v136l55 36v-172h154v-52h-154v-323q0 -99 29.5 -128t124.5 -29v-53h-9q-120 0 -160 41.5t-40 167.5v324h-104zM210 -269h-40l43 204h55z" />
    <glyph glyph-name="Tcaron" unicode="&#x164;" horiz-adv-x="610" 
d="M276 0v677h-228v53h514v-53h-228v-677h-58zM277 795l-117 155h59l81 -114l84 114h59l-118 -155h-48z" />
    <glyph glyph-name="tcaron" unicode="&#x165;" horiz-adv-x="402" 
d="M36 533v52h104v136l55 36v-172h154v-52h-154v-323q0 -99 29.5 -128t124.5 -29v-53h-9q-120 0 -160 41.5t-40 167.5v324h-104zM270 671l49 172h55l-63 -172h-41z" />
    <glyph glyph-name="Tbar" unicode="&#x166;" horiz-adv-x="610" 
d="M166 372v53h110v252h-228v53h514v-53h-228v-252h116v-53h-116v-372h-58v372h-110z" />
    <glyph glyph-name="tbar" unicode="&#x167;" horiz-adv-x="402" 
d="M36 533v52h104v136l55 36v-172h154v-52h-154v-193h154v-52h-154v-78q0 -99 29.5 -128t124.5 -29v-53h-9q-120 0 -160 41.5t-40 167.5v79h-104v52h104v193h-104z" />
    <glyph glyph-name="Utilde" unicode="&#x168;" horiz-adv-x="641" 
d="M320 -10q-106 0 -177 71.5t-71 176.5v492h58v-495q0 -79 55 -134.5t135 -55.5t135.5 55.5t55.5 135.5v494h58v-492q0 -105 -71.5 -176.5t-177.5 -71.5zM196 795h-47q0 50 25.5 79t67.5 29q35 0 86 -30q52 -31 72 -31q50 0 50 58h46q0 -51 -25 -80t-70 -29q-7 0 -14.5 1
t-12.5 2t-13 4t-11.5 4t-11.5 6t-10 6t-11 6.5t-10 5.5q-4 2 -13 7.5t-13.5 8t-11.5 5.5t-13.5 4.5t-13.5 1.5q-21 0 -33.5 -15t-12.5 -43z" />
    <glyph glyph-name="utilde" unicode="&#x169;" horiz-adv-x="707" 
d="M345 -12q-123 0 -193 72t-70 197v328h58v-329q0 -99 55.5 -157t153.5 -58q92 0 154.5 62t62.5 154v328h57v-585h-56v119q-30 -60 -88.5 -95.5t-133.5 -35.5zM233 660h-47q0 50 25.5 79t67.5 29q35 0 86 -30q52 -31 72 -31q50 0 50 58h46q0 -51 -25 -80t-70 -29
q-7 0 -14.5 1t-12.5 2t-13 4t-11.5 4t-11.5 6t-10 6t-11 6.5t-10 5.5q-4 2 -13 7.5t-13.5 8t-11.5 5.5t-13.5 4.5t-13.5 1.5q-21 0 -33.5 -15t-12.5 -43z" />
    <glyph glyph-name="Umacron" unicode="&#x16a;" horiz-adv-x="641" 
d="M320 -10q-106 0 -177 71.5t-71 176.5v492h58v-495q0 -79 55 -134.5t135 -55.5t135.5 55.5t55.5 135.5v494h58v-492q0 -105 -71.5 -176.5t-177.5 -71.5zM187 795v50h264v-50h-264z" />
    <glyph glyph-name="umacron" unicode="&#x16b;" horiz-adv-x="707" 
d="M345 -12q-123 0 -193 72t-70 197v328h58v-329q0 -99 55.5 -157t153.5 -58q92 0 154.5 62t62.5 154v328h57v-585h-56v119q-30 -60 -88.5 -95.5t-133.5 -35.5zM221 664v50h264v-50h-264z" />
    <glyph glyph-name="Ubreve" unicode="&#x16c;" horiz-adv-x="641" 
d="M320 -10q-106 0 -177 71.5t-71 176.5v492h58v-495q0 -79 55 -134.5t135 -55.5t135.5 55.5t55.5 135.5v494h58v-492q0 -105 -71.5 -176.5t-177.5 -71.5zM317 791q-78 0 -119.5 45t-41.5 112h49q0 -50 29 -81.5t83 -31.5q52 0 81.5 32t29.5 81h51q0 -65 -44.5 -111
t-117.5 -46z" />
    <glyph glyph-name="ubreve" unicode="&#x16d;" horiz-adv-x="707" 
d="M345 -12q-123 0 -193 72t-70 197v328h58v-329q0 -99 55.5 -157t153.5 -58q92 0 154.5 62t62.5 154v328h57v-585h-56v119q-30 -60 -88.5 -95.5t-133.5 -35.5zM355 643q-78 0 -119.5 45t-41.5 112h49q0 -50 29 -81.5t83 -31.5q52 0 81.5 32t29.5 81h51q0 -65 -44.5 -111
t-117.5 -46z" />
    <glyph glyph-name="Uring" unicode="&#x16e;" horiz-adv-x="641" 
d="M315 791q-41 0 -69.5 28.5t-28.5 70.5t28.5 71t69.5 29q43 0 72 -29t29 -71t-29 -70.5t-72 -28.5zM315 836q23 0 39.5 15.5t16.5 38.5t-16.5 39t-39.5 16q-22 0 -38 -16t-16 -39t16 -38.5t38 -15.5zM320 -10q-106 0 -177 71.5t-71 176.5v492h58v-495q0 -79 55 -134.5
t135 -55.5t135.5 55.5t55.5 135.5v494h58v-492q0 -105 -71.5 -176.5t-177.5 -71.5z" />
    <glyph glyph-name="uring" unicode="&#x16f;" horiz-adv-x="707" 
d="M345 -12q-123 0 -193 72t-70 197v328h58v-329q0 -99 55.5 -157t153.5 -58q92 0 154.5 62t62.5 154v328h57v-585h-56v119q-30 -60 -88.5 -95.5t-133.5 -35.5zM351 617q-41 0 -69.5 28.5t-28.5 70.5t28.5 71t69.5 29q43 0 72 -29t29 -71t-29 -70.5t-72 -28.5zM351 662
q23 0 39.5 15.5t16.5 38.5t-16.5 39t-39.5 16q-22 0 -38 -16t-16 -39t16 -38.5t38 -15.5z" />
    <glyph glyph-name="Uhungarumlaut" unicode="&#x170;" horiz-adv-x="641" 
d="M320 -10q-106 0 -177 71.5t-71 176.5v492h58v-495q0 -79 55 -134.5t135 -55.5t135.5 55.5t55.5 135.5v494h58v-492q0 -105 -71.5 -176.5t-177.5 -71.5zM217 795l119 155h71l-140 -155h-50zM338 795l120 155h71l-140 -155h-51z" />
    <glyph glyph-name="uhungarumlaut" unicode="&#x171;" horiz-adv-x="707" 
d="M345 -12q-123 0 -193 72t-70 197v328h58v-329q0 -99 55.5 -157t153.5 -58q92 0 154.5 62t62.5 154v328h57v-585h-56v119q-30 -60 -88.5 -95.5t-133.5 -35.5zM367 649l120 155h71l-140 -155h-51zM246 649l119 155h71l-140 -155h-50z" />
    <glyph glyph-name="Uogonek" unicode="&#x172;" horiz-adv-x="641" 
d="M322 -210q-57 0 -93 26.5t-36 68.5q0 60 79 110q-88 16 -144 83.5t-56 159.5v492h58v-495q0 -79 55 -134.5t135 -55.5t135.5 55.5t55.5 135.5v494h58v-492q0 -93 -57 -160.5t-147 -83.5q-65 -35 -89.5 -58.5t-24.5 -47.5t20 -37.5t51 -13.5q41 0 86 39l45 -31
q-61 -55 -131 -55z" />
    <glyph glyph-name="uogonek" unicode="&#x173;" horiz-adv-x="707" 
d="M600 -218q-55 0 -84 28.5t-29 72.5q0 64 80 130v106q-30 -60 -88.5 -95.5t-133.5 -35.5q-123 0 -193 72t-70 197v328h58v-329q0 -99 55.5 -157t153.5 -58q92 0 154.5 62t62.5 154v328h57v-585q-82 -66 -82 -115q0 -24 16 -39t43 -15q38 0 73 32l33 -40q-50 -41 -106 -41z
" />
    <glyph glyph-name="Wcircumflex" unicode="&#x174;" horiz-adv-x="1072" 
d="M257 0l-215 730h61l186 -641l218 641h55l216 -641l193 641h60l-223 -730h-59l-216 640l-217 -640h-59zM389 795l119 155h49l119 -155h-61l-83 110l-83 -110h-60z" />
    <glyph glyph-name="wcircumflex" unicode="&#x175;" horiz-adv-x="979" 
d="M235 0l-188 585h61l159 -501l199 501h49l193 -503l164 503h60l-194 -585h-54l-195 502l-200 -502h-54zM346 648l119 155h49l119 -155h-61l-83 110l-83 -110h-60z" />
    <glyph glyph-name="Ycircumflex" unicode="&#x176;" horiz-adv-x="612" 
d="M278 0v347l-245 383h65l208 -328l208 328h65l-243 -381v-349h-58zM161 795l119 155h49l119 -155h-61l-83 110l-83 -110h-60z" />
    <glyph glyph-name="ycircumflex" unicode="&#x177;" horiz-adv-x="654" 
d="M168 -270l137 303l-262 552h64l229 -487l214 487h62l-382 -855h-62zM188 651l119 155h49l119 -155h-61l-83 110l-83 -110h-60z" />
    <glyph glyph-name="Ydieresis" unicode="&#x178;" horiz-adv-x="612" 
d="M278 0v347l-245 383h65l208 -328l208 328h65l-243 -381v-349h-58zM346 880q0 19 12.5 31t31.5 12q20 0 31.5 -12t11.5 -31t-11.5 -31.5t-31.5 -12.5t-32 12.5t-12 31.5zM178 880q0 19 12.5 31t31.5 12q20 0 31.5 -12t11.5 -31t-11.5 -31.5t-31.5 -12.5t-32 12.5t-12 31.5
z" />
    <glyph glyph-name="Zacute" unicode="&#x179;" horiz-adv-x="600" 
d="M58 0v53l415 622h-399v55h467v-53l-415 -622h417v-55h-485zM267 795l119 155h75l-140 -155h-54z" />
    <glyph glyph-name="zacute" unicode="&#x17a;" horiz-adv-x="628" 
d="M57 0v54l439 479h-424v52h495v-54l-437 -478h441v-53h-514zM283 652l119 155h75l-140 -155h-54z" />
    <glyph glyph-name="Zdotaccent" unicode="&#x17b;" horiz-adv-x="600" 
d="M58 0v53l415 622h-399v55h467v-53l-415 -622h417v-55h-485zM256 880q0 21 14 34.5t35 13.5q23 0 36 -13.5t13 -34.5q0 -22 -13 -35.5t-36 -13.5t-36 13.5t-13 35.5z" />
    <glyph glyph-name="zdotaccent" unicode="&#x17c;" horiz-adv-x="628" 
d="M57 0v54l439 479h-424v52h495v-54l-437 -478h441v-53h-514zM274 698q0 21 14 34.5t35 13.5q23 0 36 -13.5t13 -34.5q0 -22 -13 -35.5t-36 -13.5t-36 13.5t-13 35.5z" />
    <glyph glyph-name="Zcaron" unicode="&#x17d;" horiz-adv-x="600" 
d="M58 0v53l415 622h-399v55h467v-53l-415 -622h417v-55h-485zM279 795l-117 155h59l81 -114l84 114h59l-118 -155h-48z" />
    <glyph glyph-name="zcaron" unicode="&#x17e;" horiz-adv-x="628" 
d="M57 0v54l439 479h-424v52h495v-54l-437 -478h441v-53h-514zM297 651l-117 155h59l81 -114l84 114h59l-118 -155h-48z" />
    <glyph glyph-name="uni018f" unicode="&#x18f;" horiz-adv-x="855" 
d="M426 -10q-84 0 -155.5 33.5t-118.5 87.5t-73 120.5t-26 134.5v15h691q-6 128 -96.5 216t-225.5 88q-85 0 -157.5 -45.5t-110.5 -112.5l-49 29q44 78 132 131t185 53q162 0 271.5 -109t109.5 -266q0 -156 -109 -265.5t-268 -109.5zM426 45q126 0 213.5 81t102.5 201h-627
q13 -111 97.5 -196.5t213.5 -85.5z" />
    <glyph glyph-name="florin" unicode="&#x192;" 
d="M122 352v51h159l43 141q31 105 75.5 145.5t121.5 40.5h4v-52q-58 0 -89 -29t-54 -111l-41 -135h148v-51h-164l-50 -166q-33 -109 -74 -147.5t-133 -38.5h-5v53q69 0 99.5 28t54.5 111l48 160h-143z" />
    <glyph glyph-name="Aringacute" unicode="&#x1fa;" horiz-adv-x="698" 
d="M37 0l268 697q-26 11 -42.5 36.5t-16.5 55.5q0 42 28.5 71t69.5 29q43 0 72 -29t29 -71q0 -61 -54 -88l270 -701h-61l-79 204h-345l-78 -204h-61zM349 653l-152 -394h303zM315 921l119 155h75l-140 -155h-54zM344 735q23 0 39.5 15.5t16.5 38.5t-16.5 39t-39.5 16
q-22 0 -38 -16t-16 -39t16 -38.5t38 -15.5z" />
    <glyph glyph-name="aringacute" unicode="&#x1fb;" horiz-adv-x="747" 
d="M361 -12q-128 0 -215 89t-87 215q0 106 62 187.5t162 107.5q-23 26 -23 64q0 42 28.5 71t69.5 29q43 0 72 -29t29 -71q0 -37 -24 -65q120 -32 171 -136v135h56v-585h-56v134q-33 -68 -101.5 -107t-143.5 -39zM363 41q105 0 177 73t72 178t-72 178.5t-177 73.5
q-103 0 -174.5 -73.5t-71.5 -178.5t71.5 -178t174.5 -73zM327 786l119 155h75l-140 -155h-54zM358 597h4q22 2 37 17.5t15 36.5q0 23 -16.5 39t-39.5 16q-22 0 -38 -16t-16 -39t16 -38.5t38 -15.5z" />
    <glyph glyph-name="AEacute" unicode="&#x1fc;" horiz-adv-x="1037" 
d="M31 0l370 730h561v-55h-485l63 -282h422v-54h-410l63 -284h347v-55h-393l-45 199h-327l-100 -199h-66zM424 647l-200 -395h288zM572 795l119 155h75l-140 -155h-54z" />
    <glyph glyph-name="aeacute" unicode="&#x1fd;" horiz-adv-x="1147" 
d="M789 -12q-90 0 -159.5 39t-108.5 108q-33 -60 -100.5 -103.5t-158.5 -43.5q-103 0 -152.5 44t-49.5 113q-1 41 15.5 72.5t49.5 51.5t69 32.5t86 22.5q13 3 45 9.5t45.5 10l38 10t35.5 13t24.5 16.5t19 22.5t5.5 27.5q0 53 -44.5 85t-131.5 32q-90 0 -141 -43.5
t-51 -114.5v-4h-54v2q0 93 67 150t178 57q186 0 223 -123q42 58 105.5 90.5t140.5 32.5q129 0 215 -84.5t86 -214.5v-20h-549q4 -102 75.5 -170t176.5 -68q87 0 148.5 46t85.5 123l52 -23q-30 -92 -106 -145t-180 -53zM785 545q-95 0 -162.5 -61t-82.5 -154h486
q-10 96 -76 155.5t-165 59.5zM264 37q85 0 145.5 46.5t86.5 106.5q-15 47 -15 100q0 30 4 53q-13 -16 -41.5 -27.5t-53.5 -17.5t-88 -18q-44 -8 -74 -17t-57 -24t-40 -38t-13 -55q0 -49 35.5 -79t110.5 -30zM526 643l119 155h75l-140 -155h-54z" />
    <glyph glyph-name="Oslashacute" unicode="&#x1fe;" horiz-adv-x="855" 
d="M120 0l62 82q-129 111 -129 283q0 155 110 265t265 110q112 0 203 -60l38 50h68l-63 -83q129 -111 129 -282q0 -155 -110 -265t-265 -110q-112 0 -203 59l-37 -49h-68zM112 365q0 -143 103 -238l383 508q-77 50 -170 50q-133 0 -224.5 -93.5t-91.5 -226.5zM428 45
q133 0 224 94t91 226q0 140 -103 237l-382 -508q77 -49 170 -49zM392 795l119 155h75l-140 -155h-54z" />
    <glyph glyph-name="oslashacute" unicode="&#x1ff;" horiz-adv-x="726" 
d="M363 -12q-87 0 -162 46l-25 -34h-63l47 64q-101 90 -101 228q0 128 89 216.5t215 88.5q86 0 161 -46l25 34h65l-49 -65q102 -89 102 -228q0 -128 -88.5 -216t-215.5 -88zM117 292q0 -109 77 -184l297 399q-56 37 -128 37q-104 0 -175 -73.5t-71 -178.5zM363 41
q103 0 174 73t71 178q0 107 -76 183l-298 -398q58 -36 129 -36zM332 661l119 155h75l-140 -155h-54z" />
    <glyph glyph-name="uni0218" unicode="&#x218;" horiz-adv-x="557" 
d="M253 -256h-40l43 204h55zM273 -10q-153 0 -243 120l48 37q71 -104 195 -104q75 0 125 42.5t50 111.5q0 29 -11.5 52.5t-25 38t-43.5 29.5t-48.5 21.5l-57.5 19.5q-37 12 -60.5 21t-54 26t-48 36t-30 48.5t-12.5 65.5q0 80 62.5 132.5t154.5 52.5q136 0 215 -100l-45 -35
q-60 84 -170 84q-67 0 -112.5 -37.5t-45.5 -96.5q0 -73 78 -113q26 -12 104 -39q49 -17 77.5 -29.5t63 -36.5t51 -58.5t16.5 -81.5q0 -87 -66 -147t-167 -60z" />
    <glyph glyph-name="uni0219" unicode="&#x219;" horiz-adv-x="542" 
d="M228 -282h-40l43 204h55zM267 -12q-73 0 -133.5 29.5t-96.5 79.5l45 36q31 -42 79.5 -68t106.5 -26q76 0 117.5 35.5t41.5 87.5q0 18 -5.5 33t-20.5 26.5t-26 19t-37 15.5t-38 11l-43 11q-45 11 -72 20.5t-58.5 27.5t-46.5 45.5t-15 66.5q0 66 56 113t145 47
q129 0 204 -85l-43 -35q-62 70 -161 70q-67 0 -105.5 -30.5t-38.5 -78.5q0 -21 10 -37.5t22.5 -27t39 -20.5t43 -15t50.5 -13q36 -9 58.5 -16t52 -20.5t46 -29.5t28.5 -41t12 -57q0 -69 -56.5 -121.5t-160.5 -52.5z" />
    <glyph glyph-name="uni0237" unicode="&#x237;" horiz-adv-x="226" 
d="M-70 -268v56q96 0 125.5 27.5t29.5 126.5v643h57v-644q0 -123 -42 -166t-161 -43h-9z" />
    <glyph glyph-name="uni0259" unicode="&#x259;" horiz-adv-x="726" 
d="M360 597q136 0 221.5 -92t85.5 -210q0 -130 -87 -218.5t-217 -88.5q-126 0 -215 89t-89 209v26h548q-6 93 -74 162.5t-173 69.5q-78 0 -138.5 -45t-87.5 -111l-51 27q36 79 109 130.5t168 51.5zM363 40q96 0 163.5 62t79.5 157h-486q9 -90 77 -154.5t166 -64.5z" />
    <glyph glyph-name="circumflex" unicode="&#x2c6;" horiz-adv-x="502" 
d="M108 565l119 155h49l119 -155h-61l-83 110l-83 -110h-60z" />
    <glyph glyph-name="caron" unicode="&#x2c7;" horiz-adv-x="502" 
d="M227 565l-117 155h59l81 -114l84 114h59l-118 -155h-48z" />
    <glyph glyph-name="breve" unicode="&#x2d8;" horiz-adv-x="502" 
d="M250 558q-78 0 -119.5 45t-41.5 112h49q0 -50 29 -81.5t83 -31.5q52 0 81.5 32t29.5 81h51q0 -65 -44.5 -111t-117.5 -46z" />
    <glyph glyph-name="dotaccent" unicode="&#x2d9;" horiz-adv-x="506" 
d="M194 650q0 21 14 34.5t35 13.5q23 0 36 -13.5t13 -34.5q0 -22 -13 -35.5t-36 -13.5t-36 13.5t-13 35.5z" />
    <glyph glyph-name="ring" unicode="&#x2da;" horiz-adv-x="502" 
d="M247 561q-41 0 -69.5 28.5t-28.5 70.5t28.5 71t69.5 29q43 0 72 -29t29 -71t-29 -70.5t-72 -28.5zM247 606q23 0 39.5 15.5t16.5 38.5t-16.5 39t-39.5 16q-22 0 -38 -16t-16 -39t16 -38.5t38 -15.5z" />
    <glyph glyph-name="ogonek" unicode="&#x2db;" horiz-adv-x="502" 
d="M244 -209q-57 0 -93 26.5t-36 68.5q0 76 134 139l46 -26q-72 -40 -97 -62.5t-25 -47.5q0 -24 20 -37.5t51 -13.5q41 0 86 39l45 -31q-61 -55 -131 -55z" />
    <glyph glyph-name="tilde" unicode="&#x2dc;" horiz-adv-x="502" 
d="M123 565h-47q0 50 25.5 79t67.5 29q35 0 86 -30q52 -31 72 -31q50 0 50 58h46q0 -51 -25 -80t-70 -29q-7 0 -14.5 1t-12.5 2t-13 4t-11.5 4t-11.5 6t-10 6t-11 6.5t-10 5.5q-4 2 -13 7.5t-13.5 8t-11.5 5.5t-13.5 4.5t-13.5 1.5q-21 0 -33.5 -15t-12.5 -43z" />
    <glyph glyph-name="hungarumlaut" unicode="&#x2dd;" horiz-adv-x="502" 
d="M93 565l119 155h71l-140 -155h-50zM214 565l120 155h71l-140 -155h-51z" />
    <glyph glyph-name="uni0328" unicode="&#x328;" horiz-adv-x="502" 
d="M274 -218q-55 0 -84 28.5t-29 72.5q0 66 93 141l43 -24q-82 -66 -82 -115q0 -24 16 -39t43 -15q38 0 73 32l33 -40q-50 -41 -106 -41z" />
    <glyph glyph-name="pi" unicode="&#x3c0;" horiz-adv-x="741" 
d="M43 674v56h656v-56h-143v-499q0 -62 22 -91.5t75 -29.5h41v-54h-45q-79 0 -115 44t-36 131v499h-266v-674h-58v674h-131z" />
    <glyph glyph-name="pi" unicode="&#x3d6;" horiz-adv-x="741" 
d="M43 674v56h656v-56h-143v-499q0 -62 22 -91.5t75 -29.5h41v-54h-45q-79 0 -115 44t-36 131v499h-266v-674h-58v674h-131z" />
    <glyph glyph-name="uni0E3F" unicode="&#xe3f;" horiz-adv-x="536" 
d="M66 67v596h175v67h51v-67h3q80 0 129.5 -43t49.5 -113q0 -95 -84 -132q93 -36 93 -142q0 -75 -50.5 -120.5t-132.5 -45.5h-8v-67h-51v67h-175zM123 347v-227h118v227h-118zM299 347h-7v-227h9q57 0 91 31.5t34 82.5q0 52 -33 82.5t-94 30.5zM123 611v-210h118v210h-118z
M295 611h-3v-210h10q53 0 84.5 30t31.5 76t-34 75t-89 29z" />
    <glyph glyph-name="Wgrave" unicode="&#x1e80;" horiz-adv-x="1072" 
d="M257 0l-215 730h61l186 -641l218 641h55l216 -641l193 641h60l-223 -730h-59l-216 640l-217 -640h-59zM505 795l-140 155h74l120 -155h-54z" />
    <glyph glyph-name="wgrave" unicode="&#x1e81;" horiz-adv-x="979" 
d="M235 0l-188 585h61l159 -501l199 501h49l193 -503l164 503h60l-194 -585h-54l-195 502l-200 -502h-54zM461 653l-140 155h74l120 -155h-54z" />
    <glyph glyph-name="Wacute" unicode="&#x1e82;" horiz-adv-x="1072" 
d="M257 0l-215 730h61l186 -641l218 641h55l216 -641l193 641h60l-223 -730h-59l-216 640l-217 -640h-59zM502 795l119 155h75l-140 -155h-54z" />
    <glyph glyph-name="wacute" unicode="&#x1e83;" horiz-adv-x="979" 
d="M235 0l-188 585h61l159 -501l199 501h49l193 -503l164 503h60l-194 -585h-54l-195 502l-200 -502h-54zM466 650l119 155h75l-140 -155h-54z" />
    <glyph glyph-name="Wdieresis" unicode="&#x1e84;" horiz-adv-x="1072" 
d="M257 0l-215 730h61l186 -641l218 641h55l216 -641l193 641h60l-223 -730h-59l-216 640l-217 -640h-59zM575 880q0 19 12.5 31t31.5 12q20 0 31.5 -12t11.5 -31t-11.5 -31.5t-31.5 -12.5t-32 12.5t-12 31.5zM407 880q0 19 12.5 31t31.5 12q20 0 31.5 -12t11.5 -31
t-11.5 -31.5t-31.5 -12.5t-32 12.5t-12 31.5z" />
    <glyph glyph-name="wdieresis" unicode="&#x1e85;" horiz-adv-x="979" 
d="M235 0l-188 585h61l159 -501l199 501h49l193 -503l164 503h60l-194 -585h-54l-195 502l-200 -502h-54zM530 701q0 19 12.5 31t31.5 12q20 0 31.5 -12t11.5 -31t-11.5 -31.5t-31.5 -12.5t-32 12.5t-12 31.5zM362 701q0 19 12.5 31t31.5 12q20 0 31.5 -12t11.5 -31
t-11.5 -31.5t-31.5 -12.5t-32 12.5t-12 31.5z" />
    <glyph glyph-name="Ygrave" unicode="&#x1ef2;" horiz-adv-x="612" 
d="M278 0v347l-245 383h65l208 -328l208 328h65l-243 -381v-349h-58zM279 795l-140 155h74l120 -155h-54z" />
    <glyph glyph-name="ygrave" unicode="&#x1ef3;" horiz-adv-x="654" 
d="M168 -270l137 303l-262 552h64l229 -487l214 487h62l-382 -855h-62zM302 633l-140 155h74l120 -155h-54z" />
    <glyph glyph-name="figuredash" unicode="&#x2012;" horiz-adv-x="676" 
d="M53 226v51h570v-51h-570z" />
    <glyph glyph-name="endash" unicode="&#x2013;" horiz-adv-x="526" 
d="M53 226v51h420v-51h-420z" />
    <glyph glyph-name="emdash" unicode="&#x2014;" horiz-adv-x="726" 
d="M53 226v51h620v-51h-620z" />
    <glyph glyph-name="uni2015" unicode="&#x2015;" horiz-adv-x="1026" 
d="M53 226v51h920v-51h-920z" />
    <glyph glyph-name="uni2016" unicode="&#x2016;" horiz-adv-x="350" 
d="M66 -230v960h58v-960h-58zM226 -230v960h58v-960h-58z" />
    <glyph glyph-name="quoteleft" unicode="&#x2018;" horiz-adv-x="189" 
d="M99 730l44 -204h-40l-61 204h57z" />
    <glyph glyph-name="quoteright" unicode="&#x2019;" horiz-adv-x="189" 
d="M83 526h-39l44 204h57z" />
    <glyph glyph-name="quotesinglbase" unicode="&#x201a;" horiz-adv-x="190" 
d="M73 -117h-40l44 204h57z" />
    <glyph glyph-name="quotereversed" unicode="&#x201b;" horiz-adv-x="189" 
d="M83 526h-39l44 204h57z" />
    <glyph glyph-name="quotedblleft" unicode="&#x201c;" horiz-adv-x="293" 
d="M99 730l44 -204h-38l-61 204h55zM204 730l44 -204h-39l-59 204h54z" />
    <glyph glyph-name="quotedblright" unicode="&#x201d;" horiz-adv-x="293" 
d="M83 526h-39l44 204h57zM189 526h-40l44 204h57z" />
    <glyph glyph-name="quotedblbase" unicode="&#x201e;" horiz-adv-x="295" 
d="M75 -117h-40l44 204h57zM180 -117h-40l45 204h57z" />
    <glyph glyph-name="uni201F" unicode="&#x201f;" horiz-adv-x="293" 
d="M83 526h-39l44 204h57zM189 526h-40l44 204h57z" />
    <glyph glyph-name="dagger" unicode="&#x2020;" horiz-adv-x="585" 
d="M66 449v51h196v230h58v-230h199v-51h-199v-449h-58v449h-196z" />
    <glyph glyph-name="daggerdbl" unicode="&#x2021;" horiz-adv-x="585" 
d="M66 468v51h196v211h58v-211h199v-51h-199v-199h199v-50h-199v-219h-58v219h-196v50h196v199h-196z" />
    <glyph glyph-name="bullet" unicode="&#x2022;" horiz-adv-x="305" 
d="M153 191q-25 0 -42.5 17.5t-17.5 42.5t17.5 42.5t42.5 17.5t42.5 -17.5t17.5 -42.5t-17.5 -42.5t-42.5 -17.5z" />
    <glyph glyph-name="ellipsis" unicode="&#x2026;" horiz-adv-x="459" 
d="M39 35q0 19 12 30.5t31 11.5q20 0 31.5 -11.5t11.5 -30.5t-11.5 -31t-31.5 -12t-31.5 12t-11.5 31zM186 35q0 19 12 30.5t31 11.5q20 0 31.5 -11.5t11.5 -30.5t-11.5 -31t-31.5 -12t-31.5 12t-11.5 31zM335 35q0 19 12 30.5t31 11.5q20 0 31.5 -11.5t11.5 -30.5
t-11.5 -31t-31.5 -12t-31.5 12t-11.5 31z" />
    <glyph glyph-name="perthousand" unicode="&#x2030;" horiz-adv-x="1272" 
d="M87 0l627 730h73l-627 -730h-73zM632 -11q-69 0 -117.5 49t-48.5 118t48.5 117.5t117.5 48.5t117.5 -48.5t48.5 -117.5t-48.5 -118t-117.5 -49zM632 38q48 0 82 34t34 84q0 49 -34 83t-82 34t-82 -34t-34 -83q0 -50 34 -84t82 -34zM242 407q-69 0 -117.5 49t-48.5 118
t48.5 117.5t117.5 48.5t117.5 -48.5t48.5 -117.5t-48.5 -118t-117.5 -49zM242 456q48 0 82 35t34 83q0 49 -34 83t-82 34t-82 -34t-34 -83q0 -48 34 -83t82 -35zM1030 -11q-69 0 -117.5 49t-48.5 118t48.5 117.5t117.5 48.5t118 -48.5t49 -117.5t-49 -118t-118 -49zM1030 38
q48 0 82 34t34 84q0 49 -34 83t-82 34q-47 0 -81 -34t-34 -83q0 -50 33.5 -84t81.5 -34z" />
    <glyph glyph-name="minute" unicode="&#x2032;" horiz-adv-x="189" 
d="M83 526h-39l44 204h57z" />
    <glyph glyph-name="second" unicode="&#x2033;" horiz-adv-x="293" 
d="M83 526h-39l44 204h57zM189 526h-40l44 204h57z" />
    <glyph glyph-name="uni2034" unicode="&#x2034;" horiz-adv-x="393" 
d="M100 500h-20q-1 5 -5.5 37t-7.5 61t-3 48v84h51v-84q0 -71 -15 -146zM207 500h-20q-1 5 -5.5 37t-7.5 61t-3 48v84h51v-84q0 -71 -15 -146zM314 500h-20q-1 5 -5.5 37t-7.5 61t-3 48v84h51v-84q0 -71 -15 -146z" />
    <glyph glyph-name="guilsinglleft" unicode="&#x2039;" horiz-adv-x="289" 
d="M220 112l-150 119v38l150 119v-48l-115 -91l115 -89v-48z" />
    <glyph glyph-name="guilsinglright" unicode="&#x203a;" horiz-adv-x="289" 
d="M70 112v48l114 90l-114 90v49l150 -119v-39z" />
    <glyph glyph-name="fraction" unicode="&#x2044;" horiz-adv-x="649" 
d="M28 0l527 730h68l-527 -730h-68z" />
    <glyph glyph-name="uni2070" unicode="&#x2070;" horiz-adv-x="497" 
d="M248 302q-90 0 -153 63.5t-63 153.5t63 153.5t153 63.5t153.5 -63.5t63.5 -153.5t-63.5 -153.5t-153.5 -63.5zM248 352q69 0 117 49t48 118t-48 118t-117 49q-68 0 -116 -49t-48 -118t48 -118t116 -49z" />
    <glyph glyph-name="uni2074" unicode="&#x2074;" horiz-adv-x="375" 
d="M229 308v97h-195v48l193 277h54v-277h61v-48h-61v-97h-52zM91 453h138v196z" />
    <glyph glyph-name="uni2075" unicode="&#x2075;" horiz-adv-x="353" 
d="M177 302q-49 0 -86 21.5t-56 58.5l48 28q29 -60 95 -60q39 0 65 26t26 67q0 43 -26.5 68t-65.5 25q-61 0 -92 -58l-47 21l31 231h229v-49h-187l-18 -132q36 34 88 34q60 0 100.5 -37t40.5 -103q0 -62 -41 -101.5t-104 -39.5z" />
    <glyph glyph-name="uni2076" unicode="&#x2076;" horiz-adv-x="362" 
d="M179 302q-64 0 -106.5 42t-42.5 103q0 59 32 104l121 179h61l-99 -145q24 8 43 8q58 0 98.5 -41.5t40.5 -103.5q0 -63 -42.5 -104.5t-105.5 -41.5zM178 350q40 0 69 29t29 70q0 40 -29.5 69t-68.5 29q-41 0 -69.5 -28.5t-28.5 -70.5t28.5 -70t69.5 -28z" />
    <glyph glyph-name="uni2077" unicode="&#x2077;" horiz-adv-x="327" 
d="M70 308l171 372h-207v50h262v-45l-170 -377h-56z" />
    <glyph glyph-name="uni2078" unicode="&#x2078;" horiz-adv-x="343" 
d="M171 302q-61 0 -97.5 36.5t-36.5 89.5q0 72 65 105q-49 30 -49 89q0 48 33 81t85 33t85.5 -33.5t33.5 -80.5q0 -57 -51 -88q66 -31 66 -106q0 -53 -36 -89.5t-98 -36.5zM171 350q37 0 59.5 22.5t22.5 55.5q0 34 -22 57t-60 23q-37 0 -59.5 -23.5t-22.5 -56.5t22.5 -55.5
t59.5 -22.5zM171 557q30 0 48.5 18.5t18.5 46.5t-18.5 47t-48.5 19q-29 0 -47 -19t-18 -47t18 -46.5t47 -18.5z" />
    <glyph glyph-name="uni2079" unicode="&#x2079;" horiz-adv-x="355" 
d="M111 308l99 149q-17 -7 -42 -7q-57 0 -97 41t-40 102t42 102t104 41q63 0 105 -41.5t42 -101.5q0 -52 -29 -98l-121 -187h-63zM178 496q40 0 68 28.5t28 68.5t-28 68t-68 28t-68 -28t-28 -69q0 -40 28 -68t68 -28z" />
    <glyph glyph-name="uni207A" unicode="&#x207a;" horiz-adv-x="284" 
d="M35 497v44h86v84h43v-84h84v-44h-84v-85h-43v85h-86z" />
    <glyph glyph-name="uni207B" unicode="&#x207b;" horiz-adv-x="284" 
d="M35 497v45h213v-45h-213z" />
    <glyph glyph-name="uni207C" unicode="&#x207c;" horiz-adv-x="284" 
d="M35 543v44h213v-44h-213zM35 448v44h213v-44h-213z" />
    <glyph glyph-name="uni207D" unicode="&#x207d;" horiz-adv-x="272" 
d="M227 277l-32 -44q-159 109 -159 290q0 180 156 290l33 -43q-135 -93 -135 -247q0 -152 137 -246z" />
    <glyph glyph-name="uni207E" unicode="&#x207e;" horiz-adv-x="273" 
d="M78 233l-33 44q137 94 137 246q0 154 -135 247l34 43q155 -113 155 -290q0 -179 -158 -290z" />
    <glyph glyph-name="uni2080" unicode="&#x2080;" horiz-adv-x="497" 
d="M248 -6q-90 0 -153 63.5t-63 153.5t63 153.5t153 63.5t153.5 -63.5t63.5 -153.5t-63.5 -153.5t-153.5 -63.5zM248 44q69 0 117 49t48 118t-48 118t-117 49q-68 0 -116 -49t-48 -118t48 -118t116 -49z" />
    <glyph glyph-name="uni2081" unicode="&#x2081;" horiz-adv-x="286" 
d="M37 0v49h84v285q-9 -15 -29.5 -25.5t-40.5 -10.5h-6v55h3q38 0 56 21t18 48h51v-373h81v-49h-217z" />
    <glyph glyph-name="uni2082" unicode="&#x2082;" horiz-adv-x="344" 
d="M39 0v50q0 25 9.5 46.5t30 42t35 32.5t43.5 32l38 27t28.5 23.5t24 29t6.5 29.5q0 31 -22 50.5t-60 19.5q-61 0 -93 -65l-45 23q42 88 138 88q62 0 98.5 -33t36.5 -83q0 -31 -18.5 -59.5t-39 -45t-55.5 -40.5q-27 -18 -39 -27t-30 -25.5t-25.5 -32t-7.5 -32.5h216v-50
h-269z" />
    <glyph glyph-name="uni2083" unicode="&#x2083;" horiz-adv-x="329" 
d="M158 -6q-86 0 -133 57l44 34q31 -43 89 -43q38 0 62.5 21t24.5 55q0 35 -25.5 55.5t-66.5 20.5h-42v48h42q40 0 62.5 19.5t22.5 52.5q0 31 -22.5 49.5t-59.5 18.5q-55 0 -83 -44l-44 25q19 29 52.5 47t74.5 18q61 0 96.5 -31t35.5 -83q0 -63 -57 -95q66 -31 66 -101
q0 -55 -37 -89.5t-102 -34.5z" />
    <glyph glyph-name="uni2084" unicode="&#x2084;" horiz-adv-x="375" 
d="M229 0v97h-195v48l193 277h54v-277h61v-48h-61v-97h-52zM91 145h138v196z" />
    <glyph glyph-name="uni2085" unicode="&#x2085;" horiz-adv-x="353" 
d="M177 -6q-49 0 -86 21.5t-56 58.5l48 28q29 -60 95 -60q39 0 65 26t26 67q0 43 -26.5 68t-65.5 25q-61 0 -92 -58l-47 21l31 231h229v-49h-187l-18 -132q36 34 88 34q60 0 100.5 -37t40.5 -103q0 -62 -41 -101.5t-104 -39.5z" />
    <glyph glyph-name="uni2086" unicode="&#x2086;" horiz-adv-x="365" 
d="M183 -6q-64 0 -106.5 42t-42.5 103q0 59 32 104l121 179h61l-99 -145q24 8 43 8q58 0 98.5 -41.5t40.5 -103.5q0 -63 -42.5 -104.5t-105.5 -41.5zM182 42q40 0 69 29t29 70q0 40 -29.5 69t-68.5 29q-41 0 -69.5 -28.5t-28.5 -70.5t28.5 -70t69.5 -28z" />
    <glyph glyph-name="uni2087" unicode="&#x2087;" horiz-adv-x="327" 
d="M70 0l171 372h-207v50h262v-45l-170 -377h-56z" />
    <glyph glyph-name="uni2088" unicode="&#x2088;" horiz-adv-x="343" 
d="M171 -6q-61 0 -97.5 36.5t-36.5 89.5q0 72 65 105q-49 30 -49 89q0 48 33 81t85 33t85.5 -33.5t33.5 -80.5q0 -57 -51 -88q66 -31 66 -106q0 -53 -36 -89.5t-98 -36.5zM171 42q37 0 59.5 22.5t22.5 55.5q0 34 -22 57t-60 23q-37 0 -59.5 -23.5t-22.5 -56.5t22.5 -55.5
t59.5 -22.5zM171 249q30 0 48.5 18.5t18.5 46.5t-18.5 47t-48.5 19q-29 0 -47 -19t-18 -47t18 -46.5t47 -18.5z" />
    <glyph glyph-name="uni2089" unicode="&#x2089;" horiz-adv-x="355" 
d="M111 0l99 149q-17 -7 -42 -7q-57 0 -97 41t-40 102t42 102t104 41q63 0 105 -41.5t42 -101.5q0 -52 -29 -98l-121 -187h-63zM178 188q40 0 68 28.5t28 68.5t-28 68t-68 28t-68 -28t-28 -69q0 -40 28 -68t68 -28z" />
    <glyph glyph-name="uni208A" unicode="&#x208a;" horiz-adv-x="284" 
d="M35 189v44h86v84h43v-84h84v-44h-84v-85h-43v85h-86z" />
    <glyph glyph-name="uni208B" unicode="&#x208b;" horiz-adv-x="284" 
d="M35 189v45h213v-45h-213z" />
    <glyph glyph-name="uni208C" unicode="&#x208c;" horiz-adv-x="284" 
d="M35 235v44h213v-44h-213zM35 140v44h213v-44h-213z" />
    <glyph glyph-name="uni208D" unicode="&#x208d;" horiz-adv-x="272" 
d="M227 -31l-32 -44q-159 109 -159 290q0 180 156 290l33 -43q-135 -93 -135 -247q0 -152 137 -246z" />
    <glyph glyph-name="uni208E" unicode="&#x208e;" horiz-adv-x="273" 
d="M78 -75l-33 44q137 94 137 246q0 154 -135 247l34 43q155 -113 155 -290q0 -179 -158 -290z" />
    <glyph glyph-name="colonmonetary" unicode="&#x20a1;" horiz-adv-x="797" 
d="M188 -120h-49l73 179q-74 52 -116 131.5t-42 174.5q0 155 110 265t265 110q27 0 60 -5l43 105h51l-48 -116q37 -11 67 -27l59 143h51l-69 -168q71 -51 108 -116l-49 -29q-32 54 -81 93l-235 -572q21 -3 43 -3q95 0 168 45t114 123l51 -26q-50 -91 -137 -144t-196 -53
q-33 0 -65 6l-47 -116h-50l52 126q-24 7 -68 28zM114 365q0 -157 120 -253l234 571q-20 3 -39 3q-133 0 -224 -94t-91 -227zM515 674l-242 -588q34 -19 67 -29l241 589q-30 17 -66 28z" />
    <glyph glyph-name="uni20A2" unicode="&#x20a2;" horiz-adv-x="797" 
d="M429 -10q-155 0 -265 110t-110 265t110 265t265 110q101 0 187 -50.5t135 -133.5l-49 -29q-42 73 -113.5 116t-159.5 43q-133 0 -224 -94t-91 -227q0 -122 78.5 -213t197.5 -105v351h56v-99q44 99 164 99h59v-53h-59q-163 0 -163 -186v-114q90 5 157.5 49.5t106.5 118.5
l51 -26q-50 -91 -137 -144t-196 -53z" />
    <glyph glyph-name="franc" unicode="&#x20a3;" horiz-adv-x="544" 
d="M66 0v730h413v-55h-355v-206h355v-53h-355v-107h355v-53h-355v-256h-58z" />
    <glyph glyph-name="lira" unicode="&#x20a4;" horiz-adv-x="697" 
d="M75 340v90h108q-22 56 -22 114q0 88 57.5 142t151.5 54q138 0 208 -106l-47 -36q-50 92 -161 92q-69 0 -110.5 -40t-41.5 -105q0 -57 25 -115h232v-90h-185q54 -100 54 -169q0 -37 -12 -68q77 -66 140 -66q58 0 85 31t27 109v18h58v-25q0 -96 -40 -138t-125 -42
q-49 0 -87 19t-79 53q-49 -72 -140 -72q-63 0 -94 28t-31 75q0 45 31 72.5t84 28.5q59 0 132 -58q3 15 3 32q0 32 -11.5 65.5t-20.5 49.5l-33 57h-156zM171 35q70 0 105 58q-62 55 -113 55q-32 0 -49 -15t-17 -41t19.5 -41.5t54.5 -15.5z" />
    <glyph glyph-name="uni20A6" unicode="&#x20a6;" horiz-adv-x="815" 
d="M31 411v46h81v273h61l200 -273h272v273h58v-273h80v-46h-80v-93h80v-45h-80v-273h-59l-201 273h-274v-273h-57v273h-81v45h81v93h-81zM169 411v-93h241l-68 93h-173zM407 411l68 -93h170v93h-238zM308 457l-139 189v-189h139zM508 273l137 -186v186h-137z" />
    <glyph glyph-name="peseta" unicode="&#x20a7;" horiz-adv-x="1266" 
d="M1013 0h-184q-110 0 -150.5 42t-40.5 150v257h-86q-12 -96 -84 -156t-181 -60h-163v-233h-58v730h221q114 0 187 -64.5t79 -165.5h85v119l58 31v-150h122v-51h-122v-256q0 -83 28 -111t112 -28h180q142 0 142 91q0 17 -8.5 30.5t-19 22t-32.5 16t-36.5 11.5t-42.5 10
l-49 12.5t-43.5 16t-40 24t-24 34.5t-10.5 50q0 58 48.5 98.5t126.5 40.5q114 0 179 -74l-42 -35q-52 60 -137 60q-56 0 -87.5 -25t-31.5 -64q0 -9 2 -16.5t5 -14t9.5 -12l11.5 -9.5t15 -8.5l16 -7t19 -6t19.5 -5.5t21.5 -5.5t21 -5.5q30 -7 49.5 -12.5t44.5 -16.5
t39.5 -24.5t25 -35t10.5 -49.5q0 -65 -49.5 -105t-154.5 -40zM284 677h-160v-390h160q96 0 153.5 55.5t57.5 139.5q0 86 -57 140.5t-154 54.5z" />
    <glyph glyph-name="uni20A8" unicode="&#x20a8;" horiz-adv-x="987" 
d="M729 -11q-94 0 -171.5 24.5t-136 72t-101.5 105t-80 134.5h44q81 0 134 53t53 124q0 75 -52 125t-134 50h-161v-677h-58v730h223q101 0 170.5 -67t69.5 -161q0 -84 -55.5 -147.5t-144.5 -75.5q137 -240 398 -240q75 0 114.5 29t39.5 72q0 9 -2.5 17t-5.5 14.5t-9.5 12.5
t-11.5 10t-15.5 8.5l-16.5 7t-19 6.5l-19.5 6t-21.5 5.5t-21 5.5q-34 9 -49.5 14t-42.5 17t-40 24.5t-23.5 34.5t-10.5 49q0 58 48.5 98.5t126.5 40.5q114 0 179 -74l-42 -35q-53 60 -137 60q-56 0 -87.5 -25t-31.5 -64q0 -17 9 -30.5t19 -21.5t33.5 -16.5t35.5 -12
t43 -11.5q37 -9 61.5 -17.5t52 -24t41.5 -40.5t14 -59q0 -63 -52.5 -107t-156.5 -44z" />
    <glyph glyph-name="uni20A9" unicode="&#x20a9;" horiz-adv-x="1091" 
d="M31 411v46h102l-81 273h62l79 -273h232l93 273h54l92 -273h236l82 273h59l-84 -273h102v-46h-116l-28 -93h144v-45h-158l-83 -273h-58l-92 273h-249l-92 -273h-59l-81 273h-156v45h143l-28 93h-115zM466 411l-31 -93h218l-32 93h-155zM679 411l32 -93h147l28 93h-207z
M206 411l27 -93h145l32 93h-204zM544 640l-62 -183h124zM726 273l63 -186l56 186h-119zM246 273l54 -184l63 184h-117z" />
    <glyph glyph-name="uni20AA" unicode="&#x20aa;" horiz-adv-x="671" 
d="M66 0v730h177q105 0 153.5 -52.5t48.5 -166.5v-304q0 -33 -12 -46t-45 -13v363q0 86 -33 125.5t-110 39.5h-121v-676h-58zM226 0v574q32 0 45 -13.5t13 -46.5v-460h123q74 0 107 39.5t33 125.5v511h58v-511q0 -113 -49 -166t-151 -53h-179z" />
    <glyph glyph-name="Euro" unicode="&#x20ac;" 
d="M31 457v47h67q0 104 64 170t164 66q108 0 172 -74l-40 -36q-45 57 -131 57q-80 0 -125 -49t-46 -134h283l-8 -47h-275v-184h245l-8 -47h-237v-3q0 -86 44 -133t125 -47q96 0 139 63l45 -37q-60 -79 -183 -79q-109 0 -168.5 61.5t-59.5 171.5v3h-67v47h67v184h-67z" />
    <glyph glyph-name="uni20AE" unicode="&#x20ae;" horiz-adv-x="624" 
d="M148 354v46l136 56v221h-229v53h514v-53h-228v-198l139 58v-47l-139 -57v-92l139 57v-47l-139 -57v-294h-57v270l-136 -55v47l136 55v92z" />
    <glyph glyph-name="uni20B1" unicode="&#x20b1;" horiz-adv-x="702" 
d="M31 529v45h81v156h220q93 0 158 -42t92 -114h88v-45h-75q4 -20 4 -47q0 -26 -4 -46h75v-46h-88q-27 -73 -92 -115t-158 -42h-163v-233h-57v390h-81v46h81v93h-81zM541 482q0 19 -5 47h-367v-93h367q5 25 5 46zM329 677h-160v-103h350q-25 48 -73.5 75.5t-116.5 27.5z
M169 287h160q68 0 116.5 27.5t73.5 75.5h-350v-103z" />
    <glyph glyph-name="uni2117" unicode="&#x2117;" horiz-adv-x="858" 
d="M429 -125q-155 0 -265 110t-110 265t110 265t265 110t265 -110t110 -265t-110 -265t-265 -110zM429 -74q134 0 226.5 94.5t92.5 229.5t-92.5 229.5t-226.5 94.5t-226.5 -94.5t-92.5 -229.5t92.5 -229.5t226.5 -94.5zM306 62v381h155q59 0 96.5 -36.5t37.5 -91.5
q0 -57 -35.5 -96.5t-96.5 -39.5h-103v-117h-54zM455 396h-95v-168h95q38 0 62 25.5t24 61.5q0 35 -24.5 58t-61.5 23z" />
    <glyph glyph-name="uni2120" unicode="&#x2120;" horiz-adv-x="653" 
d="M278 440v290h39l120 -159l123 159h37v-290h-44v217l-116 -148l-117 148v-217h-42zM128 435q-64 0 -98 45l38 28q26 -34 60 -34q23 0 37 13.5t14 34.5q0 17 -14.5 28t-34.5 17.5t-40.5 15t-35 27t-14.5 46.5q0 33 25 53.5t62 20.5q55 0 88 -39l-39 -25q-16 25 -50 25
q-20 0 -32.5 -10.5t-12.5 -25.5q0 -16 14.5 -26t35.5 -17t41.5 -15.5t35 -27t14.5 -47.5q0 -37 -26 -62t-68 -25z" />
    <glyph glyph-name="trademark" unicode="&#x2122;" horiz-adv-x="681" 
d="M306 440v290h40l119 -158l123 158h37v-290h-43v217l-117 -148l-117 149v-218h-42zM132 440v251h-95v39h232v-39h-94v-251h-43z" />
    <glyph glyph-name="onethird" unicode="&#x2153;" horiz-adv-x="823" 
d="M105 0l527 730h68l-527 -730h-68zM651 -6q-86 0 -133 57l44 34q31 -43 89 -43q38 0 62.5 21t24.5 55q0 35 -25.5 55.5t-66.5 20.5h-42v48h42q40 0 62.5 19.5t22.5 52.5q0 31 -22.5 49.5t-59.5 18.5q-55 0 -83 -44l-44 25q19 29 52.5 47t74.5 18q61 0 96.5 -31t35.5 -83
q0 -63 -57 -95q66 -31 66 -101q0 -55 -37 -89.5t-102 -34.5zM37 308v49h84v285q-9 -15 -29.5 -25.5t-40.5 -10.5h-6v55h3q38 0 56 21t18 48h51v-373h81v-49h-217z" />
    <glyph glyph-name="twothirds" unicode="&#x2154;" horiz-adv-x="838" 
d="M129 0l527 730h68l-527 -730h-68zM39 308v50q0 25 9.5 46.5t30 42t35 32.5t43.5 32l38 27t28.5 23.5t24 29t6.5 29.5q0 31 -22 50.5t-60 19.5q-61 0 -93 -65l-45 23q42 88 138 88q62 0 98.5 -33t36.5 -83q0 -31 -18.5 -59.5t-39 -45t-55.5 -40.5q-27 -18 -39 -27
t-30 -25.5t-25.5 -32t-7.5 -32.5h216v-50h-269zM666 -6q-86 0 -133 57l44 34q31 -43 89 -43q38 0 62.5 21t24.5 55q0 35 -25.5 55.5t-66.5 20.5h-42v48h42q40 0 62.5 19.5t22.5 52.5q0 31 -22.5 49.5t-59.5 18.5q-55 0 -83 -44l-44 25q19 29 52.5 47t74.5 18q61 0 96.5 -31
t35.5 -83q0 -63 -57 -95q66 -31 66 -101q0 -55 -37 -89.5t-102 -34.5z" />
    <glyph glyph-name="uni2155" unicode="&#x2155;" horiz-adv-x="836" 
d="M659 -6q-49 0 -86 21.5t-56 58.5l48 28q29 -60 95 -60q39 0 65 26t26 67q0 43 -26.5 68t-65.5 25q-61 0 -92 -58l-47 21l31 231h229v-49h-187l-18 -132q36 34 88 34q60 0 100.5 -37t40.5 -103q0 -62 -41 -101.5t-104 -39.5zM105 0l527 730h68l-527 -730h-68zM37 308v49
h84v285q-9 -15 -29.5 -25.5t-40.5 -10.5h-6v55h3q38 0 56 21t18 48h51v-373h81v-49h-217z" />
    <glyph glyph-name="uni2156" unicode="&#x2156;" horiz-adv-x="851" 
d="M674 -6q-49 0 -86 21.5t-56 58.5l48 28q29 -60 95 -60q39 0 65 26t26 67q0 43 -26.5 68t-65.5 25q-61 0 -92 -58l-47 21l31 231h229v-49h-187l-18 -132q36 34 88 34q60 0 100.5 -37t40.5 -103q0 -62 -41 -101.5t-104 -39.5zM125 0l527 730h68l-527 -730h-68zM39 308v50
q0 25 9.5 46.5t30 42t35 32.5t43.5 32l38 27t28.5 23.5t24 29t6.5 29.5q0 31 -22 50.5t-60 19.5q-61 0 -93 -65l-45 23q42 88 138 88q62 0 98.5 -33t36.5 -83q0 -31 -18.5 -59.5t-39 -45t-55.5 -40.5q-27 -18 -39 -27t-30 -25.5t-25.5 -32t-7.5 -32.5h216v-50h-269z" />
    <glyph glyph-name="uni2157" unicode="&#x2157;" horiz-adv-x="867" 
d="M690 -6q-49 0 -86 21.5t-56 58.5l48 28q29 -60 95 -60q39 0 65 26t26 67q0 43 -26.5 68t-65.5 25q-61 0 -92 -58l-47 21l31 231h229v-49h-187l-18 -132q36 34 88 34q60 0 100.5 -37t40.5 -103q0 -62 -41 -101.5t-104 -39.5zM136 0l527 730h68l-527 -730h-68zM158 302
q-86 0 -133 57l44 34q31 -43 89 -43q38 0 62.5 21t24.5 55q0 35 -25.5 55.5t-66.5 20.5h-42v48h42q40 0 62.5 19.5t22.5 52.5q0 31 -22.5 49.5t-59.5 18.5q-55 0 -83 -44l-44 25q19 29 52.5 47t74.5 18q61 0 96.5 -31t35.5 -83q0 -63 -57 -95q66 -31 66 -101
q0 -55 -37 -89.5t-102 -34.5z" />
    <glyph glyph-name="uni2158" unicode="&#x2158;" horiz-adv-x="850" 
d="M229 308v97h-195v48l193 277h54v-277h61v-48h-61v-97h-52zM673 -6q-49 0 -86 21.5t-56 58.5l48 28q29 -60 95 -60q39 0 65 26t26 67q0 43 -26.5 68t-65.5 25q-61 0 -92 -58l-47 21l31 231h229v-49h-187l-18 -132q36 34 88 34q60 0 100.5 -37t40.5 -103q0 -62 -41 -101.5
t-104 -39.5zM119 0l527 730h68l-527 -730h-68zM91 453h138v196z" />
    <glyph glyph-name="uni2159" unicode="&#x2159;" horiz-adv-x="787" 
d="M603 -6q-64 0 -106.5 42t-42.5 103q0 59 32 104l121 179h61l-99 -145q24 8 43 8q58 0 98.5 -41.5t40.5 -103.5q0 -63 -42.5 -104.5t-105.5 -41.5zM105 0l527 730h68l-527 -730h-68zM37 308v49h84v285q-9 -15 -29.5 -25.5t-40.5 -10.5h-6v55h3q38 0 56 21t18 48h51v-373
h81v-49h-217zM602 42q40 0 69 29t29 70q0 40 -29.5 69t-68.5 29q-41 0 -69.5 -28.5t-28.5 -70.5t28.5 -70t69.5 -28z" />
    <glyph glyph-name="uni215A" unicode="&#x215a;" horiz-adv-x="823" 
d="M640 -6q-64 0 -106.5 42t-42.5 103q0 59 32 104l121 179h61l-99 -145q24 8 43 8q58 0 98.5 -41.5t40.5 -103.5q0 -63 -42.5 -104.5t-105.5 -41.5zM177 302q-49 0 -86 21.5t-56 58.5l48 28q29 -60 95 -60q39 0 65 26t26 67q0 43 -26.5 68t-65.5 25q-61 0 -92 -58l-47 21
l31 231h229v-49h-187l-18 -132q36 34 88 34q60 0 100.5 -37t40.5 -103q0 -62 -41 -101.5t-104 -39.5zM142 0l527 730h68l-527 -730h-68zM639 42q40 0 69 29t29 70q0 40 -29.5 69t-68.5 29q-41 0 -69.5 -28.5t-28.5 -70.5t28.5 -70t69.5 -28z" />
    <glyph glyph-name="oneeighth" unicode="&#x215b;" horiz-adv-x="839" 
d="M666 -6q-61 0 -97.5 36.5t-36.5 89.5q0 72 65 105q-49 30 -49 89q0 48 33 81t85 33t85.5 -33.5t33.5 -80.5q0 -57 -51 -88q66 -31 66 -106q0 -53 -36 -89.5t-98 -36.5zM104 0l527 730h68l-527 -730h-68zM37 308v49h84v285q-9 -15 -29.5 -25.5t-40.5 -10.5h-6v55h3
q38 0 56 21t18 48h51v-373h81v-49h-217zM666 42q37 0 59.5 22.5t22.5 55.5q0 34 -22 57t-60 23q-37 0 -59.5 -23.5t-22.5 -56.5t22.5 -55.5t59.5 -22.5zM666 249q30 0 48.5 18.5t18.5 46.5t-18.5 47t-48.5 19q-29 0 -47 -19t-18 -47t18 -46.5t47 -18.5z" />
    <glyph glyph-name="threeeighths" unicode="&#x215c;" horiz-adv-x="870" 
d="M698 -6q-61 0 -97.5 36.5t-36.5 89.5q0 72 65 105q-49 30 -49 89q0 48 33 81t85 33t85.5 -33.5t33.5 -80.5q0 -57 -51 -88q66 -31 66 -106q0 -53 -36 -89.5t-98 -36.5zM136 0l527 730h68l-527 -730h-68zM158 302q-86 0 -133 57l44 34q31 -43 89 -43q38 0 62.5 21t24.5 55
q0 35 -25.5 55.5t-66.5 20.5h-42v48h42q40 0 62.5 19.5t22.5 52.5q0 31 -22.5 49.5t-59.5 18.5q-55 0 -83 -44l-44 25q19 29 52.5 47t74.5 18q61 0 96.5 -31t35.5 -83q0 -63 -57 -95q66 -31 66 -101q0 -55 -37 -89.5t-102 -34.5zM698 42q37 0 59.5 22.5t22.5 55.5
q0 34 -22 57t-60 23q-37 0 -59.5 -23.5t-22.5 -56.5t22.5 -55.5t59.5 -22.5zM698 249q30 0 48.5 18.5t18.5 46.5t-18.5 47t-48.5 19q-29 0 -47 -19t-18 -47t18 -46.5t47 -18.5z" />
    <glyph glyph-name="fiveeighths" unicode="&#x215d;" horiz-adv-x="876" 
d="M704 -6q-61 0 -97.5 36.5t-36.5 89.5q0 72 65 105q-49 30 -49 89q0 48 33 81t85 33t85.5 -33.5t33.5 -80.5q0 -57 -51 -88q66 -31 66 -106q0 -53 -36 -89.5t-98 -36.5zM177 302q-49 0 -86 21.5t-56 58.5l48 28q29 -60 95 -60q39 0 65 26t26 67q0 43 -26.5 68t-65.5 25
q-61 0 -92 -58l-47 21l31 231h229v-49h-187l-18 -132q36 34 88 34q60 0 100.5 -37t40.5 -103q0 -62 -41 -101.5t-104 -39.5zM142 0l527 730h68l-527 -730h-68zM704 42q37 0 59.5 22.5t22.5 55.5q0 34 -22 57t-60 23q-37 0 -59.5 -23.5t-22.5 -56.5t22.5 -55.5t59.5 -22.5z
M704 249q30 0 48.5 18.5t18.5 46.5t-18.5 47t-48.5 19q-29 0 -47 -19t-18 -47t18 -46.5t47 -18.5z" />
    <glyph glyph-name="seveneighths" unicode="&#x215e;" horiz-adv-x="792" 
d="M620 -6q-61 0 -97.5 36.5t-36.5 89.5q0 72 65 105q-49 30 -49 89q0 48 33 81t85 33t85.5 -33.5t33.5 -80.5q0 -57 -51 -88q66 -31 66 -106q0 -53 -36 -89.5t-98 -36.5zM58 0l527 730h68l-527 -730h-68zM91 308l171 372h-207v50h262v-45l-170 -377h-56zM620 42
q37 0 59.5 22.5t22.5 55.5q0 34 -22 57t-60 23q-37 0 -59.5 -23.5t-22.5 -56.5t22.5 -55.5t59.5 -22.5zM620 249q30 0 48.5 18.5t18.5 46.5t-18.5 47t-48.5 19q-29 0 -47 -19t-18 -47t18 -46.5t47 -18.5z" />
    <glyph glyph-name="uni215F" unicode="&#x215f;" horiz-adv-x="727" 
d="M105 0l527 730h68l-527 -730h-68zM37 308v49h84v285q-9 -15 -29.5 -25.5t-40.5 -10.5h-6v55h3q38 0 56 21t18 48h51v-373h81v-49h-217z" />
    <glyph glyph-name="arrowleft" unicode="&#x2190;" horiz-adv-x="896" 
d="M306 158l-48 -31q-29 65 -89.5 128t-119.5 94v35q59 31 119.5 94t89.5 128l48 -30q-24 -50 -72 -100.5t-94 -81.5h686v-55h-688q47 -31 95.5 -81t72.5 -100z" />
    <glyph glyph-name="arrowup" unicode="&#x2191;" horiz-adv-x="896" 
d="M412 0v670q-31 -46 -80.5 -92.5t-99.5 -70.5l-30 48q65 29 127.5 89t93.5 119h35q34 -60 96 -119.5t126 -88.5l-30 -48q-51 25 -101 72t-80 93v-672h-57z" />
    <glyph glyph-name="arrowright" unicode="&#x2192;" horiz-adv-x="896" 
d="M620 127l-47 30q22 50 70 100.5t96 81.5h-686v55h686q-47 31 -94 80.5t-72 100.5l49 31q30 -66 89.5 -129.5t118.5 -93.5v-34q-60 -31 -120 -93.5t-90 -128.5z" />
    <glyph glyph-name="arrowdown" unicode="&#x2193;" horiz-adv-x="896" 
d="M458 -33h-35q-31 59 -93.5 118.5t-128.5 89.5l30 48q50 -25 100 -71.5t80 -91.5v670h57v-674q32 47 81.5 95t99.5 72l31 -48q-66 -30 -128.5 -89.5t-93.5 -118.5z" />
    <glyph glyph-name="uni2196" unicode="&#x2196;" horiz-adv-x="896" 
d="M692 72l-485 485q13 -46 11 -119t-21 -126l-55 13q26 67 27.5 154.5t-19.5 148.5l25 26q62 -20 150.5 -18t154.5 27l12 -55q-52 -19 -126 -20.5t-120 9.5l486 -486z" />
    <glyph glyph-name="uni2197" unicode="&#x2197;" horiz-adv-x="896" 
d="M144 111l483 484q-46 -11 -119 -9t-125 21l13 55q67 -25 155 -27.5t149 18.5l25 -25q-21 -61 -18.5 -149t27.5 -155l-55 -13q-19 52 -20.5 127t9.5 120l-486 -486z" />
    <glyph glyph-name="uni2198" unicode="&#x2198;" horiz-adv-x="896" 
d="M724 104l-24 -26q-62 20 -150.5 18t-154.5 -27l-12 55q52 19 126 20.5t120 -9.5l-486 486l39 39l485 -486q-11 46 -9.5 120t20.5 126l55 -13q-25 -66 -27 -154.5t18 -148.5z" />
    <glyph glyph-name="uni2199" unicode="&#x2199;" horiz-adv-x="896" 
d="M492 125l-13 -55q-66 25 -155 27t-149 -18l-25 25q21 61 19 149.5t-28 154.5l55 13q37 -107 10 -248l486 487l39 -39l-484 -485q46 11 119.5 9.5t125.5 -20.5z" />
    <glyph glyph-name="partialdiff" unicode="&#x2202;" horiz-adv-x="611" 
d="M305 -7q-106 0 -179.5 72t-73.5 178q0 105 72.5 177.5t174.5 72.5q105 0 163 -71q-71 140 -305 308h88q161 -125 237.5 -243.5t76.5 -243.5q0 -105 -73.5 -177.5t-180.5 -72.5zM306 46q82 0 138.5 57.5t56.5 139.5q0 81 -57 138.5t-138 57.5q-80 0 -138 -57.5t-58 -138.5
t58 -139t138 -58z" />
    <glyph glyph-name="increment" unicode="&#x2206;" horiz-adv-x="897" 
d="M877 0h-857l429 742zM449 630l-331 -575h661z" />
    <glyph glyph-name="product" unicode="&#x220f;" horiz-adv-x="741" 
d="M43 674v56h656v-56h-132v-674h-58v674h-277v-674h-58v674h-131z" />
    <glyph glyph-name="summation" unicode="&#x2211;" horiz-adv-x="575" 
d="M43 0v59l268 320l-261 293v58h480v-55h-408l262 -297l-271 -323h417v-55h-487z" />
    <glyph glyph-name="minus" unicode="&#x2212;" horiz-adv-x="475" 
d="M53 341v50h370v-50h-370z" />
    <glyph glyph-name="radical" unicode="&#x221a;" horiz-adv-x="776" 
d="M311 0l-171 443h-95v57h137l165 -438l317 668h63l-350 -730h-66z" />
    <glyph glyph-name="infinity" unicode="&#x221e;" horiz-adv-x="940" 
d="M260 232q-63 0 -108 44.5t-45 107.5t45 107.5t108 44.5q51 0 101.5 -30.5t112.5 -85.5q64 56 113 86t100 30q63 0 108 -44.5t45 -107.5t-45 -107.5t-108 -44.5q-51 0 -100.5 30.5t-112.5 85.5q-62 -55 -112.5 -85.5t-101.5 -30.5zM261 283q38 0 78 25.5t97 74.5
q-57 49 -97 74.5t-78 25.5q-40 0 -70.5 -30t-30.5 -70t30.5 -70t70.5 -30zM687 285q41 0 70 30t29 70t-29.5 70t-69.5 30q-38 0 -77.5 -25.5t-96.5 -75.5q54 -48 95 -73.5t79 -25.5z" />
    <glyph glyph-name="integral" unicode="&#x222b;" horiz-adv-x="343" 
d="M-6 -204v53q81 0 104.5 24t23.5 106v569q0 108 37 145t143 37h5v-53q-82 0 -105 -23t-23 -107v-568q0 -108 -37.5 -145.5t-142.5 -37.5h-5z" />
    <glyph glyph-name="approxequal" unicode="&#x2248;" horiz-adv-x="467" 
d="M48 411v52q50 26 97 26q31 0 91 -19t86 -19q41 0 96 25v-52q-44 -25 -96 -25q-28 0 -90.5 19t-86.5 19q-43 0 -97 -26zM48 247v52q50 26 95 26q31 0 93.5 -18.5t87.5 -18.5q42 0 94 24v-52q-40 -23 -94 -23q-28 0 -92 18.5t-89 18.5q-39 0 -95 -27z" />
    <glyph glyph-name="notequal" unicode="&#x2260;" horiz-adv-x="475" 
d="M344 536l-33 -67h112v-50h-136l-54 -112h190v-49h-214l-32 -67h-53l32 67h-103v49h126l54 112h-180v50h204l33 67h54z" />
    <glyph glyph-name="equivalence" unicode="&#x2261;" horiz-adv-x="475" 
d="M53 338v49h370v-49h-370zM53 178v49h370v-49h-370zM53 499v50h370v-50h-370z" />
    <glyph glyph-name="lessequal" unicode="&#x2264;" horiz-adv-x="475" 
d="M422 273l-370 145v50l370 141v-52l-309 -114l309 -118v-52zM52 175v50h370v-50h-370z" />
    <glyph glyph-name="greaterequal" unicode="&#x2265;" horiz-adv-x="475" 
d="M52 273v52l310 118l-310 114v52l370 -141v-50zM52 175v50h370v-50h-370z" />
    <glyph glyph-name="uni22A0" unicode="&#x22a0;" horiz-adv-x="926" 
d="M100 0v730h726v-730h-726zM158 675v-620h610v620h-610zM295 154l-34 35l170 177l-169 175l34 34l169 -175l167 175l34 -35l-168 -174l169 -174l-34 -34l-168 173z" />
    <glyph glyph-name="house" unicode="&#x2302;" horiz-adv-x="874" 
d="M774 0h-674v427l337 323l337 -323v-427z" />
    <glyph glyph-name="filledbox" unicode="&#x25a0;" horiz-adv-x="926" 
d="M100 0v730h726v-730h-726z" />
    <glyph glyph-name="filledbox" unicode="&#xe740;" horiz-adv-x="926" 
d="M100 0v730h726v-730h-726z" />
    <glyph glyph-name="H22073" unicode="&#x25a1;" horiz-adv-x="926" 
d="M100 0v730h726v-730h-726zM158 675v-620h610v620h-610z" />
    <glyph glyph-name="H18543" unicode="&#x25aa;" horiz-adv-x="700" 
d="M100 0v500h500v-500h-500z" />
    <glyph glyph-name="H18551" unicode="&#x25ab;" horiz-adv-x="700" 
d="M100 0v500h500v-500h-500zM158 445v-390h384v390h-384z" />
    <glyph glyph-name="triagup" unicode="&#x25b2;" horiz-adv-x="897" 
d="M877 0h-857l429 742z" />
    <glyph glyph-name="triagrt" unicode="&#x25ba;" horiz-adv-x="897" 
d="M100 -57v857l742 -428z" />
    <glyph glyph-name="triagdn" unicode="&#x25bc;" horiz-adv-x="897" 
d="M20 730h857l-428 -742z" />
    <glyph glyph-name="triaglf" unicode="&#x25c4;" horiz-adv-x="897" 
d="M797 800v-857l-742 429z" />
    <glyph glyph-name="lozenge" unicode="&#x25ca;" horiz-adv-x="843" 
d="M415 -16l-382 382l380 380l382 -382zM106 366l309 -308l307 307l-309 308z" />
    <glyph glyph-name="circle" unicode="&#x25cb;" horiz-adv-x="927" 
d="M464 -10q-155 0 -265 110t-110 265t110 265t265 110t265 -110t110 -265t-110 -265t-265 -110zM464 45q133 0 224.5 94t91.5 226q0 133 -91.5 226.5t-224.5 93.5t-224.5 -93.5t-91.5 -226.5q0 -132 91.5 -226t224.5 -94z" />
    <glyph glyph-name="circle" unicode="&#x25ef;" horiz-adv-x="927" 
d="M464 -10q-155 0 -265 110t-110 265t110 265t265 110t265 -110t110 -265t-110 -265t-265 -110zM464 45q133 0 224.5 94t91.5 226q0 133 -91.5 226.5t-224.5 93.5t-224.5 -93.5t-91.5 -226.5q0 -132 91.5 -226t224.5 -94z" />
    <glyph glyph-name="uni25CE" unicode="&#x25ce;" horiz-adv-x="927" 
d="M464 -10q-155 0 -265 110t-110 265t110 265t265 110t265 -110t110 -265t-110 -265t-265 -110zM464 45q133 0 224.5 94t91.5 226q0 133 -91.5 226.5t-224.5 93.5t-224.5 -93.5t-91.5 -226.5q0 -132 91.5 -226t224.5 -94zM464 150q-89 0 -151 62t-62 152t62 152t151 62
q90 0 152 -62t62 -152t-62 -152t-152 -62zM464 204q66 0 112 46.5t46 113.5t-46 113.5t-112 46.5t-111 -46t-45 -114t45 -114t111 -46zM411 365q0 23 15 38.5t38 15.5t38.5 -15.5t15.5 -38.5t-15.5 -38t-38.5 -15t-38 15t-15 38z" />
    <glyph glyph-name="H18533" unicode="&#x25cf;" horiz-adv-x="927" 
d="M464 -10q-155 0 -265 110t-110 265t110 265t265 110t265 -110t110 -265t-110 -265t-265 -110z" />
    <glyph glyph-name="uni25E2" unicode="&#x25e2;" horiz-adv-x="897" 
d="M873 533l-606 -606l-222 828z" />
    <glyph glyph-name="uni25E3" unicode="&#x25e3;" horiz-adv-x="897" 
d="M632 -73l-606 606l828 222z" />
    <glyph glyph-name="uni25E4" unicode="&#x25e4;" horiz-adv-x="897" 
d="M857 -54l-828 222l606 606z" />
    <glyph glyph-name="uni25E5" unicode="&#x25e5;" horiz-adv-x="897" 
d="M872 163l-828 -221l223 828z" />
    <glyph glyph-name="uni2605" unicode="&#x2605;" horiz-adv-x="900" 
d="M562 303l72 -218l-187 135l-186 -135l72 219l-186 135l229 -1l72 218l71 -218l230 -1z" />
    <glyph glyph-name="uni2612" unicode="&#x2612;" horiz-adv-x="700" 
d="M100 0v500h500v-500h-500zM158 445v-390h384v390h-384zM243 386l105 -104l104 107l34 -34l-103 -106l106 -104l-34 -35l-106 104l-103 -106l-34 34l103 106l-106 104z" />
    <glyph glyph-name="sun" unicode="&#x263c;" horiz-adv-x="928" 
d="M287 365q0 71 51.5 122.5t122.5 51.5t122.5 -51.5t51.5 -122.5t-51.5 -122.5t-122.5 -51.5t-122.5 51.5t-51.5 122.5zM451 577l-17 142h54l-17 -142h-20zM471 155l17 -142h-54l17 142h20zM250 356l-142 -17v54l142 -17v-20zM672 376l142 17v-54l-142 17v20zM273 464
l-133 55l28 47l115 -87zM649 268l133 -55l-28 -47l-115 87zM348 544l-87 115l47 28l55 -133zM574 188l87 -115l-47 -28l-55 133zM559 554l55 133l47 -28l-87 -115zM363 178l-55 -133l-47 28l87 115zM639 480l113 86l30 -46l-133 -56zM283 252l-113 -86l-30 46l133 56z" />
    <glyph glyph-name="uni263E" unicode="&#x263e;" horiz-adv-x="787" 
d="M534 616q-99 0 -169 -73.5t-70 -177.5t70 -177.5t169 -73.5q32 0 71 12q-81 -57 -178 -57q-122 0 -209 87t-87 209t87 209t209 87q97 0 178 -57q-39 12 -71 12z" />
    <glyph glyph-name="spade" unicode="&#x2660;" horiz-adv-x="920" 
d="M594 0h-259q66 124 84 204q10 45 10 86q-20 -58 -63.5 -97t-106.5 -39q-70 0 -120.5 47t-50.5 111q0 83 52 151t183 172l140 112h1l140 -112q128 -102 178 -170.5t50 -152.5q0 -64 -46.5 -110.5t-110.5 -46.5q-68 0 -114.5 38.5t-66.5 96.5q0 -29 6 -61t13 -55.5
t21.5 -56t21 -45.5t22.5 -42t16 -30z" />
    <glyph glyph-name="club" unicode="&#x2663;" horiz-adv-x="920" 
d="M595 0h-259q1 2 11.5 21.5t15.5 29.5l15 31.5t16.5 38t13.5 38.5t12 44.5t7 44.5q-22 -53 -66.5 -85.5t-100.5 -32.5q-74 0 -125.5 52t-51.5 125t51.5 125t125.5 52q19 0 42 -7q-19 39 -19 87q0 72 51.5 124t123.5 52t124 -52t52 -124q0 -46 -19 -88q24 8 46 8
q74 0 125 -51.5t51 -125.5q0 -73 -51.5 -125t-125.5 -52q-56 0 -99 32t-64 85q4 -30 12 -60t22 -61l22 -48t24.5 -47t17.5 -31z" />
    <glyph glyph-name="heart" unicode="&#x2665;" horiz-adv-x="920" 
d="M89 550q0 79 53 134.5t130 55.5q75 0 126 -45.5t59 -115.5q10 71 59.5 116t125.5 45q77 0 133 -56t56 -134q0 -85 -53 -177t-179 -233l-142 -157l-141 157q-125 139 -176 231.5t-51 178.5z" />
    <glyph glyph-name="diamond" unicode="&#x2666;" horiz-adv-x="920" 
d="M133 390l327 401l327 -401l-327 -400z" />
    <glyph glyph-name="uni267B" unicode="&#x267b;" horiz-adv-x="921" 
d="M821 246l1 -2l-91 -157q-13 -19 -19.5 -27.5t-23 -16.5t-39.5 -8h-54v-47l-106 128l106 127v-46h136q35 0 66 25q13 10 24 24zM184 111h-2l-90 158q-10 20 -14 30.5t-3 28.5t13 37l27 46l-40 23l164 29l55 -156l-38 23q-20 -32 -33 -57q-33 -56 -35 -61q-18 -29 -12 -68
q1 -15 8 -33zM389 728v1h182q18 -1 26 -1.5t20.5 -4.5t21.5 -13.5t18 -24.5l26 -46l41 23l-58 -157l-162 30l38 22l-67 118q-19 30 -54 45q-19 7 -32 8zM197 558l63 112q11 18 32 29q42 21 91.5 9t63.5 -42l-109 -189zM429 35h-127q-22 0 -42 12q-40 23 -54 74t5 76h218
v-162zM767 491l65 -110q9 -13 9 -41q0 -45 -36.5 -81.5t-68.5 -36.5l-109 189z" />
    <glyph glyph-name="uni267C" unicode="&#x267c;" horiz-adv-x="921" 
d="M837 366q0 -156 -110 -265.5t-265 -109.5q-157 0 -267 109.5t-110 265.5t110 266.5t267 110.5q155 0 265 -110.5t110 -266.5zM304 606l-49 -86l109 -63l84 146q-13 23 -50.5 33t-69.5 -7q-19 -12 -24 -23zM399 652v-1q8 -1 26 -7q26 -9 41 -34l53 -91l-30 -18l126 -23
l44 122l-31 -18l-21 36q-13 22 -27.5 28t-39.5 6h-141zM332 114h99v126h-170q-14 -20 -3 -59t42 -58q14 -9 32 -9zM243 173h1q-5 12 -6 25q-5 29 9 54l53 91l30 -18l-43 121l-127 -22l31 -18l-21 -36q-9 -15 -10 -29.5t2 -21.5t11 -24zM746 383l-49 85l-110 -63l85 -147
q26 0 54 28.5t28 64.5q0 18 -8 32zM739 276l-1 1q-31 -37 -70 -37h-105v35l-83 -98l83 -99v36h41q27 0 39.5 9.5t24.5 30.5z" />
    <glyph glyph-name="uni267D" unicode="&#x267d;" horiz-adv-x="921" 
d="M837 366q0 -156 -110 -265.5t-265 -109.5q-157 0 -267 109.5t-110 265.5t110 266.5t267 110.5q155 0 265 -110.5t110 -266.5zM818 366q0 149 -104 253.5t-252 104.5q-149 0 -254 -104.5t-105 -253.5q0 -148 105 -252.5t254 -104.5q148 0 252 104.5t104 252.5zM255 520
l49 86q5 11 24 23q32 17 69.5 7t50.5 -33l-84 -146zM399 651v1h141q25 0 39.5 -6t27.5 -28l21 -36l31 18l-44 -122l-126 23l30 18l-53 91q-14 23 -41 34q-18 6 -26 7zM431 114h-99q-18 0 -32 9q-31 19 -42 58t3 59h170v-126zM244 173h-1l-70 122q-8 17 -11 24t-2 21.5
t10 29.5l21 36l-31 18l127 22l43 -121l-30 18l-53 -91q-14 -25 -9 -54q1 -13 6 -25zM697 468l49 -85q8 -14 8 -32q0 -36 -28 -64.5t-54 -28.5l-85 147zM738 277l1 -1l-71 -122q-12 -21 -24.5 -30.5t-39.5 -9.5h-41v-36l-83 99l83 98v-35h105q25 0 52 19q10 7 18 18z" />
    <glyph glyph-name="uni26AA" unicode="&#x26aa;" horiz-adv-x="698" 
d="M349 -10q-108 0 -183.5 75t-75.5 185t75.5 185t183.5 75q109 0 184.5 -75t75.5 -185t-75.5 -185t-184.5 -75zM349 42q85 0 143.5 61t58.5 147t-58.5 147t-143.5 61t-143.5 -61t-58.5 -147t58.5 -147t143.5 -61z" />
    <glyph glyph-name="uni26AB" unicode="&#x26ab;" horiz-adv-x="698" 
d="M349 -10q-108 0 -183.5 76t-75.5 184t75.5 184t183.5 76t183.5 -76t75.5 -184t-75.5 -184t-183.5 -76z" />
    <glyph glyph-name="uni3008" unicode="&#x3008;" horiz-adv-x="360" 
d="M265 -230l-228 480l228 480h62l-228 -480l228 -480h-62z" />
    <glyph glyph-name="uni3009" unicode="&#x3009;" horiz-adv-x="360" 
d="M96 -230h-62l228 480l-228 480h62l228 -480z" />
    <glyph glyph-name="uniE141" unicode="&#xe141;" horiz-adv-x="596" 
d="M482 0l-152 272h-197v-272h-58v730h228q101 0 170.5 -67t69.5 -161q0 -73 -44.5 -132.5t-115.5 -81.5l164 -288h-65zM299 677h-166v-352h165q81 0 134 53t53 124q0 75 -52 125t-134 50z" />
    <glyph glyph-name="uniE142" unicode="&#xe142;" horiz-adv-x="596" 
d="M482 0l-152 272h-197v-272h-58v730h228q101 0 170.5 -67t69.5 -161q0 -73 -44.5 -132.5t-115.5 -81.5l164 -288h-65zM299 677h-166v-352h165q81 0 134 53t53 124q0 75 -52 125t-134 50zM238 795l119 155h75l-140 -155h-54z" />
    <glyph glyph-name="uniE143" unicode="&#xe143;" horiz-adv-x="596" 
d="M482 0l-152 272h-197v-272h-58v730h228q101 0 170.5 -67t69.5 -161q0 -73 -44.5 -132.5t-115.5 -81.5l164 -288h-65zM299 677h-166v-352h165q81 0 134 53t53 124q0 75 -52 125t-134 50zM284 795l-117 155h59l81 -114l84 114h59l-118 -155h-48z" />
    <glyph glyph-name="uniE146" unicode="&#xe146;" horiz-adv-x="596" 
d="M482 0l-152 272h-197v-272h-58v730h228q101 0 170.5 -67t69.5 -161q0 -73 -44.5 -132.5t-115.5 -81.5l164 -288h-65zM299 677h-166v-352h165q81 0 134 53t53 124q0 75 -52 125t-134 50zM286 -281h-40l43 204h55z" />
    <glyph glyph-name="uniE181" unicode="&#xe181;" horiz-adv-x="405" 
d="M210 435q-62 0 -106 44t-44 106q0 63 44 107t106 44q44 0 79.5 -22t54.5 -58l-39 -22q-29 59 -95 59q-45 0 -75.5 -31.5t-30.5 -76.5t30.5 -76t75.5 -31q69 0 97 62l40 -20q-19 -39 -55 -62t-82 -23z" />
    <glyph glyph-name="uniE200" unicode="&#xe200;" horiz-adv-x="524" 
d="M72 0v596h184q97 0 157 -58t60 -146t-60 -146t-158 -58h-127v-188h-56zM252 543h-124v-302h124q74 0 118.5 43t44.5 108q0 66 -44.5 108.5t-118.5 42.5z" />
    <glyph glyph-name="uniE200" unicode="&#xf770;" horiz-adv-x="524" 
d="M72 0v596h184q97 0 157 -58t60 -146t-60 -146t-158 -58h-127v-188h-56zM252 543h-124v-302h124q74 0 118.5 43t44.5 108q0 66 -44.5 108.5t-118.5 42.5z" />
    <glyph glyph-name="uniE201" unicode="&#xe201;" horiz-adv-x="576" 
d="M32 0l226 596h60l226 -596h-58l-58 153h-279l-58 -153h-59zM288 521l-118 -313h237z" />
    <glyph glyph-name="uniE201" unicode="&#xf761;" horiz-adv-x="576" 
d="M32 0l226 596h60l226 -596h-58l-58 153h-279l-58 -153h-59zM288 521l-118 -313h237z" />
    <glyph glyph-name="uniE202" unicode="&#xe202;" horiz-adv-x="538" 
d="M72 0v596h222q80 0 129.5 -43.5t49.5 -112.5q0 -93 -81 -130q46 -17 71.5 -55t25.5 -89q0 -75 -50.5 -120.5t-132.5 -45.5h-234zM305 280h-176v-228h178q56 0 90.5 32t34.5 83q0 52 -33 82.5t-94 30.5zM294 544h-165v-210h172q54 0 85 29.5t31 76.5q0 46 -34 75t-89 29z
" />
    <glyph glyph-name="uniE202" unicode="&#xf762;" horiz-adv-x="538" 
d="M72 0v596h222q80 0 129.5 -43.5t49.5 -112.5q0 -93 -81 -130q46 -17 71.5 -55t25.5 -89q0 -75 -50.5 -120.5t-132.5 -45.5h-234zM305 280h-176v-228h178q56 0 90.5 32t34.5 83q0 52 -33 82.5t-94 30.5zM294 544h-165v-210h172q54 0 85 29.5t31 76.5q0 46 -34 75t-89 29z
" />
    <glyph glyph-name="uniE203" unicode="&#xe203;" horiz-adv-x="661" 
d="M357 -9q-130 0 -218.5 90t-88.5 217q0 128 89.5 217t215.5 89q85 0 157 -43t111 -114l-51 -26q-32 59 -89 94.5t-127 35.5q-105 0 -176.5 -74t-71.5 -179t72.5 -179t174.5 -74q76 0 133 37.5t89 102.5l53 -24q-41 -79 -112 -124.5t-161 -45.5z" />
    <glyph glyph-name="uniE203" unicode="&#xf763;" horiz-adv-x="661" 
d="M357 -9q-130 0 -218.5 90t-88.5 217q0 128 89.5 217t215.5 89q85 0 157 -43t111 -114l-51 -26q-32 59 -89 94.5t-127 35.5q-105 0 -176.5 -74t-71.5 -179t72.5 -179t174.5 -74q76 0 133 37.5t89 102.5l53 -24q-41 -79 -112 -124.5t-161 -45.5z" />
    <glyph glyph-name="uniE204" unicode="&#xe204;" horiz-adv-x="598" 
d="M72 0v596h167q135 0 222 -85.5t87 -212.5q0 -128 -88 -213t-219 -85h-169zM234 543h-105v-489h107q110 0 181.5 69.5t71.5 174.5q0 107 -70 176t-185 69z" />
    <glyph glyph-name="uniE204" unicode="&#xf764;" horiz-adv-x="598" 
d="M72 0v596h167q135 0 222 -85.5t87 -212.5q0 -128 -88 -213t-219 -85h-169zM234 543h-105v-489h107q110 0 181.5 69.5t71.5 174.5q0 107 -70 176t-185 69z" />
    <glyph glyph-name="uniE205" unicode="&#xe205;" horiz-adv-x="492" 
d="M73 0v596h362v-53h-306v-218h306v-53h-306v-218h306v-54h-362z" />
    <glyph glyph-name="uniE205" unicode="&#xf765;" horiz-adv-x="492" 
d="M73 0v596h362v-53h-306v-218h306v-53h-306v-218h306v-54h-362z" />
    <glyph glyph-name="uniE206" unicode="&#xe206;" horiz-adv-x="460" 
d="M72 0v596h337v-53h-280v-218h280v-53h-280v-272h-57z" />
    <glyph glyph-name="uniE206" unicode="&#xf766;" horiz-adv-x="460" 
d="M72 0v596h337v-53h-280v-218h280v-53h-280v-272h-57z" />
    <glyph glyph-name="uniE207" unicode="&#xe207;" horiz-adv-x="706" 
d="M358 -9q-130 0 -219 90t-89 217t89.5 216.5t218.5 89.5q88 0 157 -40t108 -110l-50 -29q-33 59 -88.5 92.5t-126.5 33.5q-106 0 -178 -74t-72 -179q0 -104 71 -178.5t179 -74.5q101 0 164.5 61t76.5 155h-248v54h307v-18q0 -128 -83 -217t-217 -89z" />
    <glyph glyph-name="uniE207" unicode="&#xf767;" horiz-adv-x="706" 
d="M358 -9q-130 0 -219 90t-89 217t89.5 216.5t218.5 89.5q88 0 157 -40t108 -110l-50 -29q-33 59 -88.5 92.5t-126.5 33.5q-106 0 -178 -74t-72 -179q0 -104 71 -178.5t179 -74.5q101 0 164.5 61t76.5 155h-248v54h307v-18q0 -128 -83 -217t-217 -89z" />
    <glyph glyph-name="uniE208" unicode="&#xe208;" horiz-adv-x="586" 
d="M457 0v272h-328v-272h-57v596h57v-270h328v270h57v-596h-57z" />
    <glyph glyph-name="uniE208" unicode="&#xf768;" horiz-adv-x="586" 
d="M457 0v272h-328v-272h-57v596h57v-270h328v270h57v-596h-57z" />
    <glyph glyph-name="uniE209" unicode="&#xe209;" horiz-adv-x="213" 
d="M77 0v596h58v-596h-58z" />
    <glyph glyph-name="uniE209" unicode="&#xf769;" horiz-adv-x="213" 
d="M77 0v596h58v-596h-58z" />
    <glyph glyph-name="uniE20A" unicode="&#xe20a;" horiz-adv-x="408" 
d="M184 -9q-56 0 -97 25.5t-59 69.5l53 27q32 -68 102 -68q46 0 72.5 30t26.5 80v441h57v-438q0 -78 -41 -122.5t-114 -44.5z" />
    <glyph glyph-name="uniE20A" unicode="&#xf76a;" horiz-adv-x="408" 
d="M184 -9q-56 0 -97 25.5t-59 69.5l53 27q32 -68 102 -68q46 0 72.5 30t26.5 80v441h57v-438q0 -78 -41 -122.5t-114 -44.5z" />
    <glyph glyph-name="uniE20B" unicode="&#xe20b;" horiz-adv-x="554" 
d="M456 0l-207 319l-120 -135v-184h-56v596h56v-339l304 339h71l-214 -237l231 -359h-65z" />
    <glyph glyph-name="uniE20B" unicode="&#xf76b;" horiz-adv-x="554" 
d="M456 0l-207 319l-120 -135v-184h-56v596h56v-339l304 339h71l-214 -237l231 -359h-65z" />
    <glyph glyph-name="uniE20C" unicode="&#xe20c;" horiz-adv-x="451" 
d="M72 0v596h57v-542h274v-54h-331z" />
    <glyph glyph-name="uniE20C" unicode="&#xf76c;" horiz-adv-x="451" 
d="M72 0v596h57v-542h274v-54h-331z" />
    <glyph glyph-name="uniE20D" unicode="&#xe20d;" horiz-adv-x="729" 
d="M72 0v596h56l236 -327l238 327h54v-596h-56v498l-236 -323l-235 326v-501h-57z" />
    <glyph glyph-name="uniE20D" unicode="&#xf76d;" horiz-adv-x="729" 
d="M72 0v596h56l236 -327l238 327h54v-596h-56v498l-236 -323l-235 326v-501h-57z" />
    <glyph glyph-name="uniE20E" unicode="&#xe20e;" horiz-adv-x="630" 
d="M72 0v596h63l366 -507v507h57v-596h-61l-368 509v-509h-57z" />
    <glyph glyph-name="uniE20E" unicode="&#xf76e;" horiz-adv-x="630" 
d="M72 0v596h63l366 -507v507h57v-596h-61l-368 509v-509h-57z" />
    <glyph glyph-name="uniE20F" unicode="&#xe20f;" horiz-adv-x="711" 
d="M355 -9q-127 0 -216 90t-89 217t89 216.5t216 89.5t216.5 -89.5t89.5 -216.5t-89.5 -217t-216.5 -90zM355 45q104 0 175.5 74t71.5 179t-71.5 179t-175.5 74t-175.5 -74t-71.5 -179t71.5 -179t175.5 -74z" />
    <glyph glyph-name="uniE20F" unicode="&#xf76f;" horiz-adv-x="711" 
d="M355 -9q-127 0 -216 90t-89 217t89 216.5t216 89.5t216.5 -89.5t89.5 -216.5t-89.5 -217t-216.5 -90zM355 45q104 0 175.5 74t71.5 179t-71.5 179t-175.5 74t-175.5 -74t-71.5 -179t71.5 -179t175.5 -74z" />
    <glyph glyph-name="uniE211" unicode="&#xe211;" horiz-adv-x="711" 
d="M355 -9q-127 0 -216 90t-89 217t89 216.5t216 89.5t216.5 -89.5t89.5 -216.5q0 -120 -85 -212l72 -86h-72l-211 254h71l104 -125q62 72 62 169q0 105 -71.5 179t-175.5 74t-175.5 -74t-71.5 -179t71.5 -179t175.5 -74q62 0 117 30l34 -43q-72 -41 -151 -41z" />
    <glyph glyph-name="uniE211" unicode="&#xf771;" horiz-adv-x="711" 
d="M355 -9q-127 0 -216 90t-89 217t89 216.5t216 89.5t216.5 -89.5t89.5 -216.5q0 -120 -85 -212l72 -86h-72l-211 254h71l104 -125q62 72 62 169q0 105 -71.5 179t-175.5 74t-175.5 -74t-71.5 -179t71.5 -179t175.5 -74q62 0 117 30l34 -43q-72 -41 -151 -41z" />
    <glyph glyph-name="uniE212" unicode="&#xe212;" horiz-adv-x="505" 
d="M72 0v596h184q85 0 142 -55t57 -134q0 -65 -40.5 -116t-107.5 -64l154 -227h-68l-179 270h35q65 0 106 41.5t41 95.5q0 61 -38 98.5t-105 37.5h-123v-543h-58z" />
    <glyph glyph-name="uniE212" unicode="&#xf772;" horiz-adv-x="505" 
d="M72 0v596h184q85 0 142 -55t57 -134q0 -65 -40.5 -116t-107.5 -64l154 -227h-68l-179 270h35q65 0 106 41.5t41 95.5q0 61 -38 98.5t-105 37.5h-123v-543h-58z" />
    <glyph glyph-name="uniE213" unicode="&#xe213;" horiz-adv-x="471" 
d="M231 -9q-123 0 -201 97l49 39q57 -83 151 -83q58 0 96 34t38 85q0 27 -11 47.5t-35.5 35t-45 23t-56.5 19.5q-34 12 -50.5 18.5t-43 21t-39.5 29t-23.5 39t-10.5 54.5q0 67 52 110.5t128 43.5q114 0 179 -81l-46 -35q-45 66 -133 66q-52 0 -86.5 -29t-34.5 -74
q0 -24 9 -41.5t30.5 -30.5t37.5 -20t50 -19q11 -4 17 -6q38 -12 63 -23.5t52.5 -31t41.5 -48.5t14 -68q0 -71 -54 -121.5t-138 -50.5z" />
    <glyph glyph-name="uniE213" unicode="&#xf773;" horiz-adv-x="471" 
d="M231 -9q-123 0 -201 97l49 39q57 -83 151 -83q58 0 96 34t38 85q0 27 -11 47.5t-35.5 35t-45 23t-56.5 19.5q-34 12 -50.5 18.5t-43 21t-39.5 29t-23.5 39t-10.5 54.5q0 67 52 110.5t128 43.5q114 0 179 -81l-46 -35q-45 66 -133 66q-52 0 -86.5 -29t-34.5 -74
q0 -24 9 -41.5t30.5 -30.5t37.5 -20t50 -19q11 -4 17 -6q38 -12 63 -23.5t52.5 -31t41.5 -48.5t14 -68q0 -71 -54 -121.5t-138 -50.5z" />
    <glyph glyph-name="uniE214" unicode="&#xe214;" horiz-adv-x="512" 
d="M228 0v542h-183v54h422v-54h-182v-542h-57z" />
    <glyph glyph-name="uniE214" unicode="&#xf774;" horiz-adv-x="512" 
d="M228 0v542h-183v54h422v-54h-182v-542h-57z" />
    <glyph glyph-name="uniE215" unicode="&#xe215;" horiz-adv-x="545" 
d="M272 -9q-88 0 -145.5 55.5t-57.5 145.5v404h57v-406q0 -64 41.5 -104.5t105.5 -40.5t105 40.5t41 105.5v405h57v-403q0 -90 -57.5 -146t-146.5 -56z" />
    <glyph glyph-name="uniE215" unicode="&#xf775;" horiz-adv-x="545" 
d="M272 -9q-88 0 -145.5 55.5t-57.5 145.5v404h57v-406q0 -64 41.5 -104.5t105.5 -40.5t105 40.5t41 105.5v405h57v-403q0 -90 -57.5 -146t-146.5 -56z" />
    <glyph glyph-name="uniE216" unicode="&#xe216;" horiz-adv-x="562" 
d="M251 0l-219 596h60l188 -516l189 516h61l-221 -596h-58z" />
    <glyph glyph-name="uniE216" unicode="&#xf776;" horiz-adv-x="562" 
d="M251 0l-219 596h60l188 -516l189 516h61l-221 -596h-58z" />
    <glyph glyph-name="uniE217" unicode="&#xe217;" horiz-adv-x="876" 
d="M207 0l-173 596h61l144 -507l168 507h55l168 -513l153 513h58l-181 -596h-58l-167 507l-169 -507h-59z" />
    <glyph glyph-name="uniE217" unicode="&#xf777;" horiz-adv-x="876" 
d="M207 0l-173 596h61l144 -507l168 507h55l168 -513l153 513h58l-181 -596h-58l-167 507l-169 -507h-59z" />
    <glyph glyph-name="uniE218" unicode="&#xe218;" horiz-adv-x="537" 
d="M443 0l-173 259l-173 -259h-67l208 305l-194 291h63l164 -245l159 245h67l-194 -290l204 -306h-64z" />
    <glyph glyph-name="uniE218" unicode="&#xf778;" horiz-adv-x="537" 
d="M443 0l-173 259l-173 -259h-67l208 305l-194 291h63l164 -245l159 245h67l-194 -290l204 -306h-64z" />
    <glyph glyph-name="uniE219" unicode="&#xe219;" horiz-adv-x="522" 
d="M233 0v282l-199 314h63l163 -259l164 259h64l-199 -314v-282h-56z" />
    <glyph glyph-name="uniE219" unicode="&#xf779;" horiz-adv-x="522" 
d="M233 0v282l-199 314h63l163 -259l164 259h64l-199 -314v-282h-56z" />
    <glyph glyph-name="uniE21A" unicode="&#xe21a;" horiz-adv-x="496" 
d="M50 0v53l328 489h-318v54h385v-52l-328 -489h328v-55h-395z" />
    <glyph glyph-name="uniE21A" unicode="&#xf77a;" horiz-adv-x="496" 
d="M50 0v53l328 489h-318v54h385v-52l-328 -489h328v-55h-395z" />
    <glyph glyph-name="uniE220" unicode="&#xe220;" horiz-adv-x="576" 
d="M32 0l226 596h60l226 -596h-58l-198 521l-197 -521h-59z" />
    <glyph glyph-name="uniE221" unicode="&#xe221;" horiz-adv-x="576" 
d="M32 0l226 596h60l226 -596h-58l-58 153h-279l-58 -153h-59zM288 521l-118 -313h237zM259 661l119 155h75l-140 -155h-54z" />
    <glyph glyph-name="uniE221" unicode="&#xf7e1;" horiz-adv-x="576" 
d="M32 0l226 596h60l226 -596h-58l-58 153h-279l-58 -153h-59zM288 521l-118 -313h237zM259 661l119 155h75l-140 -155h-54z" />
    <glyph glyph-name="uniE222" unicode="&#xe222;" horiz-adv-x="576" 
d="M32 0l226 596h60l226 -596h-58l-58 153h-279l-58 -153h-59zM288 521l-118 -313h237zM259 661l-140 155h74l120 -155h-54z" />
    <glyph glyph-name="uniE222" unicode="&#xf7e0;" horiz-adv-x="576" 
d="M32 0l226 596h60l226 -596h-58l-58 153h-279l-58 -153h-59zM288 521l-118 -313h237zM259 661l-140 155h74l120 -155h-54z" />
    <glyph glyph-name="uniE223" unicode="&#xe223;" horiz-adv-x="576" 
d="M32 0l226 596h60l226 -596h-58l-58 153h-279l-58 -153h-59zM288 521l-118 -313h237zM143 653l119 155h49l119 -155h-61l-83 110l-83 -110h-60z" />
    <glyph glyph-name="uniE223" unicode="&#xf7e2;" horiz-adv-x="576" 
d="M32 0l226 596h60l226 -596h-58l-58 153h-279l-58 -153h-59zM288 521l-118 -313h237zM143 653l119 155h49l119 -155h-61l-83 110l-83 -110h-60z" />
    <glyph glyph-name="uniE224" unicode="&#xe224;" horiz-adv-x="576" 
d="M32 0l226 596h60l226 -596h-58l-58 153h-279l-58 -153h-59zM288 521l-118 -313h237zM328 746q0 19 12.5 31t31.5 12q20 0 31.5 -12t11.5 -31t-11.5 -31.5t-31.5 -12.5t-32 12.5t-12 31.5zM160 746q0 19 12.5 31t31.5 12q20 0 31.5 -12t11.5 -31t-11.5 -31.5t-31.5 -12.5
t-32 12.5t-12 31.5z" />
    <glyph glyph-name="uniE224" unicode="&#xf7e4;" horiz-adv-x="576" 
d="M32 0l226 596h60l226 -596h-58l-58 153h-279l-58 -153h-59zM288 521l-118 -313h237zM328 746q0 19 12.5 31t31.5 12q20 0 31.5 -12t11.5 -31t-11.5 -31.5t-31.5 -12.5t-32 12.5t-12 31.5zM160 746q0 19 12.5 31t31.5 12q20 0 31.5 -12t11.5 -31t-11.5 -31.5t-31.5 -12.5
t-32 12.5t-12 31.5z" />
    <glyph glyph-name="uniE225" unicode="&#xe225;" horiz-adv-x="576" 
d="M32 0l226 596h60l226 -596h-58l-58 153h-279l-58 -153h-59zM288 521l-118 -313h237zM162 661h-47q0 50 25.5 79t67.5 29q35 0 86 -30q52 -31 72 -31q50 0 50 58h46q0 -51 -25 -80t-70 -29q-7 0 -14.5 1t-12.5 2t-13 4t-11.5 4t-11.5 6t-10 6t-11 6.5t-10 5.5
q-4 2 -13 7.5t-13.5 8t-11.5 5.5t-13.5 4.5t-13.5 1.5q-21 0 -33.5 -15t-12.5 -43z" />
    <glyph glyph-name="uniE225" unicode="&#xf7e3;" horiz-adv-x="576" 
d="M32 0l226 596h60l226 -596h-58l-58 153h-279l-58 -153h-59zM288 521l-118 -313h237zM162 661h-47q0 50 25.5 79t67.5 29q35 0 86 -30q52 -31 72 -31q50 0 50 58h46q0 -51 -25 -80t-70 -29q-7 0 -14.5 1t-12.5 2t-13 4t-11.5 4t-11.5 6t-10 6t-11 6.5t-10 5.5
q-4 2 -13 7.5t-13.5 8t-11.5 5.5t-13.5 4.5t-13.5 1.5q-21 0 -33.5 -15t-12.5 -43z" />
    <glyph glyph-name="uniE226" unicode="&#xe226;" horiz-adv-x="576" 
d="M32 0l214 564q-27 11 -43 36t-16 55q0 42 28.5 71t69.5 29q43 0 72 -29t29 -71q0 -64 -57 -90l215 -565h-58l-58 153h-279l-58 -153h-59zM288 521l-118 -313h237zM285 601q23 0 39.5 15.5t16.5 38.5t-16.5 39t-39.5 16q-22 0 -38 -16t-16 -39t16 -38.5t38 -15.5z" />
    <glyph glyph-name="uniE226" unicode="&#xf7e5;" horiz-adv-x="576" 
d="M32 0l214 564q-27 11 -43 36t-16 55q0 42 28.5 71t69.5 29q43 0 72 -29t29 -71q0 -64 -57 -90l215 -565h-58l-58 153h-279l-58 -153h-59zM288 521l-118 -313h237zM285 601q23 0 39.5 15.5t16.5 38.5t-16.5 39t-39.5 16q-22 0 -38 -16t-16 -39t16 -38.5t38 -15.5z" />
    <glyph glyph-name="uniE228" unicode="&#xe228;" horiz-adv-x="576" 
d="M32 0l226 596h60l226 -596h-58l-58 153h-279l-58 -153h-59zM288 521l-118 -313h237zM154 661v50h264v-50h-264z" />
    <glyph glyph-name="uniE228" unicode="&#xf641;" horiz-adv-x="576" 
d="M32 0l226 596h60l226 -596h-58l-58 153h-279l-58 -153h-59zM288 521l-118 -313h237zM154 661v50h264v-50h-264z" />
    <glyph glyph-name="uniE229" unicode="&#xe229;" horiz-adv-x="576" 
d="M32 0l226 596h60l226 -596h-58l-58 153h-279l-58 -153h-59zM288 521l-118 -313h237zM286 654q-78 0 -119.5 45t-41.5 112h49q0 -50 29 -81.5t83 -31.5q52 0 81.5 32t29.5 81h51q0 -65 -44.5 -111t-117.5 -46z" />
    <glyph glyph-name="uniE229" unicode="&#xf640;" horiz-adv-x="576" 
d="M32 0l226 596h60l226 -596h-58l-58 153h-279l-58 -153h-59zM288 521l-118 -313h237zM286 654q-78 0 -119.5 45t-41.5 112h49q0 -50 29 -81.5t83 -31.5q52 0 81.5 32t29.5 81h51q0 -65 -44.5 -111t-117.5 -46z" />
    <glyph glyph-name="uniE22D" unicode="&#xe22d;" horiz-adv-x="576" 
d="M32 0l214 564q-27 11 -43 36t-16 55q0 42 28.5 71t69.5 29q43 0 72 -29t29 -71q0 -64 -57 -90l215 -565h-58l-58 153h-279l-58 -153h-59zM288 521l-118 -313h237zM257 795l119 155h75l-140 -155h-54zM285 601q23 0 39.5 15.5t16.5 38.5t-16.5 39t-39.5 16q-22 0 -38 -16
t-16 -39t16 -38.5t38 -15.5z" />
    <glyph glyph-name="uniE22D" unicode="&#xf625;" horiz-adv-x="576" 
d="M32 0l214 564q-27 11 -43 36t-16 55q0 42 28.5 71t69.5 29q43 0 72 -29t29 -71q0 -64 -57 -90l215 -565h-58l-58 153h-279l-58 -153h-59zM288 521l-118 -313h237zM257 795l119 155h75l-140 -155h-54zM285 601q23 0 39.5 15.5t16.5 38.5t-16.5 39t-39.5 16q-22 0 -38 -16
t-16 -39t16 -38.5t38 -15.5z" />
    <glyph glyph-name="uniE22F" unicode="&#xe22f;" horiz-adv-x="576" 
d="M32 0l226 596h60l226 -596q-72 -40 -97 -62.5t-25 -47.5q0 -24 20 -37.5t51 -13.5q41 0 86 39l45 -31q-61 -55 -131 -55q-57 0 -93 26.5t-36 68.5q0 73 115 130l-51 136h-279l-58 -153h-59zM288 521l-118 -313h237z" />
    <glyph glyph-name="uniE22F" unicode="&#xf642;" horiz-adv-x="576" 
d="M32 0l226 596h60l226 -596q-72 -40 -97 -62.5t-25 -47.5q0 -24 20 -37.5t51 -13.5q41 0 86 39l45 -31q-61 -55 -131 -55q-57 0 -93 26.5t-36 68.5q0 73 115 130l-51 136h-279l-58 -153h-59zM288 521l-118 -313h237z" />
    <glyph glyph-name="uniE230" unicode="&#xe230;" horiz-adv-x="492" 
d="M73 0v596h362v-53h-306v-218h306v-53h-306v-218h306v-54h-362zM301 746q0 19 12.5 31t31.5 12q20 0 31.5 -12t11.5 -31t-11.5 -31.5t-31.5 -12.5t-32 12.5t-12 31.5zM133 746q0 19 12.5 31t31.5 12q20 0 31.5 -12t11.5 -31t-11.5 -31.5t-31.5 -12.5t-32 12.5t-12 31.5z
" />
    <glyph glyph-name="uniE230" unicode="&#xf7eb;" horiz-adv-x="492" 
d="M73 0v596h362v-53h-306v-218h306v-53h-306v-218h306v-54h-362zM301 746q0 19 12.5 31t31.5 12q20 0 31.5 -12t11.5 -31t-11.5 -31.5t-31.5 -12.5t-32 12.5t-12 31.5zM133 746q0 19 12.5 31t31.5 12q20 0 31.5 -12t11.5 -31t-11.5 -31.5t-31.5 -12.5t-32 12.5t-12 31.5z
" />
    <glyph glyph-name="uniE231" unicode="&#xe231;" horiz-adv-x="873" 
d="M34 0l302 596h480v-54h-405l44 -216h361v-54h-350l45 -217h305v-55h-352l-32 153h-258l-77 -153h-63zM357 516l-156 -310h220z" />
    <glyph glyph-name="uniE231" unicode="&#xf7e6;" horiz-adv-x="873" 
d="M34 0l302 596h480v-54h-405l44 -216h361v-54h-350l45 -217h305v-55h-352l-32 153h-258l-77 -153h-63zM357 516l-156 -310h220z" />
    <glyph glyph-name="uniE232" unicode="&#xe232;" horiz-adv-x="877" 
d="M34 0l302 596h480v-54h-405l44 -216h361v-54h-350l45 -217h305v-55h-352l-32 153h-258l-77 -153h-63zM357 516l-156 -310h220zM489 661l119 155h75l-140 -155h-54z" />
    <glyph glyph-name="uniE232" unicode="&#xf624;" horiz-adv-x="877" 
d="M34 0l302 596h480v-54h-405l44 -216h361v-54h-350l45 -217h305v-55h-352l-32 153h-258l-77 -153h-63zM357 516l-156 -310h220zM489 661l119 155h75l-140 -155h-54z" />
    <glyph glyph-name="uniE234" unicode="&#xe234;" horiz-adv-x="661" 
d="M326 661l119 155h75l-140 -155h-54zM357 -9q-130 0 -218.5 90t-88.5 217q0 128 89.5 217t215.5 89q85 0 157 -43t111 -114l-51 -26q-32 59 -89 94.5t-127 35.5q-105 0 -176.5 -74t-71.5 -179t72.5 -179t174.5 -74q76 0 133 37.5t89 102.5l53 -24q-41 -79 -112 -124.5
t-161 -45.5z" />
    <glyph glyph-name="uniE234" unicode="&#xf643;" horiz-adv-x="661" 
d="M326 661l119 155h75l-140 -155h-54zM357 -9q-130 0 -218.5 90t-88.5 217q0 128 89.5 217t215.5 89q85 0 157 -43t111 -114l-51 -26q-32 59 -89 94.5t-127 35.5q-105 0 -176.5 -74t-71.5 -179t72.5 -179t174.5 -74q76 0 133 37.5t89 102.5l53 -24q-41 -79 -112 -124.5
t-161 -45.5z" />
    <glyph glyph-name="uniE235" unicode="&#xe235;" horiz-adv-x="661" 
d="M357 -9q-130 0 -218.5 90t-88.5 217q0 128 89.5 217t215.5 89q85 0 157 -43t111 -114l-51 -26q-32 59 -89 94.5t-127 35.5q-105 0 -176.5 -74t-71.5 -179t72.5 -179t174.5 -74q76 0 133 37.5t89 102.5l53 -24q-41 -79 -112 -124.5t-161 -45.5zM216 658l119 155h49
l119 -155h-61l-83 110l-83 -110h-60z" />
    <glyph glyph-name="uniE235" unicode="&#xf628;" horiz-adv-x="661" 
d="M357 -9q-130 0 -218.5 90t-88.5 217q0 128 89.5 217t215.5 89q85 0 157 -43t111 -114l-51 -26q-32 59 -89 94.5t-127 35.5q-105 0 -176.5 -74t-71.5 -179t72.5 -179t174.5 -74q76 0 133 37.5t89 102.5l53 -24q-41 -79 -112 -124.5t-161 -45.5zM216 658l119 155h49
l119 -155h-61l-83 110l-83 -110h-60z" />
    <glyph glyph-name="uniE236" unicode="&#xe236;" horiz-adv-x="661" 
d="M357 -9q-130 0 -218.5 90t-88.5 217q0 128 89.5 217t215.5 89q85 0 157 -43t111 -114l-51 -26q-32 59 -89 94.5t-127 35.5q-105 0 -176.5 -74t-71.5 -179t72.5 -179t174.5 -74q76 0 133 37.5t89 102.5l53 -24q-41 -79 -112 -124.5t-161 -45.5zM335 661l-117 155h59
l81 -114l84 114h59l-118 -155h-48z" />
    <glyph glyph-name="uniE236" unicode="&#xf644;" horiz-adv-x="661" 
d="M357 -9q-130 0 -218.5 90t-88.5 217q0 128 89.5 217t215.5 89q85 0 157 -43t111 -114l-51 -26q-32 59 -89 94.5t-127 35.5q-105 0 -176.5 -74t-71.5 -179t72.5 -179t174.5 -74q76 0 133 37.5t89 102.5l53 -24q-41 -79 -112 -124.5t-161 -45.5zM335 661l-117 155h59
l81 -114l84 114h59l-118 -155h-48z" />
    <glyph glyph-name="uniE237" unicode="&#xe237;" horiz-adv-x="661" 
d="M357 -9q-130 0 -218.5 90t-88.5 217q0 128 89.5 217t215.5 89q85 0 157 -43t111 -114l-51 -26q-32 59 -89 94.5t-127 35.5q-105 0 -176.5 -74t-71.5 -179t72.5 -179t174.5 -74q76 0 133 37.5t89 102.5l53 -24q-41 -79 -112 -124.5t-161 -45.5zM311 746q0 21 14 34.5
t35 13.5q23 0 36 -13.5t13 -34.5q0 -22 -13 -35.5t-36 -13.5t-36 13.5t-13 35.5z" />
    <glyph glyph-name="uniE237" unicode="&#xf629;" horiz-adv-x="661" 
d="M357 -9q-130 0 -218.5 90t-88.5 217q0 128 89.5 217t215.5 89q85 0 157 -43t111 -114l-51 -26q-32 59 -89 94.5t-127 35.5q-105 0 -176.5 -74t-71.5 -179t72.5 -179t174.5 -74q76 0 133 37.5t89 102.5l53 -24q-41 -79 -112 -124.5t-161 -45.5zM311 746q0 21 14 34.5
t35 13.5q23 0 36 -13.5t13 -34.5q0 -22 -13 -35.5t-36 -13.5t-36 13.5t-13 35.5z" />
    <glyph glyph-name="uniE238" unicode="&#xe238;" horiz-adv-x="661" 
d="M353 -229q-83 0 -139 53l46 28q23 -20 43 -29t50 -9q35 0 57.5 14t22.5 36q0 20 -22 32t-61 12h-33v86q-116 14 -191.5 100.5t-75.5 203.5q0 128 89.5 217t215.5 89q85 0 157 -43t111 -114l-51 -26q-32 59 -89 94.5t-127 35.5q-105 0 -176.5 -74t-71.5 -179t72.5 -179
t174.5 -74q76 0 133 37.5t89 102.5l53 -24q-40 -77 -108.5 -122t-155.5 -48v-46q54 -1 87.5 -22.5t33.5 -56.5q0 -42 -38.5 -68.5t-95.5 -26.5z" />
    <glyph glyph-name="uniE238" unicode="&#xf7e7;" horiz-adv-x="661" 
d="M353 -229q-83 0 -139 53l46 28q23 -20 43 -29t50 -9q35 0 57.5 14t22.5 36q0 20 -22 32t-61 12h-33v86q-116 14 -191.5 100.5t-75.5 203.5q0 128 89.5 217t215.5 89q85 0 157 -43t111 -114l-51 -26q-32 59 -89 94.5t-127 35.5q-105 0 -176.5 -74t-71.5 -179t72.5 -179
t174.5 -74q76 0 133 37.5t89 102.5l53 -24q-40 -77 -108.5 -122t-155.5 -48v-46q54 -1 87.5 -22.5t33.5 -56.5q0 -42 -38.5 -68.5t-95.5 -26.5z" />
    <glyph glyph-name="uniE239" unicode="&#xe239;" horiz-adv-x="598" 
d="M72 0v596h167q135 0 222 -85.5t87 -212.5q0 -128 -88 -213t-219 -85h-169zM234 543h-105v-489h107q110 0 181.5 69.5t71.5 174.5q0 107 -70 176t-185 69zM244 661l-117 155h59l81 -114l84 114h59l-118 -155h-48z" />
    <glyph glyph-name="uniE239" unicode="&#xf645;" horiz-adv-x="598" 
d="M72 0v596h167q135 0 222 -85.5t87 -212.5q0 -128 -88 -213t-219 -85h-169zM234 543h-105v-489h107q110 0 181.5 69.5t71.5 174.5q0 107 -70 176t-185 69zM244 661l-117 155h59l81 -114l84 114h59l-118 -155h-48z" />
    <glyph glyph-name="uniE23C" unicode="&#xe23c;" horiz-adv-x="619" 
d="M27 273v51h67v272h166q136 0 222.5 -85t86.5 -213t-88 -213t-219 -85h-168v273h-67zM304 273h-154v-219h108q110 0 181.5 69.5t71.5 174.5q0 107 -70 176t-185 69h-106v-219h154v-51z" />
    <glyph glyph-name="uniE23C" unicode="&#xf646;" horiz-adv-x="619" 
d="M27 273v51h67v272h166q136 0 222.5 -85t86.5 -213t-88 -213t-219 -85h-168v273h-67zM304 273h-154v-219h108q110 0 181.5 69.5t71.5 174.5q0 107 -70 176t-185 69h-106v-219h154v-51z" />
    <glyph glyph-name="uniE23D" unicode="&#xe23d;" horiz-adv-x="492" 
d="M73 0v596h362v-53h-306v-218h306v-53h-306v-218h306v-54h-362zM212 661l119 155h75l-140 -155h-54z" />
    <glyph glyph-name="uniE23D" unicode="&#xf7e9;" horiz-adv-x="492" 
d="M73 0v596h362v-53h-306v-218h306v-53h-306v-218h306v-54h-362zM212 661l119 155h75l-140 -155h-54z" />
    <glyph glyph-name="uniE23E" unicode="&#xe23e;" horiz-adv-x="492" 
d="M73 0v596h362v-53h-306v-218h306v-53h-306v-218h306v-54h-362zM251 661l-140 155h74l120 -155h-54z" />
    <glyph glyph-name="uniE23E" unicode="&#xf7e8;" horiz-adv-x="492" 
d="M73 0v596h362v-53h-306v-218h306v-53h-306v-218h306v-54h-362zM251 661l-140 155h74l120 -155h-54z" />
    <glyph glyph-name="uniE23F" unicode="&#xe23f;" horiz-adv-x="492" 
d="M73 0v596h362v-53h-306v-218h306v-53h-306v-218h306v-54h-362zM115 661l119 155h49l119 -155h-61l-83 110l-83 -110h-60z" />
    <glyph glyph-name="uniE23F" unicode="&#xf7ea;" horiz-adv-x="492" 
d="M73 0v596h362v-53h-306v-218h306v-53h-306v-218h306v-54h-362zM115 661l119 155h49l119 -155h-61l-83 110l-83 -110h-60z" />
    <glyph glyph-name="uniE240" unicode="&#xe240;" horiz-adv-x="706" 
d="M358 -9q-130 0 -219 90t-89 217t89.5 216.5t218.5 89.5q88 0 157 -40t108 -110l-50 -29q-33 59 -88.5 92.5t-126.5 33.5q-106 0 -178 -74t-72 -179q0 -104 71 -178.5t179 -74.5q101 0 164.5 61t76.5 155h-248v54h307v-18q0 -128 -83 -217t-217 -89zM327 -277h-40l43 204
h55z" />
    <glyph glyph-name="uniE240" unicode="&#xf64c;" horiz-adv-x="706" 
d="M358 -9q-130 0 -219 90t-89 217t89.5 216.5t218.5 89.5q88 0 157 -40t108 -110l-50 -29q-33 59 -88.5 92.5t-126.5 33.5q-106 0 -178 -74t-72 -179q0 -104 71 -178.5t179 -74.5q101 0 164.5 61t76.5 155h-248v54h307v-18q0 -128 -83 -217t-217 -89zM327 -277h-40l43 204
h55z" />
    <glyph glyph-name="uniE241" unicode="&#xe241;" horiz-adv-x="492" 
d="M73 0v596h362v-53h-306v-218h306v-53h-306v-218h306v-54h-362zM233 661l-117 155h59l81 -114l84 114h59l-118 -155h-48z" />
    <glyph glyph-name="uniE241" unicode="&#xf647;" horiz-adv-x="492" 
d="M73 0v596h362v-53h-306v-218h306v-53h-306v-218h306v-54h-362zM233 661l-117 155h59l81 -114l84 114h59l-118 -155h-48z" />
    <glyph glyph-name="uniE242" unicode="&#xe242;" horiz-adv-x="492" 
d="M73 0v596h362v-53h-306v-218h306v-53h-306v-218h306v-54h-362zM123 663v50h264v-50h-264z" />
    <glyph glyph-name="uniE242" unicode="&#xf649;" horiz-adv-x="492" 
d="M73 0v596h362v-53h-306v-218h306v-53h-306v-218h306v-54h-362zM123 663v50h264v-50h-264z" />
    <glyph glyph-name="uniE243" unicode="&#xe243;" horiz-adv-x="492" 
d="M73 0v596h362v-53h-306v-218h306v-53h-306v-218h306v-54h-362zM255 656q-78 0 -119.5 45t-41.5 112h49q0 -50 29 -81.5t83 -31.5q52 0 81.5 32t29.5 81h51q0 -65 -44.5 -111t-117.5 -46z" />
    <glyph glyph-name="uniE243" unicode="&#xf62a;" horiz-adv-x="492" 
d="M73 0v596h362v-53h-306v-218h306v-53h-306v-218h306v-54h-362zM255 656q-78 0 -119.5 45t-41.5 112h49q0 -50 29 -81.5t83 -31.5q52 0 81.5 32t29.5 81h51q0 -65 -44.5 -111t-117.5 -46z" />
    <glyph glyph-name="uniE246" unicode="&#xe246;" horiz-adv-x="492" 
d="M73 0v596h362v-53h-306v-218h306v-53h-306v-218h306v-54h-362zM213 746q0 21 14 34.5t35 13.5q23 0 36 -13.5t13 -34.5q0 -22 -13 -35.5t-36 -13.5t-36 13.5t-13 35.5z" />
    <glyph glyph-name="uniE246" unicode="&#xf648;" horiz-adv-x="492" 
d="M73 0v596h362v-53h-306v-218h306v-53h-306v-218h306v-54h-362zM213 746q0 21 14 34.5t35 13.5q23 0 36 -13.5t13 -34.5q0 -22 -13 -35.5t-36 -13.5t-36 13.5t-13 35.5z" />
    <glyph glyph-name="uniE249" unicode="&#xe249;" horiz-adv-x="492" 
d="M73 0v596h362v-53h-306v-218h306v-53h-306v-218h306v-54q-72 -40 -97 -62.5t-25 -47.5q0 -24 20 -37.5t51 -13.5q41 0 86 39l45 -31q-61 -55 -131 -55q-57 0 -93 26.5t-36 68.5q0 64 85 113h-267z" />
    <glyph glyph-name="uniE249" unicode="&#xf64a;" horiz-adv-x="492" 
d="M73 0v596h362v-53h-306v-218h306v-53h-306v-218h306v-54q-72 -40 -97 -62.5t-25 -47.5q0 -24 20 -37.5t51 -13.5q41 0 86 39l45 -31q-61 -55 -131 -55q-57 0 -93 26.5t-36 68.5q0 64 85 113h-267z" />
    <glyph glyph-name="uniE24B" unicode="&#xe24b;" horiz-adv-x="706" 
d="M358 -9q-130 0 -219 90t-89 217t89.5 216.5t218.5 89.5q88 0 157 -40t108 -110l-50 -29q-33 59 -88.5 92.5t-126.5 33.5q-106 0 -178 -74t-72 -179q0 -104 71 -178.5t179 -74.5q101 0 164.5 61t76.5 155h-248v54h307v-18q0 -128 -83 -217t-217 -89zM213 660l119 155h49
l119 -155h-61l-83 110l-83 -110h-60z" />
    <glyph glyph-name="uniE24B" unicode="&#xf62c;" horiz-adv-x="706" 
d="M358 -9q-130 0 -219 90t-89 217t89.5 216.5t218.5 89.5q88 0 157 -40t108 -110l-50 -29q-33 59 -88.5 92.5t-126.5 33.5q-106 0 -178 -74t-72 -179q0 -104 71 -178.5t179 -74.5q101 0 164.5 61t76.5 155h-248v54h307v-18q0 -128 -83 -217t-217 -89zM213 660l119 155h49
l119 -155h-61l-83 110l-83 -110h-60z" />
    <glyph glyph-name="uniE24E" unicode="&#xe24e;" horiz-adv-x="706" 
d="M358 -9q-130 0 -219 90t-89 217t89.5 216.5t218.5 89.5q88 0 157 -40t108 -110l-50 -29q-33 59 -88.5 92.5t-126.5 33.5q-106 0 -178 -74t-72 -179q0 -104 71 -178.5t179 -74.5q101 0 164.5 61t76.5 155h-248v54h307v-18q0 -128 -83 -217t-217 -89zM356 660
q-78 0 -119.5 45t-41.5 112h49q0 -50 29 -81.5t83 -31.5q52 0 81.5 32t29.5 81h51q0 -65 -44.5 -111t-117.5 -46z" />
    <glyph glyph-name="uniE24E" unicode="&#xf64b;" horiz-adv-x="706" 
d="M358 -9q-130 0 -219 90t-89 217t89.5 216.5t218.5 89.5q88 0 157 -40t108 -110l-50 -29q-33 59 -88.5 92.5t-126.5 33.5q-106 0 -178 -74t-72 -179q0 -104 71 -178.5t179 -74.5q101 0 164.5 61t76.5 155h-248v54h307v-18q0 -128 -83 -217t-217 -89zM356 660
q-78 0 -119.5 45t-41.5 112h49q0 -50 29 -81.5t83 -31.5q52 0 81.5 32t29.5 81h51q0 -65 -44.5 -111t-117.5 -46z" />
    <glyph glyph-name="uniE24F" unicode="&#xe24f;" horiz-adv-x="706" 
d="M358 -9q-130 0 -219 90t-89 217t89.5 216.5t218.5 89.5q88 0 157 -40t108 -110l-50 -29q-33 59 -88.5 92.5t-126.5 33.5q-106 0 -178 -74t-72 -179q0 -104 71 -178.5t179 -74.5q101 0 164.5 61t76.5 155h-248v54h307v-18q0 -128 -83 -217t-217 -89zM310 746q0 21 14 34.5
t35 13.5q23 0 36 -13.5t13 -34.5q0 -22 -13 -35.5t-36 -13.5t-36 13.5t-13 35.5z" />
    <glyph glyph-name="uniE24F" unicode="&#xf62d;" horiz-adv-x="706" 
d="M358 -9q-130 0 -219 90t-89 217t89.5 216.5t218.5 89.5q88 0 157 -40t108 -110l-50 -29q-33 59 -88.5 92.5t-126.5 33.5q-106 0 -178 -74t-72 -179q0 -104 71 -178.5t179 -74.5q101 0 164.5 61t76.5 155h-248v54h307v-18q0 -128 -83 -217t-217 -89zM310 746q0 21 14 34.5
t35 13.5q23 0 36 -13.5t13 -34.5q0 -22 -13 -35.5t-36 -13.5t-36 13.5t-13 35.5z" />
    <glyph glyph-name="uniE253" unicode="&#xe253;" horiz-adv-x="586" 
d="M457 0v272h-328v-272h-57v596h57v-270h328v270h57v-596h-57zM148 660l119 155h49l119 -155h-61l-83 110l-83 -110h-60z" />
    <glyph glyph-name="uniE253" unicode="&#xf62f;" horiz-adv-x="586" 
d="M457 0v272h-328v-272h-57v596h57v-270h328v270h57v-596h-57zM148 660l119 155h49l119 -155h-61l-83 110l-83 -110h-60z" />
    <glyph glyph-name="uniE257" unicode="&#xe257;" horiz-adv-x="626" 
d="M477 0v272h-328v-272h-57v443h-66v54h66v99h57v-99h328v99h57v-99h66v-54h-66v-443h-57zM149 443v-118h328v118h-328z" />
    <glyph glyph-name="uniE257" unicode="&#xf62e;" horiz-adv-x="626" 
d="M477 0v272h-328v-272h-57v443h-66v54h66v99h57v-99h328v99h57v-99h66v-54h-66v-443h-57zM149 443v-118h328v118h-328z" />
    <glyph glyph-name="uniE258" unicode="&#xe258;" horiz-adv-x="213" 
d="M75 661l119 155h75l-140 -155h-54zM77 0v596h58v-596h-58z" />
    <glyph glyph-name="uniE258" unicode="&#xf7ed;" horiz-adv-x="213" 
d="M75 661l119 155h75l-140 -155h-54zM77 0v596h58v-596h-58z" />
    <glyph glyph-name="uniE259" unicode="&#xe259;" horiz-adv-x="213" 
d="M79 661l-140 155h74l120 -155h-54zM77 0v596h58v-596h-58z" />
    <glyph glyph-name="uniE259" unicode="&#xf7ec;" horiz-adv-x="213" 
d="M79 661l-140 155h74l120 -155h-54zM77 0v596h58v-596h-58z" />
    <glyph glyph-name="uniE25A" unicode="&#xe25a;" horiz-adv-x="213" 
d="M77 0v596h58v-596h-58zM-38 652l119 155h49l119 -155h-61l-83 110l-83 -110h-60z" />
    <glyph glyph-name="uniE25A" unicode="&#xf7ee;" horiz-adv-x="213" 
d="M77 0v596h58v-596h-58zM-38 652l119 155h49l119 -155h-61l-83 110l-83 -110h-60z" />
    <glyph glyph-name="uniE25B" unicode="&#xe25b;" horiz-adv-x="213" 
d="M176 666v139h57v-139h-57zM-19 666v139h56v-139h-56zM77 0v596h58v-596h-58z" />
    <glyph glyph-name="uniE25B" unicode="&#xf7ef;" horiz-adv-x="213" 
d="M176 666v139h57v-139h-57zM-19 666v139h56v-139h-56zM77 0v596h58v-596h-58z" />
    <glyph glyph-name="uniE25C" unicode="&#xe25c;" horiz-adv-x="213" 
d="M77 0v596h58v-596h-58zM-20 660h-47q0 50 25.5 79t67.5 29q35 0 86 -30q52 -31 72 -31q50 0 50 58h46q0 -51 -25 -80t-70 -29q-7 0 -14.5 1t-12.5 2t-13 4t-11.5 4t-11.5 6t-10 6t-11 6.5t-10 5.5q-4 2 -13 7.5t-13.5 8t-11.5 5.5t-13.5 4.5t-13.5 1.5q-21 0 -33.5 -15
t-12.5 -43z" />
    <glyph glyph-name="uniE25C" unicode="&#xf632;" horiz-adv-x="213" 
d="M77 0v596h58v-596h-58zM-20 660h-47q0 50 25.5 79t67.5 29q35 0 86 -30q52 -31 72 -31q50 0 50 58h46q0 -51 -25 -80t-70 -29q-7 0 -14.5 1t-12.5 2t-13 4t-11.5 4t-11.5 6t-10 6t-11 6.5t-10 5.5q-4 2 -13 7.5t-13.5 8t-11.5 5.5t-13.5 4.5t-13.5 1.5q-21 0 -33.5 -15
t-12.5 -43z" />
    <glyph glyph-name="uniE25E" unicode="&#xe25e;" horiz-adv-x="213" 
d="M-27 661v50h264v-50h-264zM77 0v596h58v-596h-58z" />
    <glyph glyph-name="uniE25E" unicode="&#xf64d;" horiz-adv-x="213" 
d="M-27 661v50h264v-50h-264zM77 0v596h58v-596h-58z" />
    <glyph glyph-name="uniE25F" unicode="&#xe25f;" horiz-adv-x="213" 
d="M77 0v596h58v-596h-58zM106 656q-78 0 -119.5 45t-41.5 112h49q0 -50 29 -81.5t83 -31.5q52 0 81.5 32t29.5 81h51q0 -65 -44.5 -111t-117.5 -46z" />
    <glyph glyph-name="uniE25F" unicode="&#xf630;" horiz-adv-x="213" 
d="M77 0v596h58v-596h-58zM106 656q-78 0 -119.5 45t-41.5 112h49q0 -50 29 -81.5t83 -31.5q52 0 81.5 32t29.5 81h51q0 -65 -44.5 -111t-117.5 -46z" />
    <glyph glyph-name="uniE262" unicode="&#xe262;" horiz-adv-x="213" 
d="M77 0v596h58v-596h-58zM57 740q0 21 14 34.5t34 13.5q23 0 35.5 -13t12.5 -35t-12.5 -35.5t-35.5 -13.5q-21 0 -34.5 14t-13.5 35z" />
    <glyph glyph-name="uniE262" unicode="&#xf666;" horiz-adv-x="213" 
d="M77 0v596h58v-596h-58zM57 740q0 21 14 34.5t34 13.5q23 0 35.5 -13t12.5 -35t-12.5 -35.5t-35.5 -13.5q-21 0 -34.5 14t-13.5 35z" />
    <glyph glyph-name="uniE264" unicode="&#xe264;" horiz-adv-x="213" 
d="M113 -218q-55 0 -84 28.5t-29 72.5q0 60 77 127v586h58v-596h1q-82 -66 -82 -115q0 -24 16 -39t43 -15q38 0 73 32l33 -40q-50 -41 -106 -41z" />
    <glyph glyph-name="uniE264" unicode="&#xf64e;" horiz-adv-x="213" 
d="M113 -218q-55 0 -84 28.5t-29 72.5q0 60 77 127v586h58v-596h1q-82 -66 -82 -115q0 -24 16 -39t43 -15q38 0 73 32l33 -40q-50 -41 -106 -41z" />
    <glyph glyph-name="uniE265" unicode="&#xe265;" horiz-adv-x="408" 
d="M184 -9q-56 0 -97 25.5t-59 69.5l53 27q32 -68 102 -68q46 0 72.5 30t26.5 80v441h57v-438q0 -78 -41 -122.5t-114 -44.5zM162 652l119 155h49l119 -155h-61l-83 110l-83 -110h-60z" />
    <glyph glyph-name="uniE265" unicode="&#xf633;" horiz-adv-x="408" 
d="M184 -9q-56 0 -97 25.5t-59 69.5l53 27q32 -68 102 -68q46 0 72.5 30t26.5 80v441h57v-438q0 -78 -41 -122.5t-114 -44.5zM162 652l119 155h49l119 -155h-61l-83 110l-83 -110h-60z" />
    <glyph glyph-name="uniE268" unicode="&#xe268;" horiz-adv-x="554" 
d="M456 0l-207 319l-120 -135v-184h-56v596h56v-339l304 339h71l-214 -237l231 -359h-65zM258 -261h-40l43 204h55z" />
    <glyph glyph-name="uniE268" unicode="&#xf64f;" horiz-adv-x="554" 
d="M456 0l-207 319l-120 -135v-184h-56v596h56v-339l304 339h71l-214 -237l231 -359h-65zM258 -261h-40l43 204h55z" />
    <glyph glyph-name="uniE26B" unicode="&#xe26b;" horiz-adv-x="451" 
d="M72 0v596h57v-542h274v-54h-331zM72 661l119 155h75l-140 -155h-54z" />
    <glyph glyph-name="uniE26B" unicode="&#xf650;" horiz-adv-x="451" 
d="M72 0v596h57v-542h274v-54h-331zM72 661l119 155h75l-140 -155h-54z" />
    <glyph glyph-name="uniE26C" unicode="&#xe26c;" horiz-adv-x="451" 
d="M72 0v596h57v-542h274v-54h-331zM272 424l49 172h55l-63 -172h-41z" />
    <glyph glyph-name="uniE26C" unicode="&#xf651;" horiz-adv-x="451" 
d="M72 0v596h57v-542h274v-54h-331zM272 424l49 172h55l-63 -172h-41z" />
    <glyph glyph-name="uniE26D" unicode="&#xe26d;" horiz-adv-x="451" 
d="M72 0v596h57v-542h274v-54h-331zM211 -264h-40l43 204h55z" />
    <glyph glyph-name="uniE26D" unicode="&#xf652;" horiz-adv-x="451" 
d="M72 0v596h57v-542h274v-54h-331zM211 -264h-40l43 204h55z" />
    <glyph glyph-name="uniE271" unicode="&#xe271;" horiz-adv-x="459" 
d="M72 0v596h57v-542h274v-54h-331zM324 322q0 21 14 34.5t35 13.5q23 0 36 -13.5t13 -34.5q0 -22 -13 -35.5t-36 -13.5t-36 13.5t-13 35.5z" />
    <glyph glyph-name="uniE271" unicode="&#xf634;" horiz-adv-x="459" 
d="M72 0v596h57v-542h274v-54h-331zM324 322q0 21 14 34.5t35 13.5q23 0 36 -13.5t13 -34.5q0 -22 -13 -35.5t-36 -13.5t-36 13.5t-13 35.5z" />
    <glyph glyph-name="uniE272" unicode="&#xe272;" horiz-adv-x="469" 
d="M20 231v50l69 29v286h57v-262l179 76v-50l-179 -76v-230h274v-54h-331v260z" />
    <glyph glyph-name="uniE272" unicode="&#xf6f9;" horiz-adv-x="469" 
d="M20 231v50l69 29v286h57v-262l179 76v-50l-179 -76v-230h274v-54h-331v260z" />
    <glyph glyph-name="uniE276" unicode="&#xe276;" horiz-adv-x="630" 
d="M72 0v596h63l366 -507v507h57v-596h-61l-368 509v-509h-57zM290 648l119 155h75l-140 -155h-54z" />
    <glyph glyph-name="uniE276" unicode="&#xf653;" horiz-adv-x="630" 
d="M72 0v596h63l366 -507v507h57v-596h-61l-368 509v-509h-57zM290 648l119 155h75l-140 -155h-54z" />
    <glyph glyph-name="uniE279" unicode="&#xe279;" horiz-adv-x="630" 
d="M72 0v596h63l366 -507v507h57v-596h-61l-368 509v-509h-57zM191 660h-47q0 50 25.5 79t67.5 29q35 0 86 -30q52 -31 72 -31q50 0 50 58h46q0 -51 -25 -80t-70 -29q-7 0 -14.5 1t-12.5 2t-13 4t-11.5 4t-11.5 6t-10 6t-11 6.5t-10 5.5q-4 2 -13 7.5t-13.5 8t-11.5 5.5
t-13.5 4.5t-13.5 1.5q-21 0 -33.5 -15t-12.5 -43z" />
    <glyph glyph-name="uniE27A" unicode="&#xe27a;" horiz-adv-x="630" 
d="M72 0v596h63l366 -507v507h57v-596h-61l-368 509v-509h-57zM293 651l-117 155h59l81 -114l84 114h59l-118 -155h-48z" />
    <glyph glyph-name="uniE27A" unicode="&#xf654;" horiz-adv-x="630" 
d="M72 0v596h63l366 -507v507h57v-596h-61l-368 509v-509h-57zM293 651l-117 155h59l81 -114l84 114h59l-118 -155h-48z" />
    <glyph glyph-name="uniE27D" unicode="&#xe27d;" horiz-adv-x="630" 
d="M72 0v596h63l366 -507v507h57v-596h-61l-368 509v-509h-57zM295 -259h-40l43 204h55z" />
    <glyph glyph-name="uniE27D" unicode="&#xf655;" horiz-adv-x="630" 
d="M72 0v596h63l366 -507v507h57v-596h-61l-368 509v-509h-57zM295 -259h-40l43 204h55z" />
    <glyph glyph-name="uniE281" unicode="&#xe281;" horiz-adv-x="711" 
d="M355 -9q-127 0 -216 90t-89 217t89 216.5t216 89.5t216.5 -89.5t89.5 -216.5t-89.5 -217t-216.5 -90zM355 45q104 0 175.5 74t71.5 179t-71.5 179t-175.5 74t-175.5 -74t-71.5 -179t71.5 -179t175.5 -74zM316 661l119 155h75l-140 -155h-54z" />
    <glyph glyph-name="uniE281" unicode="&#xf7f3;" horiz-adv-x="711" 
d="M355 -9q-127 0 -216 90t-89 217t89 216.5t216 89.5t216.5 -89.5t89.5 -216.5t-89.5 -217t-216.5 -90zM355 45q104 0 175.5 74t71.5 179t-71.5 179t-175.5 74t-175.5 -74t-71.5 -179t71.5 -179t175.5 -74zM316 661l119 155h75l-140 -155h-54z" />
    <glyph glyph-name="uniE282" unicode="&#xe282;" horiz-adv-x="711" 
d="M355 -9q-127 0 -216 90t-89 217t89 216.5t216 89.5t216.5 -89.5t89.5 -216.5t-89.5 -217t-216.5 -90zM355 45q104 0 175.5 74t71.5 179t-71.5 179t-175.5 74t-175.5 -74t-71.5 -179t71.5 -179t175.5 -74zM331 661l-140 155h74l120 -155h-54z" />
    <glyph glyph-name="uniE282" unicode="&#xf7f2;" horiz-adv-x="711" 
d="M355 -9q-127 0 -216 90t-89 217t89 216.5t216 89.5t216.5 -89.5t89.5 -216.5t-89.5 -217t-216.5 -90zM355 45q104 0 175.5 74t71.5 179t-71.5 179t-175.5 74t-175.5 -74t-71.5 -179t71.5 -179t175.5 -74zM331 661l-140 155h74l120 -155h-54z" />
    <glyph glyph-name="uniE283" unicode="&#xe283;" horiz-adv-x="711" 
d="M355 -9q-127 0 -216 90t-89 217t89 216.5t216 89.5t216.5 -89.5t89.5 -216.5t-89.5 -217t-216.5 -90zM355 45q104 0 175.5 74t71.5 179t-71.5 179t-175.5 74t-175.5 -74t-71.5 -179t71.5 -179t175.5 -74zM212 657l119 155h49l119 -155h-61l-83 110l-83 -110h-60z" />
    <glyph glyph-name="uniE283" unicode="&#xf7f4;" horiz-adv-x="711" 
d="M355 -9q-127 0 -216 90t-89 217t89 216.5t216 89.5t216.5 -89.5t89.5 -216.5t-89.5 -217t-216.5 -90zM355 45q104 0 175.5 74t71.5 179t-71.5 179t-175.5 74t-175.5 -74t-71.5 -179t71.5 -179t175.5 -74zM212 657l119 155h49l119 -155h-61l-83 110l-83 -110h-60z" />
    <glyph glyph-name="uniE284" unicode="&#xe284;" horiz-adv-x="711" 
d="M355 -9q-127 0 -216 90t-89 217t89 216.5t216 89.5t216.5 -89.5t89.5 -216.5t-89.5 -217t-216.5 -90zM355 45q104 0 175.5 74t71.5 179t-71.5 179t-175.5 74t-175.5 -74t-71.5 -179t71.5 -179t175.5 -74zM229 745q0 19 12.5 31t31.5 12q20 0 31.5 -12t11.5 -31
t-11.5 -31.5t-31.5 -12.5t-32 12.5t-12 31.5zM397 745q0 19 12.5 31t31.5 12q20 0 31.5 -12t11.5 -31t-11.5 -31.5t-31.5 -12.5t-32 12.5t-12 31.5z" />
    <glyph glyph-name="uniE284" unicode="&#xf7f6;" horiz-adv-x="711" 
d="M355 -9q-127 0 -216 90t-89 217t89 216.5t216 89.5t216.5 -89.5t89.5 -216.5t-89.5 -217t-216.5 -90zM355 45q104 0 175.5 74t71.5 179t-71.5 179t-175.5 74t-175.5 -74t-71.5 -179t71.5 -179t175.5 -74zM229 745q0 19 12.5 31t31.5 12q20 0 31.5 -12t11.5 -31
t-11.5 -31.5t-31.5 -12.5t-32 12.5t-12 31.5zM397 745q0 19 12.5 31t31.5 12q20 0 31.5 -12t11.5 -31t-11.5 -31.5t-31.5 -12.5t-32 12.5t-12 31.5z" />
    <glyph glyph-name="uniE285" unicode="&#xe285;" horiz-adv-x="711" 
d="M355 -9q-127 0 -216 90t-89 217t89 216.5t216 89.5t216.5 -89.5t89.5 -216.5t-89.5 -217t-216.5 -90zM355 45q104 0 175.5 74t71.5 179t-71.5 179t-175.5 74t-175.5 -74t-71.5 -179t71.5 -179t175.5 -74zM229 661h-47q0 50 25.5 79t67.5 29q35 0 86 -30q52 -31 72 -31
q50 0 50 58h46q0 -51 -25 -80t-70 -29q-7 0 -14.5 1t-12.5 2t-13 4t-11.5 4t-11.5 6t-10 6t-11 6.5t-10 5.5q-4 2 -13 7.5t-13.5 8t-11.5 5.5t-13.5 4.5t-13.5 1.5q-21 0 -33.5 -15t-12.5 -43z" />
    <glyph glyph-name="uniE285" unicode="&#xf7f5;" horiz-adv-x="711" 
d="M355 -9q-127 0 -216 90t-89 217t89 216.5t216 89.5t216.5 -89.5t89.5 -216.5t-89.5 -217t-216.5 -90zM355 45q104 0 175.5 74t71.5 179t-71.5 179t-175.5 74t-175.5 -74t-71.5 -179t71.5 -179t175.5 -74zM229 661h-47q0 50 25.5 79t67.5 29q35 0 86 -30q52 -31 72 -31
q50 0 50 58h46q0 -51 -25 -80t-70 -29q-7 0 -14.5 1t-12.5 2t-13 4t-11.5 4t-11.5 6t-10 6t-11 6.5t-10 5.5q-4 2 -13 7.5t-13.5 8t-11.5 5.5t-13.5 4.5t-13.5 1.5q-21 0 -33.5 -15t-12.5 -43z" />
    <glyph glyph-name="uniE287" unicode="&#xe287;" horiz-adv-x="711" 
d="M355 -9q-127 0 -216 90t-89 217t89 216.5t216 89.5t216.5 -89.5t89.5 -216.5t-89.5 -217t-216.5 -90zM355 45q104 0 175.5 74t71.5 179t-71.5 179t-175.5 74t-175.5 -74t-71.5 -179t71.5 -179t175.5 -74zM223 661v50h264v-50h-264z" />
    <glyph glyph-name="uniE287" unicode="&#xf657;" horiz-adv-x="711" 
d="M355 -9q-127 0 -216 90t-89 217t89 216.5t216 89.5t216.5 -89.5t89.5 -216.5t-89.5 -217t-216.5 -90zM355 45q104 0 175.5 74t71.5 179t-71.5 179t-175.5 74t-175.5 -74t-71.5 -179t71.5 -179t175.5 -74zM223 661v50h264v-50h-264z" />
    <glyph glyph-name="uniE288" unicode="&#xe288;" horiz-adv-x="711" 
d="M355 -9q-127 0 -216 90t-89 217t89 216.5t216 89.5t216.5 -89.5t89.5 -216.5t-89.5 -217t-216.5 -90zM355 45q104 0 175.5 74t71.5 179t-71.5 179t-175.5 74t-175.5 -74t-71.5 -179t71.5 -179t175.5 -74zM354 660q-78 0 -119.5 45t-41.5 112h49q0 -50 29 -81.5t83 -31.5
q52 0 81.5 32t29.5 81h51q0 -65 -44.5 -111t-117.5 -46z" />
    <glyph glyph-name="uniE288" unicode="&#xf635;" horiz-adv-x="711" 
d="M355 -9q-127 0 -216 90t-89 217t89 216.5t216 89.5t216.5 -89.5t89.5 -216.5t-89.5 -217t-216.5 -90zM355 45q104 0 175.5 74t71.5 179t-71.5 179t-175.5 74t-175.5 -74t-71.5 -179t71.5 -179t175.5 -74zM354 660q-78 0 -119.5 45t-41.5 112h49q0 -50 29 -81.5t83 -31.5
q52 0 81.5 32t29.5 81h51q0 -65 -44.5 -111t-117.5 -46z" />
    <glyph glyph-name="uniE28A" unicode="&#xe28a;" horiz-adv-x="711" 
d="M355 -9q-127 0 -216 90t-89 217t89 216.5t216 89.5t216.5 -89.5t89.5 -216.5t-89.5 -217t-216.5 -90zM355 45q104 0 175.5 74t71.5 179t-71.5 179t-175.5 74t-175.5 -74t-71.5 -179t71.5 -179t175.5 -74zM264 661l119 155h71l-140 -155h-50zM385 661l120 155h71
l-140 -155h-51z" />
    <glyph glyph-name="uniE28A" unicode="&#xf656;" horiz-adv-x="711" 
d="M355 -9q-127 0 -216 90t-89 217t89 216.5t216 89.5t216.5 -89.5t89.5 -216.5t-89.5 -217t-216.5 -90zM355 45q104 0 175.5 74t71.5 179t-71.5 179t-175.5 74t-175.5 -74t-71.5 -179t71.5 -179t175.5 -74zM264 661l119 155h71l-140 -155h-50zM385 661l120 155h71
l-140 -155h-51z" />
    <glyph glyph-name="uniE295" unicode="&#xe295;" horiz-adv-x="711" 
d="M355 -9q-86 0 -161 46l-28 -37h-67l52 69q-101 90 -101 229q0 127 89 216.5t216 89.5q90 0 166 -49l31 41h66l-55 -73q98 -91 98 -225q0 -127 -89.5 -217t-216.5 -90zM108 298q0 -109 78 -184l301 397q-62 38 -132 38q-104 0 -175.5 -73.5t-71.5 -177.5zM355 47
q104 0 176 73.5t72 177.5q0 105 -75 180l-300 -396q59 -35 127 -35z" />
    <glyph glyph-name="uniE295" unicode="&#xf7f8;" horiz-adv-x="711" 
d="M355 -9q-86 0 -161 46l-28 -37h-67l52 69q-101 90 -101 229q0 127 89 216.5t216 89.5q90 0 166 -49l31 41h66l-55 -73q98 -91 98 -225q0 -127 -89.5 -217t-216.5 -90zM108 298q0 -109 78 -184l301 397q-62 38 -132 38q-104 0 -175.5 -73.5t-71.5 -177.5zM355 47
q104 0 176 73.5t72 177.5q0 105 -75 180l-300 -396q59 -35 127 -35z" />
    <glyph glyph-name="uniE296" unicode="&#xe296;" horiz-adv-x="712" 
d="M355 -9q-86 0 -161 46l-28 -37h-67l52 69q-101 90 -101 229q0 127 89 216.5t216 89.5q90 0 166 -49l31 41h66l-55 -73q98 -91 98 -225q0 -127 -89.5 -217t-216.5 -90zM108 298q0 -109 78 -184l301 397q-62 38 -132 38q-104 0 -175.5 -73.5t-71.5 -177.5zM355 47
q104 0 176 73.5t72 177.5q0 105 -75 180l-300 -396q59 -35 127 -35zM321 661l119 155h75l-140 -155h-54z" />
    <glyph glyph-name="uniE296" unicode="&#xf627;" horiz-adv-x="712" 
d="M355 -9q-86 0 -161 46l-28 -37h-67l52 69q-101 90 -101 229q0 127 89 216.5t216 89.5q90 0 166 -49l31 41h66l-55 -73q98 -91 98 -225q0 -127 -89.5 -217t-216.5 -90zM108 298q0 -109 78 -184l301 397q-62 38 -132 38q-104 0 -175.5 -73.5t-71.5 -177.5zM355 47
q104 0 176 73.5t72 177.5q0 105 -75 180l-300 -396q59 -35 127 -35zM321 661l119 155h75l-140 -155h-54z" />
    <glyph glyph-name="uniE298" unicode="&#xe298;" horiz-adv-x="1021" 
d="M602 0v128q-39 -64 -103 -100.5t-144 -36.5q-127 0 -216 90t-89 217t89 216.5t216 89.5q79 0 143.5 -36.5t103.5 -100.5v129h363v-53h-306v-218h306v-53h-306v-218h306v-54h-363zM355 45q104 0 175.5 74t71.5 179t-71.5 179t-175.5 74t-175.5 -74t-71.5 -179t71.5 -179
t175.5 -74z" />
    <glyph glyph-name="uniE298" unicode="&#xf6fa;" horiz-adv-x="1021" 
d="M602 0v128q-39 -64 -103 -100.5t-144 -36.5q-127 0 -216 90t-89 217t89 216.5t216 89.5q79 0 143.5 -36.5t103.5 -100.5v129h363v-53h-306v-218h306v-53h-306v-218h306v-54h-363zM355 45q104 0 175.5 74t71.5 179t-71.5 179t-175.5 74t-175.5 -74t-71.5 -179t71.5 -179
t175.5 -74z" />
    <glyph glyph-name="uniE29A" unicode="&#xe29a;" horiz-adv-x="505" 
d="M72 0v596h184q85 0 142 -55t57 -134q0 -65 -40.5 -116t-107.5 -64l154 -227h-68l-179 270h35q65 0 106 41.5t41 95.5q0 61 -38 98.5t-105 37.5h-123v-543h-58zM213 661l119 155h75l-140 -155h-54z" />
    <glyph glyph-name="uniE29A" unicode="&#xf658;" horiz-adv-x="505" 
d="M72 0v596h184q85 0 142 -55t57 -134q0 -65 -40.5 -116t-107.5 -64l154 -227h-68l-179 270h35q65 0 106 41.5t41 95.5q0 61 -38 98.5t-105 37.5h-123v-543h-58zM213 661l119 155h75l-140 -155h-54z" />
    <glyph glyph-name="uniE29B" unicode="&#xe29b;" horiz-adv-x="505" 
d="M72 0v596h184q85 0 142 -55t57 -134q0 -65 -40.5 -116t-107.5 -64l154 -227h-68l-179 270h35q65 0 106 41.5t41 95.5q0 61 -38 98.5t-105 37.5h-123v-543h-58zM237 661l-117 155h59l81 -114l84 114h59l-118 -155h-48z" />
    <glyph glyph-name="uniE29B" unicode="&#xf659;" horiz-adv-x="505" 
d="M72 0v596h184q85 0 142 -55t57 -134q0 -65 -40.5 -116t-107.5 -64l154 -227h-68l-179 270h35q65 0 106 41.5t41 95.5q0 61 -38 98.5t-105 37.5h-123v-543h-58zM237 661l-117 155h59l81 -114l84 114h59l-118 -155h-48z" />
    <glyph glyph-name="uniE29E" unicode="&#xe29e;" horiz-adv-x="505" 
d="M72 0v596h184q85 0 142 -55t57 -134q0 -65 -40.5 -116t-107.5 -64l154 -227h-68l-179 270h35q65 0 106 41.5t41 95.5q0 61 -38 98.5t-105 37.5h-123v-543h-58zM232 -260h-40l43 204h55z" />
    <glyph glyph-name="uniE29E" unicode="&#xf65a;" horiz-adv-x="505" 
d="M72 0v596h184q85 0 142 -55t57 -134q0 -65 -40.5 -116t-107.5 -64l154 -227h-68l-179 270h35q65 0 106 41.5t41 95.5q0 61 -38 98.5t-105 37.5h-123v-543h-58zM232 -260h-40l43 204h55z" />
    <glyph glyph-name="uniE300" unicode="&#xe300;" horiz-adv-x="545" 
d="M272 -9q-88 0 -145.5 55.5t-57.5 145.5v404h57v-406q0 -64 41.5 -104.5t105.5 -40.5t105 40.5t41 105.5v405h57v-403q0 -90 -57.5 -146t-146.5 -56zM125 661l119 155h49l119 -155h-61l-83 110l-83 -110h-60z" />
    <glyph glyph-name="uniE300" unicode="&#xf7fb;" horiz-adv-x="545" 
d="M272 -9q-88 0 -145.5 55.5t-57.5 145.5v404h57v-406q0 -64 41.5 -104.5t105.5 -40.5t105 40.5t41 105.5v405h57v-403q0 -90 -57.5 -146t-146.5 -56zM125 661l119 155h49l119 -155h-61l-83 110l-83 -110h-60z" />
    <glyph glyph-name="uniE302" unicode="&#xe302;" horiz-adv-x="471" 
d="M198 661l119 155h75l-140 -155h-54zM231 -9q-123 0 -201 97l49 39q57 -83 151 -83q58 0 96 34t38 85q0 27 -11 47.5t-35.5 35t-45 23t-56.5 19.5q-34 12 -50.5 18.5t-43 21t-39.5 29t-23.5 39t-10.5 54.5q0 67 52 110.5t128 43.5q114 0 179 -81l-46 -35q-45 66 -133 66
q-52 0 -86.5 -29t-34.5 -74q0 -24 9 -41.5t30.5 -30.5t37.5 -20t50 -19q11 -4 17 -6q38 -12 63 -23.5t52.5 -31t41.5 -48.5t14 -68q0 -71 -54 -121.5t-138 -50.5z" />
    <glyph glyph-name="uniE302" unicode="&#xf65b;" horiz-adv-x="471" 
d="M198 661l119 155h75l-140 -155h-54zM231 -9q-123 0 -201 97l49 39q57 -83 151 -83q58 0 96 34t38 85q0 27 -11 47.5t-35.5 35t-45 23t-56.5 19.5q-34 12 -50.5 18.5t-43 21t-39.5 29t-23.5 39t-10.5 54.5q0 67 52 110.5t128 43.5q114 0 179 -81l-46 -35q-45 66 -133 66
q-52 0 -86.5 -29t-34.5 -74q0 -24 9 -41.5t30.5 -30.5t37.5 -20t50 -19q11 -4 17 -6q38 -12 63 -23.5t52.5 -31t41.5 -48.5t14 -68q0 -71 -54 -121.5t-138 -50.5z" />
    <glyph glyph-name="uniE303" unicode="&#xe303;" horiz-adv-x="471" 
d="M231 -9q-123 0 -201 97l49 39q57 -83 151 -83q58 0 96 34t38 85q0 27 -11 47.5t-35.5 35t-45 23t-56.5 19.5q-34 12 -50.5 18.5t-43 21t-39.5 29t-23.5 39t-10.5 54.5q0 67 52 110.5t128 43.5q114 0 179 -81l-46 -35q-45 66 -133 66q-52 0 -86.5 -29t-34.5 -74
q0 -24 9 -41.5t30.5 -30.5t37.5 -20t50 -19q11 -4 17 -6q38 -12 63 -23.5t52.5 -31t41.5 -48.5t14 -68q0 -71 -54 -121.5t-138 -50.5zM87 659l119 155h49l119 -155h-61l-83 110l-83 -110h-60z" />
    <glyph glyph-name="uniE303" unicode="&#xf636;" horiz-adv-x="471" 
d="M231 -9q-123 0 -201 97l49 39q57 -83 151 -83q58 0 96 34t38 85q0 27 -11 47.5t-35.5 35t-45 23t-56.5 19.5q-34 12 -50.5 18.5t-43 21t-39.5 29t-23.5 39t-10.5 54.5q0 67 52 110.5t128 43.5q114 0 179 -81l-46 -35q-45 66 -133 66q-52 0 -86.5 -29t-34.5 -74
q0 -24 9 -41.5t30.5 -30.5t37.5 -20t50 -19q11 -4 17 -6q38 -12 63 -23.5t52.5 -31t41.5 -48.5t14 -68q0 -71 -54 -121.5t-138 -50.5zM87 659l119 155h49l119 -155h-61l-83 110l-83 -110h-60z" />
    <glyph glyph-name="uniE304" unicode="&#xe304;" horiz-adv-x="471" 
d="M231 -9q-123 0 -201 97l49 39q57 -83 151 -83q58 0 96 34t38 85q0 27 -11 47.5t-35.5 35t-45 23t-56.5 19.5q-34 12 -50.5 18.5t-43 21t-39.5 29t-23.5 39t-10.5 54.5q0 67 52 110.5t128 43.5q114 0 179 -81l-46 -35q-45 66 -133 66q-52 0 -86.5 -29t-34.5 -74
q0 -24 9 -41.5t30.5 -30.5t37.5 -20t50 -19q11 -4 17 -6q38 -12 63 -23.5t52.5 -31t41.5 -48.5t14 -68q0 -71 -54 -121.5t-138 -50.5zM209 661l-117 155h59l81 -114l84 114h59l-118 -155h-48z" />
    <glyph glyph-name="uniE304" unicode="&#xf6fd;" horiz-adv-x="471" 
d="M231 -9q-123 0 -201 97l49 39q57 -83 151 -83q58 0 96 34t38 85q0 27 -11 47.5t-35.5 35t-45 23t-56.5 19.5q-34 12 -50.5 18.5t-43 21t-39.5 29t-23.5 39t-10.5 54.5q0 67 52 110.5t128 43.5q114 0 179 -81l-46 -35q-45 66 -133 66q-52 0 -86.5 -29t-34.5 -74
q0 -24 9 -41.5t30.5 -30.5t37.5 -20t50 -19q11 -4 17 -6q38 -12 63 -23.5t52.5 -31t41.5 -48.5t14 -68q0 -71 -54 -121.5t-138 -50.5zM209 661l-117 155h59l81 -114l84 114h59l-118 -155h-48z" />
    <glyph glyph-name="uniE305" unicode="&#xe305;" horiz-adv-x="471" 
d="M201 -264h-40l43 204h55zM231 -9q-123 0 -201 97l49 39q57 -83 151 -83q58 0 96 34t38 85q0 27 -11 47.5t-35.5 35t-45 23t-56.5 19.5q-34 12 -50.5 18.5t-43 21t-39.5 29t-23.5 39t-10.5 54.5q0 67 52 110.5t128 43.5q114 0 179 -81l-46 -35q-45 66 -133 66
q-52 0 -86.5 -29t-34.5 -74q0 -24 9 -41.5t30.5 -30.5t37.5 -20t50 -19q11 -4 17 -6q38 -12 63 -23.5t52.5 -31t41.5 -48.5t14 -68q0 -71 -54 -121.5t-138 -50.5z" />
    <glyph glyph-name="uniE305" unicode="&#xf65d;" horiz-adv-x="471" 
d="M201 -264h-40l43 204h55zM231 -9q-123 0 -201 97l49 39q57 -83 151 -83q58 0 96 34t38 85q0 27 -11 47.5t-35.5 35t-45 23t-56.5 19.5q-34 12 -50.5 18.5t-43 21t-39.5 29t-23.5 39t-10.5 54.5q0 67 52 110.5t128 43.5q114 0 179 -81l-46 -35q-45 66 -133 66
q-52 0 -86.5 -29t-34.5 -74q0 -24 9 -41.5t30.5 -30.5t37.5 -20t50 -19q11 -4 17 -6q38 -12 63 -23.5t52.5 -31t41.5 -48.5t14 -68q0 -71 -54 -121.5t-138 -50.5z" />
    <glyph glyph-name="uniE306" unicode="&#xe306;" horiz-adv-x="471" 
d="M229 -228q-83 0 -139 53l46 28q23 -20 43 -29t50 -9q35 0 57.5 14t22.5 36q0 20 -22 32t-61 12h-33v85q-96 12 -163 94l49 39q57 -83 151 -83q58 0 96 34t38 85q0 27 -11 47.5t-35.5 35t-45 23t-56.5 19.5q-34 12 -50.5 18.5t-43 21t-39.5 29t-23.5 39t-10.5 54.5
q0 67 52 110.5t128 43.5q114 0 179 -81l-46 -35q-45 66 -133 66q-52 0 -86.5 -29t-34.5 -74q0 -24 9 -41.5t30.5 -30.5t37.5 -20t50 -19q11 -4 17 -6q38 -12 63 -23.5t52.5 -31t41.5 -48.5t14 -68q0 -68 -50.5 -118t-130.5 -54v-45q54 -1 87.5 -22.5t33.5 -56.5
q0 -42 -38.5 -68.5t-95.5 -26.5z" />
    <glyph glyph-name="uniE306" unicode="&#xf65c;" horiz-adv-x="471" 
d="M229 -228q-83 0 -139 53l46 28q23 -20 43 -29t50 -9q35 0 57.5 14t22.5 36q0 20 -22 32t-61 12h-33v85q-96 12 -163 94l49 39q57 -83 151 -83q58 0 96 34t38 85q0 27 -11 47.5t-35.5 35t-45 23t-56.5 19.5q-34 12 -50.5 18.5t-43 21t-39.5 29t-23.5 39t-10.5 54.5
q0 67 52 110.5t128 43.5q114 0 179 -81l-46 -35q-45 66 -133 66q-52 0 -86.5 -29t-34.5 -74q0 -24 9 -41.5t30.5 -30.5t37.5 -20t50 -19q11 -4 17 -6q38 -12 63 -23.5t52.5 -31t41.5 -48.5t14 -68q0 -68 -50.5 -118t-130.5 -54v-45q54 -1 87.5 -22.5t33.5 -56.5
q0 -42 -38.5 -68.5t-95.5 -26.5z" />
    <glyph glyph-name="uniE309" unicode="&#xe309;" horiz-adv-x="512" 
d="M228 0v542h-183v54h422v-54h-182v-542h-57zM236 660l-117 155h59l81 -114l84 114h59l-118 -155h-48z" />
    <glyph glyph-name="uniE309" unicode="&#xf65e;" horiz-adv-x="512" 
d="M228 0v542h-183v54h422v-54h-182v-542h-57zM236 660l-117 155h59l81 -114l84 114h59l-118 -155h-48z" />
    <glyph glyph-name="uniE30A" unicode="&#xe30a;" horiz-adv-x="512" 
d="M230 -264h-40l43 204h55zM228 0v542h-183v54h422v-54h-182v-542h-57z" />
    <glyph glyph-name="uniE30A" unicode="&#xf65f;" horiz-adv-x="512" 
d="M230 -264h-40l43 204h55zM228 0v542h-183v54h422v-54h-182v-542h-57z" />
    <glyph glyph-name="uniE30D" unicode="&#xe30d;" horiz-adv-x="512" 
d="M390 275h-105v-275h-57v275h-106v55h106v212h-183v54h422v-54h-182v-212h105v-55z" />
    <glyph glyph-name="uniE30D" unicode="&#xf637;" horiz-adv-x="512" 
d="M390 275h-105v-275h-57v275h-106v55h106v212h-183v54h422v-54h-182v-212h105v-55z" />
    <glyph glyph-name="uniE30E" unicode="&#xe30e;" horiz-adv-x="545" 
d="M229 651l119 155h75l-140 -155h-54zM272 -9q-88 0 -145.5 55.5t-57.5 145.5v404h57v-406q0 -64 41.5 -104.5t105.5 -40.5t105 40.5t41 105.5v405h57v-403q0 -90 -57.5 -146t-146.5 -56z" />
    <glyph glyph-name="uniE30E" unicode="&#xf7fa;" horiz-adv-x="545" 
d="M229 651l119 155h75l-140 -155h-54zM272 -9q-88 0 -145.5 55.5t-57.5 145.5v404h57v-406q0 -64 41.5 -104.5t105.5 -40.5t105 40.5t41 105.5v405h57v-403q0 -90 -57.5 -146t-146.5 -56z" />
    <glyph glyph-name="uniE30F" unicode="&#xe30f;" horiz-adv-x="545" 
d="M272 -9q-88 0 -145.5 55.5t-57.5 145.5v404h57v-406q0 -64 41.5 -104.5t105.5 -40.5t105 40.5t41 105.5v405h57v-403q0 -90 -57.5 -146t-146.5 -56zM250 651l-140 155h74l120 -155h-54z" />
    <glyph glyph-name="uniE30F" unicode="&#xf7f9;" horiz-adv-x="545" 
d="M272 -9q-88 0 -145.5 55.5t-57.5 145.5v404h57v-406q0 -64 41.5 -104.5t105.5 -40.5t105 40.5t41 105.5v405h57v-403q0 -90 -57.5 -146t-146.5 -56zM250 651l-140 155h74l120 -155h-54z" />
    <glyph glyph-name="uniE310" unicode="&#xe310;" horiz-adv-x="876" 
d="M207 0l-173 596h61l144 -507l168 507h55l168 -513l153 513h58l-181 -596h-58l-167 507l-169 -507h-59zM309 746q0 19 12.5 31t31.5 12q20 0 31.5 -12t11.5 -31t-11.5 -31.5t-31.5 -12.5t-32 12.5t-12 31.5zM477 746q0 19 12.5 31t31.5 12q20 0 31.5 -12t11.5 -31
t-11.5 -31.5t-31.5 -12.5t-32 12.5t-12 31.5z" />
    <glyph glyph-name="uniE310" unicode="&#xf63c;" horiz-adv-x="876" 
d="M207 0l-173 596h61l144 -507l168 507h55l168 -513l153 513h58l-181 -596h-58l-167 507l-169 -507h-59zM309 746q0 19 12.5 31t31.5 12q20 0 31.5 -12t11.5 -31t-11.5 -31.5t-31.5 -12.5t-32 12.5t-12 31.5zM477 746q0 19 12.5 31t31.5 12q20 0 31.5 -12t11.5 -31
t-11.5 -31.5t-31.5 -12.5t-32 12.5t-12 31.5z" />
    <glyph glyph-name="uniE311" unicode="&#xe311;" horiz-adv-x="545" 
d="M145 746q0 19 12.5 31t31.5 12q20 0 31.5 -12t11.5 -31t-11.5 -31.5t-31.5 -12.5t-32 12.5t-12 31.5zM313 746q0 19 12.5 31t31.5 12q20 0 31.5 -12t11.5 -31t-11.5 -31.5t-31.5 -12.5t-32 12.5t-12 31.5zM272 -9q-88 0 -145.5 55.5t-57.5 145.5v404h57v-406
q0 -64 41.5 -104.5t105.5 -40.5t105 40.5t41 105.5v405h57v-403q0 -90 -57.5 -146t-146.5 -56z" />
    <glyph glyph-name="uniE311" unicode="&#xf7fc;" horiz-adv-x="545" 
d="M145 746q0 19 12.5 31t31.5 12q20 0 31.5 -12t11.5 -31t-11.5 -31.5t-31.5 -12.5t-32 12.5t-12 31.5zM313 746q0 19 12.5 31t31.5 12q20 0 31.5 -12t11.5 -31t-11.5 -31.5t-31.5 -12.5t-32 12.5t-12 31.5zM272 -9q-88 0 -145.5 55.5t-57.5 145.5v404h57v-406
q0 -64 41.5 -104.5t105.5 -40.5t105 40.5t41 105.5v405h57v-403q0 -90 -57.5 -146t-146.5 -56z" />
    <glyph glyph-name="uniE312" unicode="&#xe312;" horiz-adv-x="545" 
d="M272 -9q-88 0 -145.5 55.5t-57.5 145.5v404h57v-406q0 -64 41.5 -104.5t105.5 -40.5t105 40.5t41 105.5v405h57v-403q0 -90 -57.5 -146t-146.5 -56zM146 661h-47q0 50 25.5 79t67.5 29q35 0 86 -30q52 -31 72 -31q50 0 50 58h46q0 -51 -25 -80t-70 -29q-7 0 -14.5 1
t-12.5 2t-13 4t-11.5 4t-11.5 6t-10 6t-11 6.5t-10 5.5q-4 2 -13 7.5t-13.5 8t-11.5 5.5t-13.5 4.5t-13.5 1.5q-21 0 -33.5 -15t-12.5 -43z" />
    <glyph glyph-name="uniE312" unicode="&#xf639;" horiz-adv-x="545" 
d="M272 -9q-88 0 -145.5 55.5t-57.5 145.5v404h57v-406q0 -64 41.5 -104.5t105.5 -40.5t105 40.5t41 105.5v405h57v-403q0 -90 -57.5 -146t-146.5 -56zM146 661h-47q0 50 25.5 79t67.5 29q35 0 86 -30q52 -31 72 -31q50 0 50 58h46q0 -51 -25 -80t-70 -29q-7 0 -14.5 1
t-12.5 2t-13 4t-11.5 4t-11.5 6t-10 6t-11 6.5t-10 5.5q-4 2 -13 7.5t-13.5 8t-11.5 5.5t-13.5 4.5t-13.5 1.5q-21 0 -33.5 -15t-12.5 -43z" />
    <glyph glyph-name="uniE313" unicode="&#xe313;" horiz-adv-x="545" 
d="M272 -9q-88 0 -145.5 55.5t-57.5 145.5v404h57v-406q0 -64 41.5 -104.5t105.5 -40.5t105 40.5t41 105.5v405h57v-403q0 -90 -57.5 -146t-146.5 -56zM271 650q-41 0 -69.5 28.5t-28.5 70.5t28.5 71t69.5 29q43 0 72 -29t29 -71t-29 -70.5t-72 -28.5zM271 695
q23 0 39.5 15.5t16.5 38.5t-16.5 39t-39.5 16q-22 0 -38 -16t-16 -39t16 -38.5t38 -15.5z" />
    <glyph glyph-name="uniE313" unicode="&#xf663;" horiz-adv-x="545" 
d="M272 -9q-88 0 -145.5 55.5t-57.5 145.5v404h57v-406q0 -64 41.5 -104.5t105.5 -40.5t105 40.5t41 105.5v405h57v-403q0 -90 -57.5 -146t-146.5 -56zM271 650q-41 0 -69.5 28.5t-28.5 70.5t28.5 71t69.5 29q43 0 72 -29t29 -71t-29 -70.5t-72 -28.5zM271 695
q23 0 39.5 15.5t16.5 38.5t-16.5 39t-39.5 16q-22 0 -38 -16t-16 -39t16 -38.5t38 -15.5z" />
    <glyph glyph-name="uniE315" unicode="&#xe315;" horiz-adv-x="545" 
d="M272 -9q-88 0 -145.5 55.5t-57.5 145.5v404h57v-406q0 -64 41.5 -104.5t105.5 -40.5t105 40.5t41 105.5v405h57v-403q0 -90 -57.5 -146t-146.5 -56zM140 661v50h264v-50h-264z" />
    <glyph glyph-name="uniE315" unicode="&#xf661;" horiz-adv-x="545" 
d="M272 -9q-88 0 -145.5 55.5t-57.5 145.5v404h57v-406q0 -64 41.5 -104.5t105.5 -40.5t105 40.5t41 105.5v405h57v-403q0 -90 -57.5 -146t-146.5 -56zM140 661v50h264v-50h-264z" />
    <glyph glyph-name="uniE316" unicode="&#xe316;" horiz-adv-x="545" 
d="M272 -9q-88 0 -145.5 55.5t-57.5 145.5v404h57v-406q0 -64 41.5 -104.5t105.5 -40.5t105 40.5t41 105.5v405h57v-403q0 -90 -57.5 -146t-146.5 -56zM273 653q-78 0 -119.5 45t-41.5 112h49q0 -50 29 -81.5t83 -31.5q52 0 81.5 32t29.5 81h51q0 -65 -44.5 -111t-117.5 -46
z" />
    <glyph glyph-name="uniE316" unicode="&#xf638;" horiz-adv-x="545" 
d="M272 -9q-88 0 -145.5 55.5t-57.5 145.5v404h57v-406q0 -64 41.5 -104.5t105.5 -40.5t105 40.5t41 105.5v405h57v-403q0 -90 -57.5 -146t-146.5 -56zM273 653q-78 0 -119.5 45t-41.5 112h49q0 -50 29 -81.5t83 -31.5q52 0 81.5 32t29.5 81h51q0 -65 -44.5 -111t-117.5 -46
z" />
    <glyph glyph-name="uniE318" unicode="&#xe318;" horiz-adv-x="545" 
d="M272 -9q-88 0 -145.5 55.5t-57.5 145.5v404h57v-406q0 -64 41.5 -104.5t105.5 -40.5t105 40.5t41 105.5v405h57v-403q0 -90 -57.5 -146t-146.5 -56zM169 655l119 155h71l-140 -155h-50zM290 655l120 155h71l-140 -155h-51z" />
    <glyph glyph-name="uniE318" unicode="&#xf660;" horiz-adv-x="545" 
d="M272 -9q-88 0 -145.5 55.5t-57.5 145.5v404h57v-406q0 -64 41.5 -104.5t105.5 -40.5t105 40.5t41 105.5v405h57v-403q0 -90 -57.5 -146t-146.5 -56zM169 655l119 155h71l-140 -155h-50zM290 655l120 155h71l-140 -155h-51z" />
    <glyph glyph-name="uniE31B" unicode="&#xe31b;" horiz-adv-x="545" 
d="M311 -200q-57 0 -93 26.5t-36 68.5q0 54 61 98q-77 8 -125.5 62.5t-48.5 136.5v404h57v-406q0 -64 41.5 -104.5t105.5 -40.5t105 40.5t41 105.5v405h57v-403q0 -65 -31 -113t-84 -72h1q-72 -40 -97 -62.5t-25 -47.5q0 -24 20 -37.5t51 -13.5q41 0 86 39l45 -31
q-61 -55 -131 -55z" />
    <glyph glyph-name="uniE31B" unicode="&#xf662;" horiz-adv-x="545" 
d="M311 -200q-57 0 -93 26.5t-36 68.5q0 54 61 98q-77 8 -125.5 62.5t-48.5 136.5v404h57v-406q0 -64 41.5 -104.5t105.5 -40.5t105 40.5t41 105.5v405h57v-403q0 -65 -31 -113t-84 -72h1q-72 -40 -97 -62.5t-25 -47.5q0 -24 20 -37.5t51 -13.5q41 0 86 39l45 -31
q-61 -55 -131 -55z" />
    <glyph glyph-name="uniE31D" unicode="&#xe31d;" horiz-adv-x="876" 
d="M207 0l-173 596h61l144 -507l168 507h55l168 -513l153 513h58l-181 -596h-58l-167 507l-169 -507h-59zM407 661l119 155h75l-140 -155h-54z" />
    <glyph glyph-name="uniE31D" unicode="&#xf63a;" horiz-adv-x="876" 
d="M207 0l-173 596h61l144 -507l168 507h55l168 -513l153 513h58l-181 -596h-58l-167 507l-169 -507h-59zM407 661l119 155h75l-140 -155h-54z" />
    <glyph glyph-name="uniE31E" unicode="&#xe31e;" horiz-adv-x="876" 
d="M207 0l-173 596h61l144 -507l168 507h55l168 -513l153 513h58l-181 -596h-58l-167 507l-169 -507h-59zM408 661l-140 155h74l120 -155h-54z" />
    <glyph glyph-name="uniE31E" unicode="&#xf63d;" horiz-adv-x="876" 
d="M207 0l-173 596h61l144 -507l168 507h55l168 -513l153 513h58l-181 -596h-58l-167 507l-169 -507h-59zM408 661l-140 155h74l120 -155h-54z" />
    <glyph glyph-name="uniE31F" unicode="&#xe31f;" horiz-adv-x="876" 
d="M207 0l-173 596h61l144 -507l168 507h55l168 -513l153 513h58l-181 -596h-58l-167 507l-169 -507h-59zM291 654l119 155h49l119 -155h-61l-83 110l-83 -110h-60z" />
    <glyph glyph-name="uniE31F" unicode="&#xf63b;" horiz-adv-x="876" 
d="M207 0l-173 596h61l144 -507l168 507h55l168 -513l153 513h58l-181 -596h-58l-167 507l-169 -507h-59zM291 654l119 155h49l119 -155h-61l-83 110l-83 -110h-60z" />
    <glyph glyph-name="uniE321" unicode="&#xe321;" horiz-adv-x="522" 
d="M233 0v282l-199 314h63l163 -259l164 259h64l-199 -314v-282h-56zM226 655l119 155h75l-140 -155h-54z" />
    <glyph glyph-name="uniE321" unicode="&#xf7fd;" horiz-adv-x="522" 
d="M233 0v282l-199 314h63l163 -259l164 259h64l-199 -314v-282h-56zM226 655l119 155h75l-140 -155h-54z" />
    <glyph glyph-name="uniE322" unicode="&#xe322;" horiz-adv-x="531" 
d="M237 0v282l-199 314h63l163 -259l164 259h64l-199 -314v-282h-56zM247 655l-140 155h74l120 -155h-54z" />
    <glyph glyph-name="uniE322" unicode="&#xf63f;" horiz-adv-x="531" 
d="M237 0v282l-199 314h63l163 -259l164 259h64l-199 -314v-282h-56zM247 655l-140 155h74l120 -155h-54z" />
    <glyph glyph-name="uniE323" unicode="&#xe323;" horiz-adv-x="522" 
d="M233 0v282l-199 314h63l163 -259l164 259h64l-199 -314v-282h-56zM117 660l119 155h49l119 -155h-61l-83 110l-83 -110h-60z" />
    <glyph glyph-name="uniE323" unicode="&#xf63e;" horiz-adv-x="522" 
d="M233 0v282l-199 314h63l163 -259l164 259h64l-199 -314v-282h-56zM117 660l119 155h49l119 -155h-61l-83 110l-83 -110h-60z" />
    <glyph glyph-name="uniE324" unicode="&#xe324;" horiz-adv-x="522" 
d="M233 0v282l-199 314h63l163 -259l164 259h64l-199 -314v-282h-56zM136 740q0 19 12.5 31t31.5 12q20 0 31.5 -12t11.5 -31t-11.5 -31.5t-31.5 -12.5t-32 12.5t-12 31.5zM304 740q0 19 12.5 31t31.5 12q20 0 31.5 -12t11.5 -31t-11.5 -31.5t-31.5 -12.5t-32 12.5t-12 31.5
z" />
    <glyph glyph-name="uniE324" unicode="&#xf7ff;" horiz-adv-x="522" 
d="M233 0v282l-199 314h63l163 -259l164 259h64l-199 -314v-282h-56zM136 740q0 19 12.5 31t31.5 12q20 0 31.5 -12t11.5 -31t-11.5 -31.5t-31.5 -12.5t-32 12.5t-12 31.5zM304 740q0 19 12.5 31t31.5 12q20 0 31.5 -12t11.5 -31t-11.5 -31.5t-31.5 -12.5t-32 12.5t-12 31.5
z" />
    <glyph glyph-name="uniE327" unicode="&#xe327;" horiz-adv-x="459" 
d="M209 0v53h28q99 0 99 109v434h56v-433q0 -80 -36.5 -121.5t-117.5 -41.5h-29zM66 0v596h58v-596h-58z" />
    <glyph glyph-name="uniE327" unicode="&#xf631;" horiz-adv-x="459" 
d="M209 0v53h28q99 0 99 109v434h56v-433q0 -80 -36.5 -121.5t-117.5 -41.5h-29zM66 0v596h58v-596h-58z" />
    <glyph glyph-name="uniE328" unicode="&#xe328;" horiz-adv-x="496" 
d="M50 0v53l328 489h-318v54h385v-52l-328 -489h328v-55h-395zM207 661l119 155h75l-140 -155h-54z" />
    <glyph glyph-name="uniE328" unicode="&#xf664;" horiz-adv-x="496" 
d="M50 0v53l328 489h-318v54h385v-52l-328 -489h328v-55h-395zM207 661l119 155h75l-140 -155h-54z" />
    <glyph glyph-name="uniE329" unicode="&#xe329;" horiz-adv-x="496" 
d="M50 0v53l328 489h-318v54h385v-52l-328 -489h328v-55h-395zM227 661l-117 155h59l81 -114l84 114h59l-118 -155h-48z" />
    <glyph glyph-name="uniE329" unicode="&#xf6ff;" horiz-adv-x="496" 
d="M50 0v53l328 489h-318v54h385v-52l-328 -489h328v-55h-395zM227 661l-117 155h59l81 -114l84 114h59l-118 -155h-48z" />
    <glyph glyph-name="uniE32A" unicode="&#xe32a;" horiz-adv-x="496" 
d="M50 0v53l328 489h-318v54h385v-52l-328 -489h328v-55h-395zM206 746q0 21 14 34.5t35 13.5q23 0 36 -13.5t13 -34.5q0 -22 -13 -35.5t-36 -13.5t-36 13.5t-13 35.5z" />
    <glyph glyph-name="uniE32A" unicode="&#xf665;" horiz-adv-x="496" 
d="M50 0v53l328 489h-318v54h385v-52l-328 -489h328v-55h-395zM206 746q0 21 14 34.5t35 13.5q23 0 36 -13.5t13 -34.5q0 -22 -13 -35.5t-36 -13.5t-36 13.5t-13 35.5z" />
    <glyph glyph-name="uniE32B" unicode="&#xe32b;" horiz-adv-x="630" 
d="M371 -229v55q81 0 105 22.5t24 105.5v42l-371 513v-509h-57v596h63l366 -507v507h57v-643q0 -107 -37 -144.5t-142 -37.5h-8z" />
    <glyph glyph-name="uniE32B" unicode="&#xf62b;" horiz-adv-x="630" 
d="M371 -229v55q81 0 105 22.5t24 105.5v42l-371 513v-509h-57v596h63l366 -507v507h57v-643q0 -107 -37 -144.5t-142 -37.5h-8z" />
    <glyph glyph-name="uniE32C" unicode="&#xe32c;" horiz-adv-x="619" 
d="M27 273v51h67v272h166q136 0 222.5 -85t86.5 -213t-88 -213t-219 -85h-168v273h-67zM304 273h-154v-219h108q110 0 181.5 69.5t71.5 174.5q0 107 -70 176t-185 69h-106v-219h154v-51z" />
    </font>
</defs>
</svg>
